<svg id="Layer_1" data-name="Layer 1" xmlns="http://www.w3.org/2000/svg" xmlns:xlink="http://www.w3.org/1999/xlink" viewBox="0 0 800 450"><defs><style>.cls-1,.cls-24,.cls-25,.cls-29,.cls-48,.cls-57,.cls-58,.cls-61,.cls-62,.cls-63{fill:none;}.cls-2{fill:#18222d;}.cls-3{fill:#c767a8;}.cls-4{fill:#671c57;}.cls-5{fill:#0b1d2b;}.cls-6{fill:#ed707f;}.cls-7{fill:#0e232e;}.cls-8{fill:#085ea6;}.cls-9{fill:#df7d72;}.cls-10{fill:#f39888;}.cls-11{fill:#de7c72;}.cls-12{fill:#e6332b;}.cls-13{fill:#fcb73c;}.cls-14{fill:#e6e3db;}.cls-15{fill:#a3cc6b;}.cls-16{fill:#f5f0ec;}.cls-17{fill:#c1976b;}.cls-18{fill:#009247;}.cls-19{fill:#e65668;}.cls-20{fill:#bc202e;}.cls-21{fill:#debb99;}.cls-22{fill:#fff;}.cls-23{fill:#babcbe;}.cls-24,.cls-57,.cls-62{stroke:#dd8c83;}.cls-24,.cls-25,.cls-29,.cls-57,.cls-61,.cls-62,.cls-63{stroke-linecap:round;stroke-linejoin:round;}.cls-24,.cls-25{stroke-width:9.08px;}.cls-25,.cls-29,.cls-63{stroke:#ed9f93;}.cls-26{fill:#ed9f93;}.cls-27{fill:#e9e5e2;}.cls-28{fill:#939598;}.cls-29,.cls-57{stroke-width:9.58px;}.cls-30{fill:#ea2127;}.cls-31{fill:#82414c;}.cls-32{fill:#5b0f3c;}.cls-33{fill:#9d2063;}.cls-34{fill:#f1f1f1;}.cls-35{fill:#0c2833;}.cls-36{fill:#32384d;}.cls-37{fill:#f9faea;}.cls-38{fill:#10232d;}.cls-39{fill:#9e4498;}.cls-40{fill:#6e3675;}.cls-41{fill:#f19889;}.cls-42{clip-path:url(#clip-path);}.cls-43{fill:#e6352c;}.cls-44{fill:#da99c4;}.cls-45,.cls-46{fill:#f9faef;}.cls-46{opacity:0.5;}.cls-47{fill:#ee4036;opacity:0.7;}.cls-48{stroke:#d62929;stroke-width:11.98px;}.cls-48,.cls-58{stroke-miterlimit:10;}.cls-49{fill:#f7a395;}.cls-50{clip-path:url(#clip-path-3);}.cls-51{fill:#fbfcf2;}.cls-52{fill:#2297b2;}.cls-53{fill:#7b3f7f;}.cls-54{fill:#e63e37;}.cls-55{fill:#46335b;}.cls-56{fill:#783f7e;fill-rule:evenodd;}.cls-58{stroke:#a7a9ac;stroke-width:0.4px;}.cls-59{fill:#d6d1ce;}.cls-60{fill:#8dc63f;}.cls-61{stroke:#f15a29;stroke-width:0.51px;}.cls-62,.cls-63{stroke-width:8.13px;}</style><clipPath id="clip-path"><path class="cls-1" d="M190.25,52.89c-32.79.46-61.65,27.58-64.13,60.28L123.24,151a59.24,59.24,0,0,0,15,44.15,15.27,15.27,0,0,1,2.92,15.61l5.23.3,33.21,9.81-.68,3a15.4,15.4,0,0,1,12.25-9.7A59.4,59.4,0,0,0,241.66,160l3.68-48.48c2.16-28.34-16.19-51.93-42.47-57.42a58.06,58.06,0,0,0-12.62-1.18"/></clipPath><clipPath id="clip-path-3"><path class="cls-1" d="M693.76,81.78c31.72,12.91,49.47,50.27,39.46,83l-11.56,37.85a61.88,61.88,0,0,1-31.41,37.24A16,16,0,0,0,681.48,254l-5.21-1.71-36-3.07-.5,3.22a16.08,16.08,0,0,0-8.24-14.09,62,62,0,0,1-28.45-71.91l14.83-48.56c8.67-28.39,35.5-44.35,63.14-39.69a60.36,60.36,0,0,1,12.73,3.62"/></clipPath></defs><title>FGF Arisan</title><path class="cls-2" d="M466.39,437.71H453a11.86,11.86,0,0,1-11.86-11.85V389.11h0c0-.12,0-.23,0-.34v-4.54c.12-4.11,1-7,5.78-7h1.7c12.94,0,12.42-9.57,12.42-9.57v-3.86H413.59v3.86h0s-.52,9.57,12.42,9.57h1.87c4.77,0,5.64,2.84,5.77,6.91v41.69a11.86,11.86,0,0,1-11.86,11.85h-14.3c-9.33,0-9,6.9-9,6.9h76.82S475.72,437.71,466.39,437.71Z"/><path class="cls-3" d="M501.67,308.54V284.91s.46-11.86-12.32-11.86H424.2c-12.77,0-12.32,11.86-12.32,11.86v23.63h0s-.58,44.73-31.86,44.73l0,0a18.54,18.54,0,0,0-17.88,18.52h74.14a8,8,0,0,1,8-8h34.16c8.33,0,23.21-4,23.21-35.15ZM488,286.05a3.2,3.2,0,1,1,6.39,0v17.34a3.2,3.2,0,1,1-6.39,0Zm-16.88,0a3.43,3.43,0,0,1,6.85,0v17.34a3.43,3.43,0,0,1-6.85,0Zm-17.33,0a3.42,3.42,0,0,1,6.84,0v17.34a3.42,3.42,0,0,1-6.84,0Zm-34.67,0a3.43,3.43,0,0,1,6.85,0v17.34a3.43,3.43,0,0,1-6.85,0Z"/><path class="cls-4" d="M370.17,363.83a8,8,0,0,0-8,8h62.31a8,8,0,0,1,8-8Z"/><path class="cls-5" d="M384.3,309.43,367,364.49l75,.91a33.31,33.31,0,0,0,33.68-34.68L471.36,295Z"/><path class="cls-6" d="M390.49,356.06l-19.2,75.22c-1,3.73,1.34,7.67,4,8.67s5.64-1.21,6.59-4.94l19.19-75.22c.95-3.73-.46-7.56-3.15-8.56s-6.52,1.1-7.46,4.83"/><path class="cls-7" d="M363.42,444.34h27.14a2.37,2.37,0,0,0,2.15-3.36l-6.38-16.49-10-5.87L360,436.38l-.27,4a3.83,3.83,0,0,0,3.66,3.95"/><rect class="cls-7" x="369.71" y="417.04" width="20.58" height="8.99" rx="4.49" transform="translate(54.25 -43.2) rotate(7.01)"/><path class="cls-6" d="M426.51,356.06l-19.2,75.22c-.94,3.73,1.34,7.67,4,8.67s5.64-1.21,6.59-4.94l19.19-75.22c.95-3.73-.46-7.56-3.15-8.56s-6.52,1.1-7.46,4.83"/><path class="cls-7" d="M399.44,444.34h27.14a2.37,2.37,0,0,0,2.15-3.36l-6.38-16.49-10-5.87-16.29,17.76-.27,4a3.83,3.83,0,0,0,3.66,3.95"/><rect class="cls-7" x="405.73" y="417.04" width="20.58" height="8.99" rx="4.49" transform="translate(54.52 -47.59) rotate(7.01)"/><polygon class="cls-8" points="384.3 305.31 473.08 303.89 441.3 330.85 428.2 317.96 416.08 330.03 384.3 309.44 384.3 305.31"/><path class="cls-8" d="M401.76,223.75S377,249.7,372.65,268.1l14.56,4.2s-2.91,25.63-2.91,33l88.78-1.42-2.91-33.66,16-3.38s-19.64-36.49-33.47-43.1Z"/><path class="cls-7" d="M360.12,93.69s-25,49.8,12,86.18l4.36-52.23Z"/><path class="cls-9" d="M479.06,148a8.19,8.19,0,1,0,8.25-8.12,8.19,8.19,0,0,0-8.25,8.12"/><path class="cls-10" d="M427.31,51.87h0a59.06,59.06,0,0,0-59.06,59.06V154.2a59,59,0,0,0,33.63,53.3,9.64,9.64,0,0,1,5.55,8.65v4.31h39.76v-4.31a9.63,9.63,0,0,1,5.56-8.65,59,59,0,0,0,33.62-53.3V110.93a59.06,59.06,0,0,0-59.06-59.06"/><path class="cls-10" d="M360.14,148a8.19,8.19,0,1,0,8.26-8.12,8.19,8.19,0,0,0-8.26,8.12"/><path class="cls-7" d="M460.48,128.1a1.43,1.43,0,0,1-.77-.22c-9.25-5.66-17.51-5.66-26.76,0a1.48,1.48,0,1,1-1.54-2.52c10.18-6.24,19.66-6.24,29.84,0a1.48,1.48,0,0,1-.77,2.74Z"/><path class="cls-7" d="M403.5,126.85a1.46,1.46,0,0,1-.77-.22c-9.25-5.66-17.5-5.66-26.75,0a1.48,1.48,0,1,1-1.54-2.52c10.18-6.24,19.66-6.24,29.84,0a1.48,1.48,0,0,1,.48,2A1.45,1.45,0,0,1,403.5,126.85Z"/><path class="cls-7" d="M440.39,147.6a5.94,5.94,0,0,1,2.11-11.5,5.9,5.9,0,0,1,2.12.39,5.94,5.94,0,0,1,2.09,9.75,5.93,5.93,0,0,1-6.32,1.36"/><path class="cls-7" d="M442.51,148.48a6.37,6.37,0,0,1-2.29-.42,6.44,6.44,0,0,1,2.28-12.46,6.38,6.38,0,0,1,2.29.43,6.43,6.43,0,0,1,2.27,10.56A6.38,6.38,0,0,1,442.51,148.48Zm0-11.89a5.45,5.45,0,1,0,3.86,9.3A5.37,5.37,0,0,0,448,142a5.48,5.48,0,0,0-3.51-5.09A5.34,5.34,0,0,0,442.5,136.59Z"/><path class="cls-7" d="M448.21,143.86a4.64,4.64,0,0,1-2.59-.77,1.11,1.11,0,0,1,1.3-1.8,2.53,2.53,0,0,0,1.88.29c1.26-.28,2.54-1.48,3.7-3.46a1.11,1.11,0,0,1,1.92,1.13c-1.52,2.59-3.27,4.11-5.21,4.51A5.21,5.21,0,0,1,448.21,143.86Z"/><path class="cls-7" d="M389.91,147.64A6,6,0,0,1,392,136.13a5.91,5.91,0,0,1,2.12.4,6,6,0,0,1,3.83,5.55,6,6,0,0,1-6,5.95,6.07,6.07,0,0,1-2.11-.39"/><path class="cls-7" d="M392,148.52a6.31,6.31,0,0,1-2.28-.42A6.44,6.44,0,0,1,392,135.64a6.24,6.24,0,0,1,2.29.43,6.48,6.48,0,0,1,4.15,6,6.45,6.45,0,0,1-6.44,6.44Zm0-11.89a5.45,5.45,0,0,0-1.94,10.55,5.54,5.54,0,0,0,1.93.35v0a5.44,5.44,0,0,0,3.86-1.6,5.37,5.37,0,0,0,1.59-3.85A5.48,5.48,0,0,0,394,137,5.42,5.42,0,0,0,392,136.63Z"/><path class="cls-7" d="M388.56,144.23a9.92,9.92,0,0,1-5.15-1.34,11.33,11.33,0,0,1-4.86-6.48,1.11,1.11,0,1,1,2.15-.54,9.27,9.27,0,0,0,3.85,5.12c2,1.15,4.43,1.33,7.34.54a1.11,1.11,0,0,1,.58,2.15A15.08,15.08,0,0,1,388.56,144.23Z"/><path class="cls-11" d="M486.37,128.51a84.93,84.93,0,0,0-8-7.78s8.17,43.81-20.79,72.77c-16.66,16.66-44,17.35-51.94,17.17a9.38,9.38,0,0,1,1.79,5.48v4.31H447.2v-4.31a9.62,9.62,0,0,1,5.55-8.65,59,59,0,0,0,33.62-53.3Z"/><path class="cls-7" d="M463,50.86c-52.1-10.09-87.75-.19-103.07,43.24-6.34,18-2.4,39.51,8.72,46,.49-12.14,5.52-23.86,6-21.58,5-1.37,13.11-1.87,18.41-2l2.83,0c7.07,0,14.21.52,21,.35,8.37-.2,16.57-.3,24.86-.06.09-.42,2.77-4.84,2.77-4.84s.56,4.33.61,5c1.07,0,2.13.06,3.21.12l7.69.39,2.39-12.59s4.09,11.57,4.14,12.6a103.69,103.69,0,0,0,12-.68c.27-1.5,5.92,20.18,2.74,37.28-3.1,16.63-15.71,31.68-20.17,40.8-.39.79-.61,3.71,2,4,5.34,1.06,39.46-7.29,44.75-24.15C516.36,135.09,503,58.47,463,50.86"/><path class="cls-12" d="M425.58,184.63a9.59,9.59,0,0,1-8.41-1.85,1.55,1.55,0,1,1,1.82-2.5c5.7,4.16,9.91-1.4,10.09-1.64a1.54,1.54,0,0,1,2.16-.32,1.56,1.56,0,0,1,.33,2.17A11.6,11.6,0,0,1,425.58,184.63Z"/><path class="cls-13" d="M367.11,165.28h0a2.55,2.55,0,0,1-2.54-2.55V151.45a2.55,2.55,0,1,1,5.09,0v11.28a2.55,2.55,0,0,1-2.55,2.55"/><polygon class="cls-14" points="449.4 229.96 405.87 229.88 404.67 217.15 449.74 217.14 449.4 229.96"/><polygon points="430.36 260.23 412.32 234.37 415.94 231.85 430.18 252.27 444.29 229.98 448.01 232.34 430.36 260.23"/><path class="cls-15" d="M436.93,262.92a6.67,6.67,0,1,1-6.67-6.67,6.67,6.67,0,0,1,6.67,6.67"/><path d="M430.26,271.79a8.87,8.87,0,1,1,8.88-8.87A8.88,8.88,0,0,1,430.26,271.79Zm0-13.34a4.47,4.47,0,1,0,4.47,4.47A4.47,4.47,0,0,0,430.26,258.45Z"/><polygon class="cls-16" points="404.67 217.14 420.68 228.9 412.68 244.29 401.76 223.75 404.67 217.14"/><polygon class="cls-16" points="449.79 217.14 433.78 228.9 441.78 244.29 452.7 223.75 449.79 217.14"/><path class="cls-14" d="M480.26,268.1s7.18,7.64,0,29L468,294.35s7.49-11.34,2.66-18.69l-.48-5.43Z"/><path class="cls-8" d="M457.71,329a2,2,0,1,1-1.95-1.95,1.95,1.95,0,0,1,1.95,1.95"/><path class="cls-11" d="M407.49,216l-.06,3.12,12.86,11h13.94l12.66-11s.73-6.42,1.47-7.89S408.76,211.89,407.49,216Z"/><polygon class="cls-17" points="506.65 314 503.36 283.98 506.65 283.98 527.53 314 506.65 314"/><polygon class="cls-18" points="503.36 314 500.06 283.98 503.36 283.98 524.23 314 503.36 314"/><polygon class="cls-19" points="500.06 314 496.76 283.98 500.06 283.98 520.94 314 500.06 314"/><polygon class="cls-20" points="496.76 314 493.46 283.98 496.76 283.98 517.64 314 496.76 314"/><polygon class="cls-17" points="493.46 314 490.16 283.98 493.46 283.98 514.34 314 493.46 314"/><polygon class="cls-21" points="490.16 314 490.16 283.98 511.04 314 490.16 314"/><polygon class="cls-22" points="548.57 314 477.94 314 486.27 322.26 541.11 322.26 548.57 314"/><polygon class="cls-23" points="512.16 314 513.93 322.26 486.27 322.26 477.94 314 512.16 314"/><line class="cls-24" x1="376.48" y1="240.88" x2="375.87" y2="252.33"/><path class="cls-24" d="M390.69,239.76s-7.47-6.36-16.12,3"/><path class="cls-25" d="M388.53,227.39c-2.65,0-11.48,4.89-15.11,15.51"/><path class="cls-25" d="M375.05,223c-2.57,1.13-8.78,10.16-1.71,19.56"/><path class="cls-26" d="M366.92,256.08c2.6,3.76,9.32,5.91,13.55,4.64,4.48-1.33-5.36-8-3.22-14.35,1.48-4.42-5.29-8.52-9.05-5.75S363.27,250.78,366.92,256.08Z"/><ellipse class="cls-27" cx="399.39" cy="244.54" rx="0.91" ry="3.06" transform="translate(-22.56 41.38) rotate(-5.77)"/><polygon class="cls-27" points="386.4 244.81 386.56 242.77 399.08 241.5 399.69 247.58 387.17 248.85 386.4 244.81"/><ellipse class="cls-28" cx="386.86" cy="245.81" rx="0.91" ry="3.06" transform="translate(-22.75 40.13) rotate(-5.77)"/><path class="cls-25" d="M390.34,248.66s-6.47,11.45-16.1,6"/><path class="cls-29" d="M581.84,259.79s.26,42.44,45.82,23.9"/><path class="cls-30" d="M277.17,283.37a3.88,3.88,0,1,0-3.88,3.88A3.88,3.88,0,0,0,277.17,283.37Z"/><path class="cls-22" d="M239.54,313H308l-.74,3.07s-8.9,0-11.85,4.93h-43a14.66,14.66,0,0,0-10.66-5Z"/><rect class="cls-31" x="253.66" y="309.8" width="12.71" height="3.2"/><rect class="cls-32" x="253.66" y="306.6" width="12.71" height="3.2"/><rect class="cls-31" x="253.66" y="303.4" width="12.71" height="3.2"/><rect class="cls-32" x="253.66" y="300.21" width="12.71" height="3.2"/><rect class="cls-19" x="266.38" y="309.8" width="26.14" height="3.2"/><rect class="cls-33" x="266.38" y="306.6" width="26.14" height="3.2"/><rect class="cls-19" x="266.38" y="303.4" width="26.14" height="3.2"/><rect class="cls-33" x="266.38" y="300.21" width="26.14" height="3.2"/><rect class="cls-31" x="253.66" y="297.01" width="12.71" height="3.2"/><rect class="cls-32" x="253.66" y="293.81" width="12.71" height="3.2"/><rect class="cls-19" x="266.38" y="297.01" width="26.14" height="3.2"/><rect class="cls-33" x="266.38" y="293.81" width="26.14" height="3.2"/><path class="cls-34" d="M285.51,303.81c0,3.37-2.14,3.14-2.14,0s-.22-10-3.71-10c-2.8,0-3.81,2.83-3.81,7.31s-2.39,3.2-2.39,0,.15-7.31-2.5-7.31h-17.3v-2.28c0-4.69,5.25-6.37,19.63-6.37s19.23,3.17,19.23,6.37v2.28H289C286.4,293.81,285.51,298.25,285.51,303.81Z"/><path class="cls-2" d="M184.16,437.37H169.77a11.92,11.92,0,0,1-11.92-11.91V383.52c.12-4.09,1-6.94,5.8-6.94h1.88c13,0,12.49-9.63,12.49-9.63h0v-3.88H130.26V367s-.52,9.63,12.49,9.63h1.72c4.82,0,5.69,2.88,5.81,7v4.57c0,.12,0,.22,0,.34h0v37a11.92,11.92,0,0,1-11.93,11.91H124.91c-9.38,0-9,6.95-9,6.95h77.27S193.54,437.37,184.16,437.37Z"/><path class="cls-3" d="M104.24,302.27a3.22,3.22,0,1,1-6.43,0V284.84a3.22,3.22,0,1,1,6.43,0Zm17,0a3.44,3.44,0,0,1-6.88,0V284.84a3.44,3.44,0,0,1,6.88,0Zm17.44,0a3.45,3.45,0,0,1-6.89,0V284.84a3.45,3.45,0,0,1,6.89,0Zm17.43,0a3.44,3.44,0,0,1-6.88,0V284.84a3.44,3.44,0,0,1,6.88,0Zm10.55,0V284.84a3.44,3.44,0,0,1,6.88,0v17.43a3.44,3.44,0,0,1-6.88,0Zm14.19,5.19h0V283.69s.46-11.93-12.39-11.93H102.9c-12.85,0-12.39,11.93-12.39,11.93v43.13c0,11,3.32,36.25,37.66,36.25h76l8.71-10.63C181.41,352.44,180.82,307.46,180.82,307.46Z"/><path class="cls-4" d="M212.16,352.44h-89.6c-31.46,0-32-45-32-45v20.25c0,31.33,15,35.36,23.34,35.36h34.36a8,8,0,0,1,8,8h74.57A18.66,18.66,0,0,0,212.16,352.44Z"/><path class="cls-35" d="M192.69,426.49h14.19l16.25-65.81a7.08,7.08,0,1,0-13.61-3.91Z"/><path class="cls-35" d="M220.46,340.15H152.63a13,13,0,0,0,13,13H233c0-7.2-5.35-13-12.55-13"/><path class="cls-36" d="M231.8,422.15a16.46,16.46,0,0,0-8.67-2.52l15.16-62.86a7.08,7.08,0,1,1,13.61,3.91l-15.34,62.14C235,422.63,233.39,422.4,231.8,422.15Z"/><path class="cls-36" d="M239.48,347.14H171.66a13,13,0,0,0,13,13.05H252c0-7.21-5.35-13.05-12.55-13.05"/><path class="cls-36" d="M222,443.31l.84-18.6s0,0-.06,0c-4.73-4.81,4.41-14.21,4.41-14.21s2.07,2.1,4.89,4.72c3.75,3.48,13.83,13.29,13.83,13.29s9.23,7.67,11.76,9.56,1.18,3,.29,4.12-3.86,1.31-12.16.86-8.77-3.27-11.63-6.69c-1.64-2-5.14-6.07-7.4-8.28l-.72,15.17Z"/><path class="cls-35" d="M191.69,443.31l.85-18.6s0,0-.06,0c-4.74-4.81,4.4-14.21,4.4-14.21s2.08,2.1,4.89,4.72c3.76,3.48,13.84,13.29,13.84,13.29s9.23,7.67,11.76,9.56,1.18,3,.29,4.12-3.86,1.31-12.17.86-8.76-3.27-11.62-6.69c-1.64-2-5.14-6.07-7.4-8.28l-.72,15.17Z"/><path class="cls-37" d="M231.56,347.3s-24.19-2.75-74.48,22.39c-28.37,14.19-62.47-12-62.47-12L130.06,226.8a8.66,8.66,0,0,1,8.77-6.38l50.26-2.12s11.77,35.81,26,75.6c10.73,30,16.45,53.4,16.45,53.4"/><polygon class="cls-38" points="217.97 297.66 110.8 298.28 114.52 281.36 212.68 280.46 217.97 297.66"/><path class="cls-39" d="M168,239.82c3.56,5.18-2.34,10.54-7.15,6.51-3.56-5.17,2.34-10.55,7.15-6.51"/><path class="cls-39" d="M170.49,263.11c3.56,5.17-2.34,10.54-7.15,6.5-3.56-5.17,2.34-10.54,7.15-6.5"/><polygon class="cls-37" points="133.02 221.84 124.71 246.54 137.22 259.96 149.97 238.4 149.97 226.54 133.02 221.84"/><path class="cls-40" d="M127.16,104.13c26.1,6.39,44.73-8.2,37.27,18s-26.44,45.4-51,36.81C90.13,150.82,82,127,89.47,100.81s16.78-1.79,37.69,3.32"/><path class="cls-41" d="M241.65,160l3.69-48.47c2.49-32.71-22.3-59.08-55.09-58.61s-61.65,27.58-64.12,60.29L123.24,151a59.21,59.21,0,0,0,15,44.15,15.3,15.3,0,0,1,2.9,15.62l5.25.29,33.19,9.8L179,223.9a15.43,15.43,0,0,1,12.25-9.71A59.37,59.37,0,0,0,241.65,160"/><path class="cls-38" d="M242.82,135.18a2.26,2.26,0,0,1-1.54-1.15,18.18,18.18,0,0,0-23.94-7.3,2.27,2.27,0,0,1-2.07-4c10.66-5.46,24.4-1.25,30,9.19a2.26,2.26,0,0,1-2.45,3.29Z"/><path class="cls-41" d="M133.77,145.47a8.23,8.23,0,1,0,8.89-7.5,8.22,8.22,0,0,0-8.89,7.5"/><path class="cls-38" d="M169.06,146.94a6.55,6.55,0,0,1-1.77-.64,6.66,6.66,0,0,1-3.42-6.63,6.59,6.59,0,0,1,7.34-5.69,6.76,6.76,0,0,1,2.28.72,6.66,6.66,0,0,1,3.42,6.63,6.59,6.59,0,0,1-7.36,5.69Zm2.41-11.72c-.13,0-.27-.05-.41-.06a5.39,5.39,0,0,0-6,4.66,5.42,5.42,0,0,0,4.67,6,5.4,5.4,0,0,0,6-4.67,5.43,5.43,0,0,0-2.8-5.43A5.8,5.8,0,0,0,171.47,135.22Z"/><path class="cls-38" d="M167.57,145.78a6,6,0,0,1,3.57-11.21,6,6,0,0,1,2.9,10.66,5.88,5.88,0,0,1-4.41,1.2,6.12,6.12,0,0,1-2.06-.65"/><path class="cls-38" d="M165.71,142.28a10.1,10.1,0,0,1-4.15-1.89,11.72,11.72,0,0,1-4.11-7.23,1.36,1.36,0,0,1,1.17-1.49,1.34,1.34,0,0,1,1.49,1.17,9,9,0,0,0,3.11,5.46c1.77,1.34,4.14,1.82,7.07,1.43a1.33,1.33,0,0,1,.36,2.64A14.46,14.46,0,0,1,165.71,142.28Z"/><g class="cls-42"><path class="cls-11" d="M136.66,113.19s-7.06,48.17,3.49,70.07c16.78,34.83,52.79,32.31,52.79,32.31l-10.4,8.67-57.84-18s-24.15-60.76,12-93.08"/></g><path class="cls-40" d="M137,133.59l8.76.95s0,.29-.11.84-.21,1.28-.36,2.24c-.33,1.92-.84,4.63-1.61,7.84a103.87,103.87,0,0,1-8.11,22.94,52.17,52.17,0,0,1-7.4,11.07,28.3,28.3,0,0,1-9.55,7.12,18.33,18.33,0,0,1-8.27,1.54c-2-.19-3.08-.6-3.06-1s1.11-.67,2.88-1.1a23.33,23.33,0,0,0,6.66-2.9,27.49,27.49,0,0,0,7.17-7.1,51.78,51.78,0,0,0,5.58-10.47,110.3,110.3,0,0,0,6-21.85c.54-3.06.88-5.64,1.1-7.43.1-.89.18-1.57.23-2s.07-.68.07-.68"/><g class="cls-42"><path class="cls-11" d="M240.91,169.75s-43.47-48.19-115.86-44.17l13-26.17L250.3,148.58Z"/></g><path class="cls-40" d="M120.71,173.68l-16.27-1.23,17.62-67.64,32.05,1.85-6.49,31.66a45.71,45.71,0,0,1-3.37,10.22c-9.23,19.72-18.08,25.56-23.54,25.14"/><path class="cls-38" d="M231.19,150.66a6,6,0,0,0-2.42-11.51,5.39,5.39,0,0,0-2.1.46,6,6,0,0,0,2.4,11.5,6.14,6.14,0,0,0,2.12-.45"/><path class="cls-38" d="M229.08,147.09l-.61-.13a1.34,1.34,0,0,1-1-1.62,1.42,1.42,0,0,1,1.61-1c3,.72,5.3.46,7.19-.7a9,9,0,0,0,3.65-5.11,1.33,1.33,0,0,1,1.57-1h0a1.34,1.34,0,0,1,1,1.6,11.61,11.61,0,0,1-4.82,6.78A11.46,11.46,0,0,1,229.08,147.09Z"/><polygon class="cls-38" points="225.08 84.73 256.11 103 257.94 78.98 225.08 84.73"/><path class="cls-38" d="M261.68,75.86s-28.2,37.56-141.88,20.68l11-60.1,112,.25Z"/><path class="cls-38" d="M255.11,90.47a63.83,63.83,0,0,0-127.56-4.8,4.5,4.5,0,0,0,2.53,4.22,4.76,4.76,0,0,0,1.77.44A4.49,4.49,0,0,0,136.49,86l109.67,4.11a4.48,4.48,0,1,0,9,.34"/><path class="cls-38" d="M263.54,101.54,85.62,92.77s128.74-51.64,177.92,8.77"/><path class="cls-38" d="M84.7,97.2a4.52,4.52,0,0,1-.77-8.63c3.07-1.23,75.86-30,133.75-18,21.18,4.41,37.79,13.85,49.37,28.07a4.53,4.53,0,0,1-3.74,7.38L85.4,97.29A3.12,3.12,0,0,1,84.7,97.2ZM215.83,79.47c-36.31-7.57-80.12,2.26-106.08,10l142.55,7C242.79,88.23,230.58,82.54,215.83,79.47Z"/><path class="cls-38" d="M371.42,126.59S324,202.52,262.71,159.93c-128.46-89.35-132.78-21-248.18-73.13,0,0,135-16.93,203-4.61s153.88,44.4,153.88,44.4"/><path class="cls-38" d="M288,176.12a76.5,76.5,0,0,1-27.85-12.47c-37.48-26.07-67.49-40.83-94.46-46.45-16.18-3.37-30-3.36-44.59-3.35-16,0-32.55,0-53.53-4.34-17.15-3.58-35.1-9.65-54.87-18.58A4.53,4.53,0,0,1,14,82.3c5.55-.69,136.46-16.86,204.39-4.57C285.9,90,372.2,122.05,373,122.35a4.54,4.54,0,0,1,2.25,6.65C373.79,131.36,338.56,186.65,288,176.12ZM167.51,108.33c28.19,5.88,59.27,21.09,97.78,47.88a67.49,67.49,0,0,0,24.53,11c36.37,7.56,65.13-25.84,74.52-38.43-20-7.21-90.56-31.88-147.6-42.19-52.29-9.46-146-1.29-184.47,2.72a231.16,231.16,0,0,0,37.12,11.28c20,4.18,36.12,4.16,51.67,4.16C136.15,104.79,150.41,104.77,167.51,108.33Z"/><path class="cls-38" d="M158.37,128.2a2.38,2.38,0,0,1-.74-4.36c7.68-4.65,20.06-6.1,31.55-3.7a2.43,2.43,0,0,1,2,2.84,2.37,2.37,0,0,1-2.81,1.84h0l-.11,0c-10.23-2.14-21.52-.89-28.13,3.11A2.39,2.39,0,0,1,158.37,128.2Z"/><path class="cls-38" d="M150.37,232l-17.82-13.68,1.56-11.05L168,215.54,157.73,231c-2.34,2.94-5.54,3.38-7.36,1"/><path class="cls-38" d="M172.64,236.15l21.53-6.39,2.52-10.87-34.64-4.46,4.09,18.12c1.14,3.58,4,5.13,6.5,3.6"/><path class="cls-43" d="M188.85,185a8.72,8.72,0,0,1-6.06-4.94,1.31,1.31,0,0,1,2.34-1.19c2.91,5.74,8.48,3.2,9.1,2.9a1.31,1.31,0,1,1,1.16,2.34A10.54,10.54,0,0,1,188.85,185Z"/><path class="cls-41" d="M227.73,256.71a27.87,27.87,0,0,1,2.16-3.94c.15-.22.29-.44.45-.66,0,0,.65-.87.39-.55s.48-.53.46-.51c.19-.21.37-.4.57-.6,0,0,.84-.75.47-.45s.54-.35.52-.33c.32-.24.39-.19,0,0a6.41,6.41,0,0,1,1.05-.25c2.3-.38,3.58-3.23,3-5.3-.67-2.44-3-3.39-5.3-3-5.32.88-9.18,6.71-11.18,11.3-.93,2.13-.63,4.63,1.54,5.9,1.83,1.06,5,.59,5.89-1.55Z"/><path class="cls-38" d="M289.39,235.87a3.4,3.4,0,0,1-2.29,4.23l-56.39,16.74a3.39,3.39,0,0,1-4.22-2.29h0a3.4,3.4,0,0,1,2.29-4.23l56.38-16.74a3.4,3.4,0,0,1,4.23,2.29Z"/><path class="cls-41" d="M126.18,228.85l30.29,62.39c1.59,3.27,5.93,3.79,8.84,2.32L227,262.36h-6.52c7.51,5.39,18.14,5.35,26.77,3.83,8.17-1.45,4.71-13.9-3.44-12.46-5.46,1-12.13.83-16.81-2.53-1.91-1.37-4.57-1-6.52,0l-61.67,31.2,8.84,2.32-30.29-62.39c-3.63-7.48-14.78-.94-11.16,6.52Z"/><path class="cls-2" d="M343.74,437.37H329.36a11.92,11.92,0,0,1-11.93-11.91v-74.6a11.92,11.92,0,0,1,11.92-11.92h13.44c9.39,0,9-6.95,9-6.95H274.54s-.38,6.95,9,6.95h14.38a11.93,11.93,0,0,1,11.93,11.92v74.6a11.92,11.92,0,0,1-11.92,11.91H284.5c-9.39,0-9,6.95-9,6.95h77.26S353.13,437.37,343.74,437.37Z"/><path class="cls-2" d="M518.39,437.37H504a11.92,11.92,0,0,1-11.93-11.91v-74.6A11.92,11.92,0,0,1,504,338.94h13.44c9.39,0,9-6.95,9-6.95H449.19s-.38,6.95,9,6.95h14.38a11.93,11.93,0,0,1,11.93,11.92v74.6a11.92,11.92,0,0,1-11.92,11.91H459.15c-9.39,0-9,6.95-9,6.95H527.4S527.78,437.37,518.39,437.37Z"/><path class="cls-44" d="M200.6,321.37H602.75A10.62,10.62,0,0,1,613.37,332H190a10.63,10.63,0,0,1,10.62-10.62"/><path class="cls-45" d="M589.24,305.78a13.16,13.16,0,0,0-13.14-13.14h-1.88V290.9H540.8v14.91a16.71,16.71,0,0,0,27.06,13.11h8.24a13.16,13.16,0,0,0,13.14-13.14m-4.81,0a8.34,8.34,0,0,1-8.33,8.33H572a16.65,16.65,0,0,0,2.21-8.3v-8.36h1.88a8.33,8.33,0,0,1,8.33,8.33"/><path class="cls-45" d="M306.23,304.52a13.15,13.15,0,0,0,13.14,13.13h8.24a16.69,16.69,0,0,0,27.05-13.1V289.63H321.25v1.74h-1.88a13.16,13.16,0,0,0-13.14,13.15m4.81,0a8.34,8.34,0,0,1,8.33-8.34h1.88v8.37a16.68,16.68,0,0,0,2.21,8.3h-4.09a8.34,8.34,0,0,1-8.33-8.33"/><polygon class="cls-20" points="368.89 307.23 362.86 308.49 348.42 239.31 354.44 238.04 368.89 307.23"/><polygon class="cls-46" points="372.89 321.65 377.37 272.01 337.9 272.01 342.39 321.65 372.89 321.65"/><polygon class="cls-47" points="376.84 277.96 338.44 277.96 342.39 321.65 372.89 321.65 376.84 277.96"/><path class="cls-46" d="M377.32,272A19.68,19.68,0,1,0,338,272Z"/><polygon class="cls-46" points="379.32 277.06 335.91 277.06 337.9 272.01 377.32 272.01 379.32 277.06"/><rect class="cls-46" x="341.13" y="273.84" width="15.87" height="15.31" transform="translate(27.58 594.1) rotate(-83.08)"/><rect class="cls-46" x="347.96" y="267.72" width="15.87" height="15.31" transform="translate(-94.09 272.82) rotate(-37.41)"/><polygon class="cls-46" points="361.32 272.39 376.41 277.29 371.68 291.85 356.58 286.95 361.32 272.39"/><path class="cls-35" d="M615,426.49H600.86L584.6,360.68a7.09,7.09,0,1,1,13.62-3.91Z"/><path class="cls-35" d="M587.28,340.15H655.1a13,13,0,0,1-13,13H574.73c0-7.2,5.34-13,12.55-13"/><path class="cls-36" d="M575.94,422.15a16.44,16.44,0,0,1,8.67-2.52l-15.17-62.86a7.08,7.08,0,1,0-13.61,3.91l15.34,62.14C572.76,422.63,574.35,422.4,575.94,422.15Z"/><path class="cls-36" d="M568.26,347.14h67.81a13,13,0,0,1-13,13.05H555.7c0-7.21,5.35-13.05,12.56-13.05"/><path class="cls-48" d="M587.67,278.7c5.76,8.29,17.21,14.26,40,5"/><path class="cls-38" d="M725.81,109.72s47.35,14.73,39,56.05-36.65,69.63-17.18,87.77S790,246.8,790,246.8s-38.25,50.63-71.74,25.59c-29.2-21.84-20-47.81-11.49-72.65s24.65-49.23,19.81-58.94-9.2-11.86-9.2-11.86Z"/><path class="cls-49" d="M603.06,166.41l14.83-48.55c10-32.75,44.15-49,75.87-36.07s49.47,50.26,39.46,83l-11.57,37.85a61.8,61.8,0,0,1-31.4,37.24A16,16,0,0,0,681.48,254l-5.21-1.71-36-3.07-.5,3.22a16.11,16.11,0,0,0-8.24-14.09,62,62,0,0,1-28.45-71.91"/><path class="cls-38" d="M678.12,181.18A6.81,6.81,0,0,1,679,167.8a6.93,6.93,0,0,1,2.47.15,6.83,6.83,0,0,1,4.94,8.27,6.87,6.87,0,0,1-5.8,5.12,7.5,7.5,0,0,1-2-.05Zm1-12.24a5.7,5.7,0,0,0-4.83,4.25,5.67,5.67,0,0,0,4.11,6.86,5.66,5.66,0,0,0,2.78-11c-.15,0-.29-.07-.44-.09A5.21,5.21,0,0,0,679.11,168.94Z"/><path class="cls-38" d="M680.51,180.76a6.24,6.24,0,0,0,.79-12.25,6,6,0,0,0-2.26-.14,6.28,6.28,0,0,0-5.32,4.68,6.14,6.14,0,0,0,.71,4.71,6.23,6.23,0,0,0,3.82,2.86,6.38,6.38,0,0,0,2.26.14"/><path class="cls-38" d="M683.66,178a10.54,10.54,0,0,0,4.72-.25,12.08,12.08,0,0,0,6.68-5.44,1.27,1.27,0,0,0-.53-1.75,1.29,1.29,0,0,0-1.75.52,9.61,9.61,0,0,1-5.16,4.18c-2.25.65-4.79.21-7.51-1.31a1.3,1.3,0,0,0-1.27,2.27A15.29,15.29,0,0,0,683.66,178Z"/><g class="cls-50"><path class="cls-11" d="M723,160.82s-11.44,49.53-30,66.83C663.38,255.14,629.3,239,629.3,239l6.81,12.37,63.11,4.51S745.79,206,723,160.82"/></g><path class="cls-38" d="M616.77,161.33a6.24,6.24,0,0,1,6.72-10.27,6.42,6.42,0,0,1,1.89,1.23,6.23,6.23,0,0,1-1.94,10.29,6.19,6.19,0,0,1-4.78,0,6.42,6.42,0,0,1-1.89-1.23"/><path class="cls-38" d="M620.18,158.57l.65.1a1.31,1.31,0,0,0,1.46-1.12,1.38,1.38,0,0,0-1.11-1.46c-3.11-.42-5.38-1.57-6.78-3.44a9.48,9.48,0,0,1-1.63-6.43,1.3,1.3,0,0,0-1.07-1.48h0a1.32,1.32,0,0,0-1.48,1.1,12.06,12.06,0,0,0,2.1,8.35A11.85,11.85,0,0,0,620.18,158.57Z"/><path class="cls-38" d="M700.42,163a1.28,1.28,0,0,0,.72-.09,1.21,1.21,0,0,0,.57-1.61C696.19,149.63,685,143.73,672.56,146a1.21,1.21,0,0,0-1,1.4,1.18,1.18,0,0,0,1.39,1c11.34-2,21.53,3.36,26.55,14A1.21,1.21,0,0,0,700.42,163Z"/><path class="cls-43" d="M644.9,210.78a9,9,0,0,0,7.69-2.5,1.27,1.27,0,1,0-1.69-1.89c-5.22,4.64-9.89-.42-10.09-.64a1.27,1.27,0,0,0-1.79-.1,1.28,1.28,0,0,0-.09,1.8A10.82,10.82,0,0,0,644.9,210.78Z"/><path class="cls-38" d="M639.8,139.94A1.21,1.21,0,0,0,641,138c-7.89-10.25-20-13.65-31.74-8.82a1.2,1.2,0,0,0-.66,1.57,1.24,1.24,0,0,0,1.57.66c10.64-4.39,21.73-1.29,28.91,8.06A1.25,1.25,0,0,0,639.8,139.94Z"/><path class="cls-38" d="M693.76,81.78S632.88,58,606.65,118.16l34.56,13.38,9.2-10.78-2,12,62.48,19.19,2.76,67.48s8.22-7.2,19.59-54.63-20.48-75.43-39.46-83"/><g class="cls-50"><polygon class="cls-38" points="713.63 219.42 721.7 145.12 639.95 82.44 674.01 70.51 713.82 83.69 734.14 112.92 743.35 148.77 734.47 177.45 713.63 219.42"/></g><path class="cls-41" d="M703.94,184.08a8.86,8.86,0,1,0,9.69-7.93,8.86,8.86,0,0,0-9.69,7.93"/><path class="cls-51" d="M706.83,192.51a5.83,5.83,0,1,0,6.72-4.77,5.84,5.84,0,0,0-6.72,4.77"/><path class="cls-52" d="M628.47,60.64s29.7-5.3,41.3,15.14c0,0,1.92,8.92,4.37,9.77s5.15-.42,8.89-4.53,25.63-9,43.09,9.86c0,0,2.84,16.22-8.45,29.65s-35.73-.14-39.79-9a66.88,66.88,0,0,1-5.13-15.91l-2.44-.74s-8.49,10.17-18.22,12.4-29.84-4.71-31.49-16,2.49-24.95,7.87-30.71"/><path class="cls-53" d="M631.73,65.5s20.66-3.93,32.6,11.3c0,0,3.44,6.34-.26,14.93s-17.15,13.72-28.38,7.65-14.92-12.84-4-33.88"/><path class="cls-53" d="M720.74,94.06S714.49,83.33,695,82.3c0,0-16.42,4.64-15.17,17.75s9.83,17.8,21,20.32,18.73-9.75,19.91-26.31"/><path class="cls-52" d="M723.94,101.83l14.86,30.44s0,5.68-5,2.63l-13.28-26.37Z"/><path class="cls-54" d="M685.82,253.67,700.88,358l-.43,2.54L600.2,352.77s-1,.29.28-3.8,13.16-46.39,18.22-58.6,7.13-18.15,7.13-18.15Z"/><path class="cls-36" d="M585.7,443.31l-.85-18.6s0,0,.06,0c4.73-4.81-4.4-14.21-4.4-14.21s-2.08,2.1-4.89,4.72c-3.76,3.48-13.84,13.29-13.84,13.29s-9.23,7.67-11.76,9.56-1.18,3-.29,4.12,3.86,1.31,12.17.86,8.76-3.27,11.62-6.69c1.64-2,5.14-6.07,7.4-8.28l.72,15.17Z"/><path class="cls-35" d="M616,443.31l-.84-18.6s0,0,0,0c4.74-4.81-4.4-14.21-4.4-14.21s-2.08,2.1-4.89,4.72c-3.76,3.48-13.83,13.29-13.83,13.29s-9.24,7.67-11.76,9.56-1.19,3-.29,4.12,3.85,1.31,12.16.86,8.76-3.27,11.62-6.69c1.64-2,5.15-6.07,7.41-8.28l.71,15.17Z"/><path class="cls-55" d="M628.15,276.21s-6.09,32.83-4.93,45.17l.45,5.2s0,1.65,3.43,1.34,29.33-3.09,30-3.14.79.24-.14-2.12-2.7-7.64-2.32-16.29-2.52-24.71-2.52-24.71Z"/><path class="cls-56" d="M673.63,358l25.14,1.43a1,1,0,0,0,1-1.29l-3-15.49s-6-43.83-7-52.89-3-31.66-3.86-33.11-2.51.89-3.87,2.43-15.69,21.24-28,23.22-26.92-5-30.27-10.42c-1.57-2.33-6.23-9-2.69-23,0,0,.83-4.71,7.3-6.74a7.29,7.29,0,0,1,4.59.3h0l0,.19,7.67,2s15.81,3.18,23.19,1.79,14.48-7.25,22-5.25,13.65,7.39,14.21,18.75,1.76,34.31,1.76,34.31,4.27,50.32,9.06,64.76,6.52,16.46,6.52,16.46l-45.52-1.22,1.68-16.53"/><path class="cls-54" d="M652.09,276.64c4.66,25.47-1.53,39.79-20.62,46.61l3.19,10.41a48.56,48.56,0,0,0,17.29-10c11.34-10.58,14.89-26.81,10.84-49Z"/><path class="cls-49" d="M624.65,325.25c-6.95,1.64-14-.09-18.88-1.93a8.71,8.71,0,0,1-1.61-5.22,27.91,27.91,0,0,0-3.82-14.69,14.32,14.32,0,0,0-5.49-6.77,4.31,4.31,0,0,0-4.57,7.3,5.44,5.44,0,0,1,2.12,3,4.17,4.17,0,0,1-.32,2.24,40,40,0,0,1-17.77-5,4.31,4.31,0,0,0-5.86,1.44s0,.05,0,.08a4.29,4.29,0,0,0,.36,4.88,4.31,4.31,0,0,0-4.57,1.93s0,.05,0,.08a4.31,4.31,0,0,0,1.51,5.9c1.07.63,2.15,1.18,3.22,1.69A4.11,4.11,0,0,0,567,322a4.31,4.31,0,0,0,2.17,5.9c6.58,2.8,15.41,3.25,20,3.28,2,0,11.71,2,11.79,2l0,0c6.35,2.52,16.09,5.07,26.14,2.69a77.45,77.45,0,0,0,7.51-2.17l-3.19-10.41A66.5,66.5,0,0,1,624.65,325.25Z"/><path class="cls-3" d="M718,307.46V283.69s.46-11.93-12.39-11.93H640.05c-12.85,0-12.39,11.93-12.39,11.93v23.77h0s-.59,45-32,45l0,0a18.64,18.64,0,0,0-18,18.62h74.56a8,8,0,0,1,8-8h34.37c8.37,0,23.34-4,23.34-35.36Zm-13.73-22.62a3.22,3.22,0,1,1,6.43,0v17.43a3.22,3.22,0,1,1-6.43,0Zm-17,0a3.45,3.45,0,0,1,6.89,0v17.43a3.45,3.45,0,0,1-6.89,0Zm-17.43,0a3.44,3.44,0,0,1,6.88,0v17.43a3.44,3.44,0,0,1-6.88,0Zm-17.44,0a3.45,3.45,0,0,1,6.89,0v17.43a3.45,3.45,0,0,1-6.89,0Zm-17.43,0a3.44,3.44,0,0,1,6.88,0v17.43a3.44,3.44,0,0,1-6.88,0Z"/><path class="cls-4" d="M585.7,363.07a8,8,0,0,0-8,8h62.67a8,8,0,0,1,8-8Z"/><path class="cls-2" d="M682.48,437.37H669a11.92,11.92,0,0,1-11.92-11.91v-37h0v-4.91c.12-4.12,1-7,5.81-7h1.71c13,0,12.5-9.63,12.5-9.63v-3.88H629.37V367h0s-.52,9.63,12.49,9.63h1.88c4.8,0,5.67,2.85,5.8,6.94v41.94a11.92,11.92,0,0,1-11.93,11.91H623.24c-9.39,0-9,6.95-9,6.95h77.26S691.87,437.37,682.48,437.37Z"/><line class="cls-57" x1="569.23" y1="252.83" x2="576.91" y2="262.17"/><path class="cls-57" d="M550.55,248.91c2.26-1.66,4.52-3.31,14.82,1.71"/><path class="cls-29" d="M556.45,260.76s2.37-10.08,15.58-7.51"/><path class="cls-29" d="M558.65,239.84c2.89-.64,10.64-.37,14.32,12.48"/><path class="cls-26" d="M586.85,259.76c.15,4.82-4.22,10.84-8.6,12.42-4.64,1.66-.43-10.12-6.25-14.21-4-2.83-.83-10.55,4.09-10.55S586.64,253,586.85,259.76Z"/><path class="cls-29" d="M562.32,268.11s12.66,5.67,17.43-5"/><line class="cls-58" x1="559.13" y1="264.28" x2="559.13" y2="291.09"/><rect class="cls-46" x="401.34" y="279.89" width="34.78" height="41.4" rx="5.54"/><ellipse class="cls-27" cx="405.35" cy="318.01" rx="0.96" ry="3.22"/><polygon class="cls-27" points="419.02 316.91 418.63 314.78 405.35 314.78 405.35 321.23 418.63 321.23 419.02 316.91"/><ellipse class="cls-28" cx="418.63" cy="318.01" rx="0.96" ry="3.22"/><ellipse class="cls-59" cx="420.05" cy="318.01" rx="0.96" ry="3.22"/><polygon class="cls-59" points="433.72 316.91 433.33 314.78 420.05 314.78 420.05 321.23 433.33 321.23 433.72 316.91"/><ellipse class="cls-28" cx="433.33" cy="318.01" rx="0.96" ry="3.22"/><ellipse class="cls-27" cx="430.1" cy="313.51" rx="3.22" ry="0.96" transform="translate(-97.99 247.21) rotate(-28.93)"/><polygon class="cls-27" points="422.52 302.08 420.85 303.44 427.27 315.07 432.92 311.95 426.49 300.32 422.52 302.08"/><ellipse class="cls-28" cx="423.67" cy="301.89" rx="3.22" ry="0.96" transform="translate(-93.17 242.65) rotate(-28.93)"/><ellipse class="cls-27" cx="410.2" cy="311.59" rx="0.96" ry="3.22"/><polygon class="cls-27" points="423.86 310.49 423.48 308.36 410.2 308.36 410.2 314.81 423.48 314.81 423.86 310.49"/><ellipse class="cls-28" cx="423.48" cy="311.59" rx="0.96" ry="3.22"/><ellipse class="cls-59" cx="405.22" cy="305.17" rx="0.96" ry="3.22"/><polygon class="cls-59" points="418.88 304.07 418.5 301.95 405.22 301.95 405.22 308.4 418.5 308.4 418.88 304.07"/><ellipse class="cls-28" cx="418.5" cy="305.17" rx="0.96" ry="3.22"/><ellipse class="cls-27" cx="409.94" cy="298.75" rx="0.96" ry="3.22"/><polygon class="cls-27" points="423.6 297.66 423.22 295.53 409.94 295.53 409.94 301.98 423.22 301.98 423.6 297.66"/><ellipse class="cls-28" cx="423.22" cy="298.75" rx="0.96" ry="3.22"/><rect class="cls-46" x="407.23" y="277.68" width="22.98" height="2.21"/><rect class="cls-46" x="405.03" y="275.49" width="28.33" height="2.21" rx="1.11"/><polygon class="cls-60" points="405.29 274.63 433.83 274.63 434.62 281.69 429.73 283.88 411.21 279.65 403.57 282.74 405.29 274.63"/><rect class="cls-60" x="404.1" y="274.63" width="31.02" height="2.21" rx="1.11"/><line class="cls-61" x1="404.77" y1="277.18" x2="434.48" y2="277.36"/><line class="cls-61" x1="404.77" y1="278.11" x2="434.48" y2="278.79"/><path class="cls-62" d="M438.72,290.57s4.09,13.81,6.18,18.54"/><path class="cls-63" d="M430.31,307.11s8.84-1.51,13.62,2.59"/><path class="cls-63" d="M433.12,296.39s9.25,3.89,10.64,10"/><path class="cls-63" d="M431.21,315.75s7.55-1.8,12.41-.9"/><path class="cls-26" d="M444.08,318.93s6.27-.12,6.38-6.06c.07-3.94-4.22-13.74-6-11.76S436,318.75,444.08,318.93Z"/><path class="cls-63" d="M475.83,294.38s-4,23.49-28.44,18.33"/><path class="cls-13" d="M452.46,304h0a2.55,2.55,0,0,1,2.28,2.79L453.6,318a2.54,2.54,0,1,1-5.06-.51l1.14-11.23a2.54,2.54,0,0,1,2.78-2.28"/><path class="cls-14" d="M468,294.35l12.28,2.78s3.59-12.29,3.21-15-4.2,1.14-4.2,1.14S469.3,290.5,468,294.35Z"/></svg>