<svg xmlns="http://www.w3.org/2000/svg" xmlns:xlink="http://www.w3.org/1999/xlink" viewBox="0 0 800 450"><defs><style>.cls-1,.cls-10,.cls-15,.cls-24,.cls-25,.cls-27,.cls-32,.cls-33,.cls-35,.cls-47,.cls-56,.cls-61,.cls-7,.cls-72{fill:none;}.cls-2{isolation:isolate;}.cls-3{fill:#c94d1c;}.cls-4{fill:#d15a5a;}.cls-5{fill:#11232e;}.cls-6{fill:#dbded3;}.cls-7{stroke:#f27234;}.cls-10,.cls-27,.cls-32,.cls-33,.cls-47,.cls-56,.cls-61,.cls-7,.cls-72{stroke-miterlimit:10;}.cls-10,.cls-47,.cls-56,.cls-61,.cls-7,.cls-72{stroke-width:11.74px;}.cls-8{fill:#b2221f;}.cls-9{fill:#10232d;}.cls-10{stroke:#b2221f;}.cls-11{fill:#f6a090;}.cls-12{fill:#ee8b7d;}.cls-13{fill:#a8477d;}.cls-14{fill:#9b4174;}.cls-15{stroke:#16182b;stroke-width:10.67px;}.cls-15,.cls-24,.cls-25,.cls-29,.cls-35{stroke-linecap:round;stroke-linejoin:round;}.cls-16{fill:#074e87;}.cls-17{fill:#3bb6e2;}.cls-18{fill:#6ac8ea;}.cls-19{fill:#eb5f56;}.cls-20{fill:#231f20;opacity:0.15;mix-blend-mode:multiply;}.cls-21{fill:#ed8620;}.cls-22{fill:#fcb51d;}.cls-23{fill:#fac93e;}.cls-24{stroke:#ed8620;stroke-width:1.89px;}.cls-25{stroke:#a6a8ab;stroke-width:5.06px;}.cls-26{fill:#69452c;}.cls-27,.cls-32{stroke:#067099;}.cls-27{stroke-width:7.47px;}.cls-28{fill:#067099;}.cls-29{fill:#6d6e70;stroke:#6d6e71;}.cls-29,.cls-35{stroke-width:4.05px;}.cls-30{fill:#6d6e71;}.cls-31{fill:#a6a8ab;}.cls-32{stroke-width:5.44px;}.cls-33{stroke:#6ac8ea;stroke-width:2.13px;}.cls-34{fill:#808184;}.cls-35{stroke:#808184;}.cls-36{fill:#2c314c;}.cls-37{fill:#16182b;}.cls-38{fill:#5c3423;}.cls-39{fill:#ca518a;}.cls-40{fill:#183b59;}.cls-41{fill:#f58e80;}.cls-42{clip-path:url(#clip-path);}.cls-43{fill:#f8f8e7;}.cls-44{fill:#0a4b7d;}.cls-45{fill:#3a2c2b;}.cls-46{fill:#f4897b;}.cls-47{stroke:#f6a090;}.cls-48{fill:#f1612f;}.cls-49{fill:#382251;}.cls-50{fill:#a44;}.cls-51{clip-path:url(#clip-path-2);}.cls-52{fill:#13112c;}.cls-53{fill:#b43e3e;}.cls-54{fill:#db6b6b;}.cls-55{fill:#cc4915;}.cls-56{stroke:#d15a5a;}.cls-57{fill:#f27234;}.cls-58{fill:#f7b329;}.cls-59{fill:#f6912e;}.cls-60{fill:#76407f;}.cls-61{stroke:#10232d;}.cls-62{fill:#f7a395;}.cls-63{clip-path:url(#clip-path-3);}.cls-64{fill:#de7c72;}.cls-65{fill:#e6352c;}.cls-66{fill:#fbfcf2;}.cls-67{fill:#2297b2;}.cls-68{fill:#7b3f7f;}.cls-69{fill:#d78c1e;}.cls-70{fill:#123965;}.cls-71{fill:#e5372d;}.cls-72{stroke:#e5372d;}.cls-73{fill:#47335b;}.cls-74{fill:#915499;}</style><clipPath id="clip-path"><path class="cls-1" d="M587.57,88.49l8.86,38.63a54.39,54.39,0,0,1-21.2,57.13c-5.14,3.68-7.66,7.62-6.63,15.49h0a4.31,4.31,0,0,1-4.61,4.89l-32.68-2.58-2.89-10a54.29,54.29,0,0,1-37.27-38.9l-8.87-38.63a54.23,54.23,0,0,1,105.29-26"/></clipPath><clipPath id="clip-path-2"><path class="cls-1" d="M147.35,124l14.72,36.81a58.51,58.51,0,0,0,45.44,36,8.65,8.65,0,0,1,7,6.06l1.73,5.79,41.92-12.57-2.3-7.69a8.63,8.63,0,0,1,2.07-8.51,58.54,58.54,0,0,0,12.46-62.41L255.68,80.65a58.54,58.54,0,0,0-75.85-32.48q-1.49.6-2.91,1.26A58.52,58.52,0,0,0,147.35,124"/></clipPath><clipPath id="clip-path-3"><path class="cls-1" d="M373.47,39.46C343.26,48.4,323.61,81,329.8,111.87l7.14,35.69a56.86,56.86,0,0,0,25.37,36.94,14.68,14.68,0,0,1,6.75,13.69l4.92-1.08,33.26.46.16,3a14.83,14.83,0,0,1,8.82-12.15,57,57,0,0,0,32.59-63.23l-9.16-45.8c-5.36-26.77-28.47-43.83-54.2-42.08a56.83,56.83,0,0,0-12,2.16"/></clipPath></defs><title>FGF Travel</title><g class="cls-2"><g id="Layer_1" data-name="Layer 1"><polygon class="cls-3" points="187.3 258.06 220.65 282.47 252.81 242.57 187.3 258.06"/><polygon class="cls-4" points="260.39 390.7 266.52 296.64 256.42 295.98 250.28 390.04 260.39 390.7"/><polygon class="cls-5" points="270.53 335.44 274.04 279.62 251.43 277.82 247.91 333.64 270.53 335.44"/><polygon class="cls-5" points="246.09 334.5 272.86 336.79 273.53 329.61 246.74 327.31 246.09 334.5"/><path class="cls-6" d="M275,417.44l-12.88-29.33-11.54-4.8-14.41,11.46L272,425.38l1.78-1a5.06,5.06,0,0,0,1.26-6.9"/><path class="cls-7" d="M243.08,198.12s11.62,32.41,59.67,45.47"/><polygon class="cls-4" points="320.06 249.74 320.95 239.67 301.14 237.92 300.25 248 320.06 249.74"/><path class="cls-4" d="M344.93,238.84a3.78,3.78,0,0,0,2.29-2.59,3.85,3.85,0,0,0-2.72-4.69c-3.05-.79-13.41-3.18-18.52-.29-4.42,2.46-13.52,9.42-13.91,9.72a3.83,3.83,0,0,0,4.67,6.08c2.5-1.92,9.71-7.3,13-9.11,1.65-.94,8.15-.22,12.85,1A3.78,3.78,0,0,0,344.93,238.84Z"/><path class="cls-4" d="M341.1,250a4.1,4.1,0,0,0,1.54-1.13,3.84,3.84,0,0,0-.52-5.39c-5.8-4.79-9.62-7.49-11.41-8-1.09-.33-3.41-1-15.1,4.73A3.83,3.83,0,0,0,319,247a68.11,68.11,0,0,1,9.82-4.08c1.43.87,5.33,3.87,8.43,6.42A3.84,3.84,0,0,0,341.1,250Z"/><path class="cls-4" d="M331.05,256.66a3.86,3.86,0,0,0,2.4-4c-.22-1.91-1.25-8.28-5.24-10.67a6.44,6.44,0,0,0-5.85-.43c-3.14,1.24-7.15-.39-7.21-.41a3.83,3.83,0,0,0-3,7c.68.3,6.58,2.73,12.41.77a14.26,14.26,0,0,1,1.33,4.59,3.83,3.83,0,0,0,5.21,3.12Z"/><path class="cls-8" d="M341,309.54s74.88,62.32,97.38-29.11L393.9,291Z"/><polygon class="cls-9" points="414.14 390.7 420.28 296.64 410.17 295.98 404.04 390.04 414.14 390.7"/><path class="cls-10" d="M396.83,198.12s5.95,32.54,54,45.59"/><polygon class="cls-11" points="473.82 249.74 474.71 239.67 454.9 237.92 454.01 248 473.82 249.74"/><path class="cls-11" d="M498.69,238.84a3.78,3.78,0,0,0,2.29-2.59,3.86,3.86,0,0,0-2.72-4.69c-3.05-.79-13.41-3.18-18.52-.29-4.42,2.46-13.52,9.42-13.91,9.72a3.83,3.83,0,0,0,4.67,6.08c2.5-1.92,9.7-7.3,13-9.11,1.65-.94,8.15-.22,12.84,1A3.81,3.81,0,0,0,498.69,238.84Z"/><path class="cls-11" d="M494.85,250a4.06,4.06,0,0,0,1.55-1.13,3.84,3.84,0,0,0-.52-5.39c-5.8-4.79-9.63-7.49-11.41-8-1.1-.33-3.41-1-15.1,4.73a3.83,3.83,0,0,0,3.39,6.87,68.11,68.11,0,0,1,9.81-4.08c1.44.87,5.34,3.87,8.44,6.42A3.83,3.83,0,0,0,494.85,250Z"/><path class="cls-11" d="M484.81,256.66a3.84,3.84,0,0,0,2.39-4C487,250.76,486,244.39,482,242a6.44,6.44,0,0,0-5.85-.43c-3.14,1.24-7.15-.39-7.21-.41a3.83,3.83,0,0,0-3.05,7c.68.3,6.58,2.73,12.41.77a14.26,14.26,0,0,1,1.33,4.59,3.84,3.84,0,0,0,5.21,3.12Z"/><path class="cls-9" d="M404.28,382.47l10.54,6.25s3.06,15.68,7.51,22.07,9.08,18.86,2.59,16.52-25.07-15.25-24.39-22.71-3.62,6.09-3.62,6.09l-3.05-1.8s-.41-12.58,3.79-19.66S404.28,382.47,404.28,382.47Z"/><polygon class="cls-12" points="573.04 390.7 579.17 296.64 569.07 295.98 562.93 390.04 573.04 390.7"/><polygon class="cls-13" points="583.18 335.44 586.69 279.62 564.08 277.82 560.56 333.64 583.18 335.44"/><polygon class="cls-14" points="558.74 334.5 585.51 336.79 586.18 329.61 559.39 327.31 558.74 334.5"/><path class="cls-6" d="M587.69,417.44l-12.88-29.33-11.54-4.8-14.41,11.46,35.79,30.61,1.78-1a5,5,0,0,0,1.26-6.9"/><path class="cls-15" d="M555.73,198.12s5.94,32.54,54,45.59"/><polygon class="cls-11" points="632.71 249.74 633.6 239.67 613.79 237.92 612.9 248 632.71 249.74"/><path class="cls-11" d="M657.58,238.84a3.78,3.78,0,0,0,2.29-2.59,3.85,3.85,0,0,0-2.72-4.69c-3-.79-13.41-3.18-18.52-.29-4.42,2.46-13.52,9.42-13.91,9.72a3.83,3.83,0,0,0,4.67,6.08c2.5-1.92,9.71-7.3,13-9.11,1.65-.94,8.15-.22,12.85,1A3.78,3.78,0,0,0,657.58,238.84Z"/><path class="cls-11" d="M653.75,250a4.1,4.1,0,0,0,1.54-1.13,3.84,3.84,0,0,0-.52-5.39c-5.8-4.79-9.62-7.49-11.41-8-1.09-.33-3.4-1-15.1,4.73a3.83,3.83,0,0,0,3.39,6.87,68.11,68.11,0,0,1,9.82-4.08c1.43.87,5.33,3.87,8.43,6.42A3.84,3.84,0,0,0,653.75,250Z"/><path class="cls-11" d="M643.7,256.66a3.86,3.86,0,0,0,2.4-4c-.22-1.91-1.25-8.28-5.24-10.67a6.44,6.44,0,0,0-5.85-.43c-3.14,1.24-7.15-.39-7.2-.41a3.83,3.83,0,1,0-3,7c.68.3,6.57,2.73,12.4.77a14.26,14.26,0,0,1,1.33,4.59,3.83,3.83,0,0,0,5.21,3.12Z"/><path class="cls-16" d="M606.77,237.12l-.43,10.8a1.42,1.42,0,0,0,1.33,1.49l7,.5,3.11-11.83Z"/><path class="cls-17" d="M625,442.75c0-.31,0-.62,0-.93,0-22.68,19.28-41.06,43.07-41.06s43.06,18.38,43.06,41.06c0,.31,0,.62,0,.93Z"/><path class="cls-17" d="M576.53,442.75c0-.17,0-.35,0-.53,0-12.86,10.94-23.29,24.44-23.29s24.43,10.43,24.43,23.29c0,.18,0,.36,0,.53Z"/><path class="cls-18" d="M648.43,442.27c0-.21,0-.41,0-.63,0-15.29,13-27.68,29.05-27.68s29,12.39,29,27.68c0,.22,0,.42,0,.63Z"/><path class="cls-18" d="M611.29,442.75c0-.16,0-.33,0-.5,0-12.11,10.31-21.93,23-21.93s23,9.82,23,21.93c0,.17,0,.34,0,.5Z"/><ellipse class="cls-18" cx="539.24" cy="421.91" rx="7.7" ry="7.34"/><ellipse class="cls-18" cx="632.71" cy="402.68" rx="7.7" ry="7.34"/><ellipse class="cls-18" cx="558.74" cy="425.58" rx="3.85" ry="3.67"/><ellipse class="cls-18" cx="85.51" cy="372.78" rx="7.7" ry="7.34"/><ellipse class="cls-18" cx="96.63" cy="388.47" rx="3.85" ry="3.67"/><path class="cls-17" d="M132.94,445.19c0-.31,0-.62,0-.94,0-22.75-19.35-41.19-43.21-41.19S46.55,421.5,46.55,444.25c0,.32,0,.63,0,.94Z"/><path class="cls-19" d="M157.47,445.19c0-.18,0-.36,0-.53,0-12.91-11-23.37-24.51-23.37s-24.52,10.46-24.52,23.37c0,.17,0,.35,0,.53Z"/><path class="cls-17" d="M72.15,445.19c0-.21,0-.42,0-.63,0-15.34-13.05-27.78-29.14-27.78s-29.14,12.44-29.14,27.78c0,.21,0,.42,0,.63Z"/><path class="cls-18" d="M100.29,445.19c0-.21,0-.42,0-.63,0-15.34-13-27.77-29.14-27.77S42,429.22,42,444.56c0,.21,0,.42,0,.63Z"/><path class="cls-18" d="M125.07,445.19c0-.13,0-.26,0-.4,0-9.55-8.12-17.3-18.15-17.3s-18.15,7.75-18.15,17.3c0,.14,0,.27,0,.4Z"/><ellipse class="cls-18" cx="39.81" cy="392.11" rx="7.72" ry="7.36"/><ellipse class="cls-20" cx="438.83" cy="445.45" rx="326.17" ry="4.55"/><ellipse class="cls-21" cx="709.93" cy="383.33" rx="65.97" ry="62.88"/><polygon class="cls-21" points="709.33 320.44 717.71 320.48 714.55 330.73 709.33 320.44"/><ellipse class="cls-22" cx="720.14" cy="383.33" rx="65.97" ry="62.88"/><path class="cls-23" d="M720.14,324.74a64.1,64.1,0,0,0-18.82,2.81l-42.42,51c-.14,1.59-.21,3.19-.21,4.82a56.26,56.26,0,0,0,9.13,30.73l71.84-86.3A64.3,64.3,0,0,0,720.14,324.74Z"/><ellipse class="cls-24" cx="720.14" cy="383.33" rx="51.82" ry="49.39"/><path class="cls-21" d="M720.14,333.93,719,334c28.09.58,50.68,22.45,50.68,49.37S747.09,432.11,719,432.69l1.14,0c28.62,0,51.82-22.11,51.82-49.39S748.76,333.93,720.14,333.93Z"/><ellipse class="cls-21" cx="165.05" cy="383.33" rx="65.97" ry="62.88"/><polygon class="cls-21" points="164.05 320.44 172.43 320.48 169.27 330.73 164.05 320.44"/><ellipse class="cls-22" cx="174.86" cy="383.33" rx="65.97" ry="62.88"/><path class="cls-23" d="M174.86,324.74A64.1,64.1,0,0,0,156,327.55l-42.42,51c-.14,1.59-.21,3.19-.21,4.82a56.26,56.26,0,0,0,9.13,30.73l71.84-86.3A64.3,64.3,0,0,0,174.86,324.74Z"/><ellipse class="cls-24" cx="174.86" cy="383.33" rx="51.82" ry="49.39"/><path class="cls-21" d="M174.86,333.93l-1.14,0c28.09.58,50.68,22.45,50.68,49.37s-22.59,48.78-50.68,49.36l1.14,0c28.62,0,51.82-22.11,51.82-49.39S203.48,333.93,174.86,333.93Z"/><path class="cls-25" d="M666.59,308.19,652,266.46a18.4,18.4,0,0,1,.38-13.15l4.2-10.09"/><path class="cls-25" d="M626.3,245.65l5.93-6.2a11.83,11.83,0,0,1,17.82.68,1.13,1.13,0,0,0,.1.13c1.4,1.84,3.22,3.23,5.42,3"/><path class="cls-25" d="M471.88,245.65l5.93-6.2a11.83,11.83,0,0,1,17.82.68,1.13,1.13,0,0,1,.1.13c1.41,1.84,3.22,3.23,5.42,3h7s9.32,0,12.31,9.33,11.93,29.09,11.93,29.09"/><path class="cls-25" d="M310.75,245.65l5.93-6.2a11.83,11.83,0,0,1,17.82.68,1.13,1.13,0,0,0,.1.13c1.4,1.84,3.22,3.23,5.42,3h7s9.33,0,12.31,9.33,11.94,29.09,11.94,29.09"/><path class="cls-25" d="M228.2,285.76s9.72,7.46,12.15,17,22.93,78.56,22.93,78.56"/><path class="cls-26" d="M214,277s-4.86,2.31-4.59,9,6.48,5.66,12.42,5.66c4.71,0,10.28-.33,12.37-.46a8.91,8.91,0,0,0,1.64-.27c2.89-.78,13-3.39,17.58-3.39l8.92-2.06a2.59,2.59,0,0,0,2.63-3c-.41-1.93-2.13-4-7.77-3.91C246.89,278.81,222.05,273.66,214,277Z"/><path class="cls-27" d="M240.29,303.47C251.63,340.88,266,388.24,266,388.24"/><path class="cls-25" d="M386.31,285.76s9.72,7.46,12.15,17,22.93,78.56,22.93,78.56"/><path class="cls-26" d="M372.06,277s-4.86,2.31-4.59,9,6.48,5.66,12.42,5.66c4.71,0,10.28-.33,12.37-.46a9.05,9.05,0,0,0,1.64-.27c2.89-.78,13-3.39,17.58-3.39l8.92-2.06a2.59,2.59,0,0,0,2.63-3c-.41-1.93-2.13-4-7.78-3.91C405,278.81,380.16,273.66,372.06,277Z"/><path class="cls-27" d="M398.4,303.47c11.34,37.41,25.73,84.77,25.73,84.77"/><path class="cls-25" d="M548,285.76s9.72,7.46,12.15,17,22.93,78.56,22.93,78.56"/><path class="cls-26" d="M533.75,277s-4.86,2.31-4.59,9,6.48,5.66,12.42,5.66c4.72,0,10.28-.33,12.38-.46a9.2,9.2,0,0,0,1.64-.27c2.88-.78,13-3.39,17.57-3.39l8.92-2.06a2.59,2.59,0,0,0,2.63-3c-.4-1.93-2.12-4-7.77-3.91C566.69,278.81,541.85,273.66,533.75,277Z"/><path class="cls-27" d="M560.09,303.47c11.35,37.41,25.73,84.77,25.73,84.77"/><path class="cls-28" d="M662.18,302.35a1.74,1.74,0,0,0-1.38,2.19c3.1,10.15,11.09,35.19,19,51.43,4.19,8.65,22,21.55,37.56,28.94,2.59,1.23,6.23-1.23,3.81-2.75-10-6.3-28.22-20.2-35.48-35.17-8.37-17.24-13.27-35.78-16-44.49a1.83,1.83,0,0,0-2.11-1.2Z"/><ellipse class="cls-28" cx="719.63" cy="382.91" rx="7.2" ry="6.86"/><line class="cls-29" x1="586.34" y1="391.78" x2="574.09" y2="427.42"/><path class="cls-30" d="M582.33,430.48H565.55a2.64,2.64,0,0,1-2.67-2.79l0-.52a3,3,0,0,1,2.94-2.79h16.79a2.64,2.64,0,0,1,2.67,2.79l0,.52A3,3,0,0,1,582.33,430.48Z"/><ellipse class="cls-31" cx="574.09" cy="427.42" rx="2.38" ry="2.27" transform="translate(-138.69 492.35) rotate(-41.87)"/><path class="cls-27" d="M246.76,312.23H667l.94,4.5-82,76-320.2-3.86-22.36-72.07A3.5,3.5,0,0,1,246.76,312.23Z"/><polygon class="cls-32" points="174.47 380.79 242.76 312.23 266.32 388.89 174.47 380.79"/><path class="cls-33" d="M267.29,372.19,176,375.05s-5.79-3.85-6.36,6.08L176,387.2l88.19,18.86,161-.93,160.85.79s19.17-1.16,17.41-16.8-6.81-16.39-18.38-16.39H425.13Z"/><path class="cls-34" d="M268.14,369.83C257,369.83,248,378.43,248,389s9,19.2,20.14,19.2,20.13-8.6,20.13-19.2S279.26,369.83,268.14,369.83Zm0,32.85c-7.91,0-14.32-6.11-14.32-13.65s6.41-13.64,14.32-13.64,14.31,6.11,14.31,13.64S276,402.68,268.14,402.68Z"/><ellipse class="cls-34" cx="268.14" cy="389.03" rx="5.38" ry="5.13"/><path class="cls-34" d="M424.37,369.83c-11.12,0-20.14,8.6-20.14,19.2s9,19.2,20.14,19.2,20.14-8.6,20.14-19.2S435.49,369.83,424.37,369.83Zm0,32.85c-7.91,0-14.31-6.11-14.31-13.65s6.4-13.64,14.31-13.64,14.31,6.11,14.31,13.64S432.28,402.68,424.37,402.68Z"/><ellipse class="cls-34" cx="424.37" cy="389.03" rx="5.38" ry="5.13"/><path class="cls-34" d="M586,369.83c-11.13,0-20.14,8.6-20.14,19.2s9,19.2,20.14,19.2,20.13-8.6,20.13-19.2S597.1,369.83,586,369.83Zm0,32.85c-7.91,0-14.32-6.11-14.32-13.65s6.41-13.64,14.32-13.64,14.31,6.11,14.31,13.64S593.88,402.68,586,402.68Z"/><ellipse class="cls-34" cx="585.98" cy="389.03" rx="5.38" ry="5.13"/><line class="cls-35" x1="585.48" y1="392.27" x2="597.74" y2="356.63"/><path class="cls-34" d="M589.49,353.57h16.79a2.64,2.64,0,0,1,2.67,2.79l0,.52a3,3,0,0,1-2.94,2.79H589.2a2.65,2.65,0,0,1-2.67-2.8l0-.51A3,3,0,0,1,589.49,353.57Z"/><ellipse class="cls-31" cx="597.74" cy="356.63" rx="2.38" ry="2.27" transform="translate(-85.4 490.05) rotate(-41.87)"/><line class="cls-29" x1="423.76" y1="391.78" x2="411.51" y2="427.42"/><path class="cls-30" d="M419.75,430.48H403a2.65,2.65,0,0,1-2.68-2.79l0-.52a3,3,0,0,1,2.94-2.79H420a2.65,2.65,0,0,1,2.68,2.79l0,.52A3,3,0,0,1,419.75,430.48Z"/><ellipse class="cls-31" cx="411.51" cy="427.42" rx="2.38" ry="2.27" transform="translate(-180.21 383.83) rotate(-41.87)"/><line class="cls-35" x1="422.9" y1="392.27" x2="435.16" y2="356.63"/><path class="cls-34" d="M426.91,353.57h16.78a2.65,2.65,0,0,1,2.68,2.79l0,.52a3,3,0,0,1-2.94,2.79H426.62a2.66,2.66,0,0,1-2.68-2.8l0-.51A3,3,0,0,1,426.91,353.57Z"/><ellipse class="cls-31" cx="435.16" cy="356.63" rx="2.38" ry="2.27" transform="translate(-126.92 381.53) rotate(-41.87)"/><line class="cls-29" x1="266.72" y1="391.78" x2="254.46" y2="427.42"/><path class="cls-30" d="M262.71,430.48H245.92a2.64,2.64,0,0,1-2.67-2.79l0-.52a3,3,0,0,1,2.94-2.79H263a2.64,2.64,0,0,1,2.67,2.79l0,.52A3,3,0,0,1,262.71,430.48Z"/><ellipse class="cls-31" cx="254.46" cy="427.42" rx="2.38" ry="2.27" transform="translate(-220.32 279) rotate(-41.87)"/><line class="cls-35" x1="265.86" y1="392.27" x2="278.11" y2="356.63"/><path class="cls-34" d="M269.87,353.57h16.78a2.64,2.64,0,0,1,2.67,2.79l0,.52a3,3,0,0,1-2.94,2.79H269.57a2.65,2.65,0,0,1-2.67-2.8l0-.51A3,3,0,0,1,269.87,353.57Z"/><ellipse class="cls-31" cx="278.11" cy="356.63" rx="2.38" ry="2.27" transform="translate(-167.02 276.71) rotate(-41.87)"/><ellipse class="cls-34" cx="174.7" cy="381.13" rx="9.37" ry="8.93"/><ellipse class="cls-28" cx="174.7" cy="381.13" rx="6.37" ry="6.07"/><circle class="cls-36" cx="635" cy="236.1" r="4.3"/><polygon class="cls-36" points="625.6 252.9 637.83 239.35 631.69 233.31 619.42 247.28 625.6 252.9"/><circle class="cls-37" cx="622.33" cy="250.28" r="4.2"/><path class="cls-38" d="M553.67,61.46a11.71,11.71,0,1,0,3-16.29,11.71,11.71,0,0,0-3,16.29"/><path class="cls-38" d="M534.51,57a11.72,11.72,0,1,0,3-16.29,11.72,11.72,0,0,0-3,16.29"/><path class="cls-38" d="M567,75a11.72,11.72,0,1,0,3-16.28A11.71,11.71,0,0,0,567,75"/><path class="cls-38" d="M568.76,89.65a11.71,11.71,0,1,0,3-16.3,11.69,11.69,0,0,0-3,16.3"/><path class="cls-38" d="M516.06,57.83a11.71,11.71,0,1,0,3-16.3,11.71,11.71,0,0,0-3,16.3"/><path class="cls-38" d="M499.47,62.61a11.71,11.71,0,1,0,3-16.29,11.71,11.71,0,0,0-3,16.29"/><path class="cls-38" d="M488.42,74a11.71,11.71,0,1,0,3-16.29,11.73,11.73,0,0,0-3,16.29"/><path class="cls-38" d="M478.67,89.63a11.71,11.71,0,1,0,2.95-16.31,11.69,11.69,0,0,0-2.95,16.31"/><path class="cls-38" d="M474.29,107.14a11.71,11.71,0,1,0,2.95-16.31,11.69,11.69,0,0,0-2.95,16.31"/><path class="cls-38" d="M474.74,125.44a11.71,11.71,0,1,0,3-16.28,11.7,11.7,0,0,0-3,16.28"/><path class="cls-38" d="M478.25,143a11.71,11.71,0,1,0,3-16.3,11.71,11.71,0,0,0-3,16.3"/><path class="cls-38" d="M485.39,159.48a11.71,11.71,0,1,0,3-16.29,11.72,11.72,0,0,0-3,16.29"/><path class="cls-38" d="M490.18,169.57a11.71,11.71,0,1,0,2.95-16.29,11.7,11.7,0,0,0-2.95,16.29"/><path class="cls-37" d="M566.35,194.5s33.81,16.58,42.1,75.91c1,7.07-6.6,8-11,8.37l-26.61,2.47Z"/><path class="cls-39" d="M593.65,267.85s-3.06,7.77-14.28,10.49c-6,1.45-15.68,1.83-23.88,2.8A22.7,22.7,0,0,1,535,272.6l-1.48-1.88Z"/><path class="cls-40" d="M559.33,186.21,572.79,188a8.31,8.31,0,0,1,6.72,11l-3.6,10.12Z"/><path class="cls-41" d="M521.93,48.84h0a54.38,54.38,0,0,1,65.64,39.65l8.86,38.63a54.39,54.39,0,0,1-21.2,57.13c-5.14,3.68-7.66,7.62-6.63,15.49h0a4.32,4.32,0,0,1-4.62,4.89l-32.67-2.58-2.89-10a54.29,54.29,0,0,1-37.27-38.9l-8.87-38.63a54.39,54.39,0,0,1,39.65-65.64"/><g class="cls-42"><path class="cls-11" d="M540.52,55.47h0a54.35,54.35,0,0,1,65.62,39.64L615,133.74a54.44,54.44,0,0,1-21.2,57.13c-5.14,3.68-7.65,7.63-6.63,15.49l.73,5.32L540,207.79l-.21-3.32c4.93-10.57.81-20-10.12-21.06-10.63-1-16.62-10.33-19.91-23.68l-8.86-38.62a54.38,54.38,0,0,1,39.65-65.64"/></g><path class="cls-43" d="M574.11,149.08c-4.81-4.23-2.92,5.35-24.83,0-4.43-1.09-1.61,13.64,14.39,12.67,7.39-.46,14.8-8.81,10.44-12.64"/><path class="cls-38" d="M586.13,80.93s-32.08-10.49-67,4c-9.55,4-15.1,10.43-12.76,20.11,4,16.32,7.47,74.32-1.11,73.59,0,0-31.67-23.4-26.07-79.57,1.77-17.78,16.07-59.4,67.6-51.27,36.64,5.79,39.37,33.11,39.37,33.11"/><path class="cls-44" d="M498,122a2.44,2.44,0,0,0,1.08.13l106.12-9.78a2.53,2.53,0,0,0-.46-5L498.6,117.08A2.53,2.53,0,0,0,498,122Z"/><path class="cls-11" d="M548,121.11a15.52,15.52,0,1,1-9.71-19.66A15.52,15.52,0,0,1,548,121.11"/><path class="cls-44" d="M516.18,110.34a18.05,18.05,0,0,1,23.15-11.2,18.13,18.13,0,0,1,11,22.79,18,18,0,0,1-22.88,11.29l-.29-.1h0A18.12,18.12,0,0,1,516.18,110.34Zm21.27-6.51a13,13,0,0,0-8.56,24.52l-.85,2.39,1.07-2.32a12.93,12.93,0,0,0,16.46-8.12,13.11,13.11,0,0,0-8.12-16.47Z"/><path class="cls-11" d="M599.25,117.94a15.51,15.51,0,1,1-9.71-19.66,15.53,15.53,0,0,1,9.71,19.66"/><path class="cls-44" d="M567.47,107.17A18.06,18.06,0,0,1,590.62,96a18,18,0,0,1,1.92,33.16,17.88,17.88,0,0,1-13.78.91l-.27-.1h0A18.1,18.1,0,0,1,567.47,107.17Zm21.26-6.49a12.95,12.95,0,0,0-16.46,8.12,13,13,0,0,0,7.92,16.38l-.85,2.39,1.06-2.32a12.84,12.84,0,0,0,9.91-.64,13,13,0,0,0-1.58-23.93Z"/><path class="cls-45" d="M571.37,92.34a2.09,2.09,0,0,0,2.1-.41c.31-.26,7.17-6.06,16.38.4a2.1,2.1,0,1,0,2.42-3.44c-9.63-6.76-18.33-3-21.59-.1a2.1,2.1,0,0,0,.69,3.55Z"/><path class="cls-45" d="M516.62,98.41a2.11,2.11,0,0,0,2.21-.51c.46-.47,11.61-11.43,26.72-2.24A2.11,2.11,0,0,0,547.72,92C529.64,81.12,516,94.82,515.83,95a2.09,2.09,0,0,0,0,3A2.15,2.15,0,0,0,516.62,98.41Z"/><path class="cls-46" d="M526.68,124.37a1,1,0,0,0,.61,0c5.78-1.46,14.67-1.59,14.76-1.59a1.08,1.08,0,0,0,1-1.06,1,1,0,0,0-1.07-1c-.37,0-9.22.13-15.24,1.66a1,1,0,0,0-.76,1.28A1.08,1.08,0,0,0,526.68,124.37Z"/><path class="cls-46" d="M577.83,120.52a1.09,1.09,0,0,0,.62,0c5.75-1.45,14.27-1,14.35-1a1.05,1.05,0,1,0,.11-2.1c-.35,0-8.91-.45-15,1.08a1.06,1.06,0,0,0-.11,2Z"/><path class="cls-37" d="M583.64,110.57a4.89,4.89,0,1,0,6.35-2.73,4.91,4.91,0,0,0-6.35,2.73"/><path class="cls-37" d="M536.17,114.37a4.64,4.64,0,1,0,6-2.59,4.64,4.64,0,0,0-6,2.59"/><path class="cls-47" d="M561.88,284l33.35,2.68c6.55.3,8.64,3.57,6.26,8.93l-18.76,44.07"/><path class="cls-39" d="M589.6,276.71l-56.06-2.47h0a23.67,23.67,0,0,0,22.63,24.13l33,1.46Z"/><polygon class="cls-13" points="590.78 302.43 591.56 275.32 584.28 274.93 583.49 302.04 590.78 302.43"/><path class="cls-43" d="M569.3,191.31l4.38,7.33,10.53,18.83s18.14,26.54,14.54,53.3l-73.12,7.85s-4.55-62.73,7.24-78.17L546,198.7c8.11-1.08,16.84-2.38,23.31-7.39"/><path class="cls-37" d="M546.23,208.17c3.12,16.5-2,49.22-2.89,70.28a7.65,7.65,0,0,1-8.65,7.23l-28.8-2.61s4.28-60.95,23.53-83.42h3.73c6-.36,12,2.61,13.08,8.53"/><path class="cls-16" d="M516.67,199s26.22-19.73,30,12.11L522,206.61Z"/><path class="cls-15" d="M532.57,217.4s13.34,30.27,63.1,31.81"/><polygon class="cls-11" points="619.43 249.73 617.96 239.74 598.29 242.63 599.76 252.64 619.43 249.73"/><path class="cls-11" d="M641.1,233.36a3.85,3.85,0,0,0-2.12-7c-3.15-.06-13.78,0-18.08,4-3.72,3.41-11,12.3-11.27,12.68a3.83,3.83,0,0,0,6,4.83c2-2.45,7.75-9.36,10.49-11.87,1.4-1.3,7.88-2.11,12.73-2A3.87,3.87,0,0,0,641.1,233.36Z"/><path class="cls-11" d="M639.94,245.06a3.83,3.83,0,0,0-.51-6.58c-6.76-3.31-11.1-5-13-5.17-1.15-.07-3.56-.21-13.59,8.11a3.83,3.83,0,0,0,4.89,5.9,67.66,67.66,0,0,1,8.6-6.25c1.6.51,6.08,2.52,9.69,4.29A3.84,3.84,0,0,0,639.94,245.06Z"/><path class="cls-11" d="M631.73,253.91a3.82,3.82,0,0,0,1.4-4.43c-.65-1.81-3.13-7.76-7.56-9.17a6.45,6.45,0,0,0-5.8.95c-2.76,1.93-7,1.28-7.1,1.27a3.83,3.83,0,0,0-1.34,7.54c.73.12,7,1.12,12.25-2.14a14.25,14.25,0,0,1,2.36,4.16,3.83,3.83,0,0,0,4.91,2.28A3.51,3.51,0,0,0,631.73,253.91Z"/><path class="cls-16" d="M591.27,243.48l2.09,10.61a1.44,1.44,0,0,0,1.65,1.14l6.9-1.13.27-12.23Z"/><path class="cls-43" d="M617.16,349.83l-25.95-18.78-12.38,1.71-6.62,17.18,46.36,8.28,1-1.8a5,5,0,0,0-2.41-6.59"/><path class="cls-48" d="M246.68,186.21,260.13,188c11,.43,14.93-.54,8.77,10.5l-5.64,10.64Z"/><path class="cls-49" d="M236.66,96.22s14.53-29.07-9.81-45.29c0,0,49.48-8,38.48,40.82-6.09,27.11-28.67,4.47-28.67,4.47"/><path class="cls-50" d="M270.41,117.46l-14.74-36.8A58.34,58.34,0,1,0,147.35,124l14.72,36.8a58.47,58.47,0,0,0,45.44,36,8.68,8.68,0,0,1,7,6.07l1.73,5.79,41.92-12.56-2.3-7.7a8.63,8.63,0,0,1,2.07-8.51,58.54,58.54,0,0,0,12.46-62.41"/><g class="cls-51"><path class="cls-4" d="M293.06,114l-14.74-36.8A58.34,58.34,0,1,0,170,120.55l14.73,36.8a58.44,58.44,0,0,0,45.44,36,8.65,8.65,0,0,1,7,6.06l1.73,5.79,41.92-12.56-2.3-7.7a8.64,8.64,0,0,1,2.07-8.5A58.52,58.52,0,0,0,293.06,114"/></g><path class="cls-49" d="M247.17,66.76s-21.53-83.28-96.41-30.55c0,0,34.18,16.73,26.22,27.4Z"/><path class="cls-49" d="M222.42,75.75s-59.64-63-100.68,5.35c0,0,34.94-12.87,32.33,10.89Z"/><path class="cls-52" d="M265.1,82a2.71,2.71,0,0,1-2.94.34c-.13-.06-5.1-2.43-9.74-.43-3.37,1.45-5.89,4.88-7.54,10.21a2.71,2.71,0,1,1-5.17-1.6c2.14-6.94,5.72-11.52,10.63-13.61,7-3,14,.44,14.24.59a2.71,2.71,0,0,1,1.2,3.64A2.85,2.85,0,0,1,265.1,82Z"/><path class="cls-52" d="M224.27,98.7a2.69,2.69,0,0,1-2.94.34c-.14-.06-5.1-2.42-9.74-.43-3.37,1.46-5.89,4.89-7.54,10.22a2.71,2.71,0,0,1-5.17-1.6c2.14-7,5.72-11.53,10.63-13.61,7-3,14,.44,14.24.58a2.72,2.72,0,0,1,1.2,3.64A2.76,2.76,0,0,1,224.27,98.7Z"/><path class="cls-49" d="M252.13,71.2s-50,11.65-60.51,21.34c0,0,9.4,59.55-12.21,92.39,0,0-17-10-27.73-35.06-11.25-26.36-20.5-55.8-.52-80.46l103.78-33s-8.66,24.18-2.81,34.8"/><path class="cls-53" d="M254.57,149.26c-5.54,2.57-11.07.26-13.66-1.78a1.51,1.51,0,0,1,1.86-2.37c.31.23,7.47,5.65,14-1.16A1.51,1.51,0,1,1,259,146,14.63,14.63,0,0,1,254.57,149.26Z"/><path class="cls-54" d="M235.48,120.54l-.08,0-19.62,7.37a1.13,1.13,0,0,1-1.46-.66,1.11,1.11,0,0,1,.66-1.46l19.63-7.37a1.13,1.13,0,0,1,.87,2.09Z"/><path class="cls-52" d="M222.33,125.12a5.78,5.78,0,0,1-.54-11.36,5.46,5.46,0,0,1,2.09-.09,5.82,5.82,0,0,1,4.85,4.41,5.77,5.77,0,0,1-4.31,6.93,5.88,5.88,0,0,1-2.09.11"/><path class="cls-54" d="M268.64,107.14l-.17.08L252.34,114a1.12,1.12,0,0,1-1.47-.61,1.1,1.1,0,0,1,.6-1.48l16.13-6.74a1.13,1.13,0,0,1,1,2Z"/><path class="cls-52" d="M256.68,109.27a5.84,5.84,0,0,1-4.85-4.42,5.77,5.77,0,0,1,4.31-6.94,5.46,5.46,0,0,1,2.09-.1,5.79,5.79,0,0,1,4.85,4.42,5.78,5.78,0,0,1-4.31,6.93,6.14,6.14,0,0,1-2.09.11"/><circle class="cls-4" cx="191.94" cy="141.13" r="9.6"/><circle class="cls-36" cx="322.35" cy="236.1" r="4.3"/><polygon class="cls-36" points="312.95 252.9 325.17 239.35 319.04 233.31 306.77 247.28 312.95 252.9"/><circle class="cls-37" cx="309.68" cy="250.28" r="4.2"/><path class="cls-55" d="M253.7,194.5s33.81,16.58,42.1,75.91c1,7.07-6.6,8-11,8.37l-26.61,2.47Z"/><path class="cls-39" d="M281,267.85s-3.06,7.77-14.28,10.49c-6,1.45-15.68,1.83-23.88,2.8a22.7,22.7,0,0,1-20.51-8.54l-1.48-1.88Z"/><path class="cls-56" d="M249.23,284l33.35,2.68c6.55.3,8.64,3.57,6.26,8.93l-18.76,44.07"/><path class="cls-5" d="M273.7,276.46l-62.64-2.22h0a23.68,23.68,0,0,0,22.63,24.13l39.54,1.21Z"/><polygon class="cls-5" points="278.13 302.43 278.91 275.32 271.63 274.93 270.84 302.04 278.13 302.43"/><path class="cls-4" d="M256.65,191.31l4.38,7.33s8.05,13.48,11.36,77l-61.27-1.25s-2.69-58.54,9.1-74l13.12-1.75c8.11-1.08,16.84-2.38,23.31-7.39"/><path class="cls-57" d="M234.48,210.86c-7.15,15.58-15.92,43.42-29.12,57a14.16,14.16,0,0,1-12.11,3.9L159.31,252.1s38.21-30,57.46-52.45h3.73c6-.36,12,2.61,13.07,8.53"/><polygon class="cls-4" points="306.78 249.73 305.31 239.74 285.64 242.63 287.11 252.64 306.78 249.73"/><path class="cls-4" d="M328.45,233.36a3.85,3.85,0,0,0-2.12-7c-3.15-.06-13.78,0-18.08,4-3.72,3.41-11,12.3-11.27,12.68a3.83,3.83,0,0,0,5.95,4.83c2-2.45,7.75-9.36,10.49-11.87,1.39-1.3,7.88-2.11,12.73-2A3.87,3.87,0,0,0,328.45,233.36Z"/><path class="cls-4" d="M327.29,245.06a4,4,0,0,0,1.25-1.46,3.85,3.85,0,0,0-1.76-5.12c-6.76-3.31-11.1-5-13-5.17-1.15-.07-3.56-.21-13.59,8.11a3.83,3.83,0,0,0,4.89,5.9,67.66,67.66,0,0,1,8.6-6.25c1.59.51,6.08,2.52,9.69,4.29A3.84,3.84,0,0,0,327.29,245.06Z"/><path class="cls-4" d="M319.08,253.91a3.82,3.82,0,0,0,1.4-4.43c-.65-1.81-3.13-7.76-7.57-9.17a6.44,6.44,0,0,0-5.79.95c-2.76,1.93-7,1.28-7.1,1.27a3.83,3.83,0,1,0-1.34,7.54c.73.12,7,1.12,12.25-2.14a14.25,14.25,0,0,1,2.36,4.16,3.83,3.83,0,0,0,4.91,2.28A3.51,3.51,0,0,0,319.08,253.91Z"/><path class="cls-7" d="M219.92,217.4s18.56,29.11,68.33,30.65"/><path class="cls-43" d="M304.51,349.83l-25.95-18.78-12.38,1.71-6.62,17.18,46.36,8.28,1-1.8a5,5,0,0,0-2.41-6.59"/><path class="cls-58" d="M264.77,225.36c.25-5.4-4.94-32.25-8.45-34.73l4.67,3.26c4.54,3.21,7.75,24.88,7.43,31.64Z"/><path class="cls-58" d="M265.78,225.68c-.85-.33-3.28-2.1-15.31-11.11-6.68-5-14.26-10.69-16.56-12.18l2.42-3.17c2.43,1.57,9.74,7.05,16.81,12.34,6,4.46,13.37,10,14.39,10.58Z"/><path class="cls-58" d="M273.19,227.49a6.65,6.65,0,1,1-5.57-7.58,6.64,6.64,0,0,1,5.57,7.58"/><path class="cls-59" d="M270.55,227.08a4,4,0,1,1-3.33-4.51,4,4,0,0,1,3.33,4.51"/><rect class="cls-5" x="208.14" y="268.77" width="69.68" height="10.12"/><path class="cls-60" d="M387.35,194.84s-47.3-16.7-76.73,26.87c-25.95,38.43-53.94,51.53-70,46.17,0,0-4.47,11.91,13.4,22.63,0,0,34.08,17.22,58.36-27.1,35.49-64.77,76-53.73,73.84-60.08"/><circle class="cls-36" cx="476.11" cy="236.1" r="4.3"/><polygon class="cls-36" points="466.71 252.9 478.93 239.35 472.8 233.31 460.52 247.28 466.71 252.9"/><circle class="cls-37" cx="463.43" cy="250.28" r="4.2"/><path class="cls-61" d="M403,284l33.35,2.68c6.55.3,8.64,3.57,6.25,8.93l-17.21,41.58"/><path class="cls-62" d="M448.81,125.18l-9.17-45.79c-6.18-30.89-36-48.86-66.17-39.91S323.61,81,329.8,111.87L337,147.56a56.83,56.83,0,0,0,25.36,36.95,14.66,14.66,0,0,1,6.75,13.68l4.92-1.08,33.26.46.16,3a14.87,14.87,0,0,1,8.82-12.15,57,57,0,0,0,32.59-63.23"/><path class="cls-9" d="M387.87,130a5.74,5.74,0,0,1,.39-11.28,5.86,5.86,0,0,1,2.09.08,5.78,5.78,0,0,1,4.44,4.76,5.74,5.74,0,0,1-4.84,6.51,5.82,5.82,0,0,1-2.08-.07"/><path class="cls-9" d="M385.25,127.17a9.56,9.56,0,0,1-4.3-.66,11.08,11.08,0,0,1-5.63-5.58,1.19,1.19,0,0,1,.65-1.55,1.21,1.21,0,0,1,1.56.64,8.79,8.79,0,0,0,4.34,4.29,9,9,0,0,0,7-.51,1.19,1.19,0,1,1,1,2.18A13.71,13.71,0,0,1,385.25,127.17Z"/><g class="cls-63"><path class="cls-64" d="M339.56,109.17s6,46.36,21.41,63.88c24.55,27.86,57.22,16.2,57.22,16.2L410.82,200l-58.18-1.6s-38.09-49.94-13.08-89.18"/></g><path class="cls-9" d="M439.86,118a5.74,5.74,0,0,0-5.21-10,6.15,6.15,0,0,0-1.85,1,5.8,5.8,0,0,0-2,6.2A5.75,5.75,0,0,0,438,119a5.85,5.85,0,0,0,1.84-.95"/><path class="cls-9" d="M437,115.16l-.6,0a1.2,1.2,0,0,1-1.24-1.15,1.28,1.28,0,0,1,1.16-1.24c2.89-.1,5.06-1,6.52-2.54a8.75,8.75,0,0,0,2.07-5.73,1.2,1.2,0,0,1,1.11-1.26h0a1.21,1.21,0,0,1,1.26,1.13,11,11,0,0,1-2.68,7.46A10.88,10.88,0,0,1,437,115.16Z"/><path class="cls-9" d="M365.28,110.48a1.14,1.14,0,0,1-.6-.28,1.12,1.12,0,0,1-.05-1.57c8.11-8.68,19.56-10.7,29.85-5.25a1.1,1.1,0,0,1,.46,1.49,1.11,1.11,0,0,1-1.5.47c-9.37-4.94-19.79-3.11-27.19,4.8A1.11,1.11,0,0,1,365.28,110.48Z"/><path class="cls-65" d="M415.46,160.83c-3,.33-6.33-.81-9.63-4.89a2.4,2.4,0,0,1-.06-2.84,1.39,1.39,0,0,1,2.27.07c6.42,8,12.5.59,12.75.25a1.4,1.4,0,0,1,2.27.08,2.39,2.39,0,0,1,.05,2.83A12.07,12.07,0,0,1,415.46,160.83Z"/><path class="cls-9" d="M421.64,101.15a1.07,1.07,0,0,1-.85-.25,1.12,1.12,0,0,1-.13-1.56c7.68-9.09,19-11.69,29.54-6.76a1.1,1.1,0,0,1,.54,1.47,1.13,1.13,0,0,1-1.47.54c-9.59-4.48-19.92-2.11-26.91,6.18A1.16,1.16,0,0,1,421.64,101.15Z"/><path class="cls-9" d="M373.47,39.46s57.89-16.2,76.44,41.23l-32.86,9.1-7.44-10.7.75,11.16-39.23,8-28.36,65.43s-6.87-7.34-13-51.77,25.61-67.19,43.67-72.41"/><g class="cls-63"><polygon class="cls-9" points="342.77 163.64 342.13 94.91 422.67 44.96 392.57 30.94 354.94 39.38 333.67 64.3 321.99 96.28 327.51 123.34 342.77 163.64"/></g><path class="cls-9" d="M340.31,74.22s-34.5-34.72-54.75,12.92c-21.24,50,15.38,93.33-.59,120.3s-28,18.46-28,18.46,42.92,36.83,68.48-3c23.42-44-32.75-111.36,7.44-137.8,0,0,12.32,2.48,7.41-10.9"/><path class="cls-62" d="M362.75,132.88a8.15,8.15,0,1,1-8.15-8.15,8.13,8.13,0,0,1,8.15,8.15"/><path class="cls-66" d="M359.72,142.64a5.36,5.36,0,1,1-5.71-5,5.35,5.35,0,0,1,5.71,5"/><path class="cls-67" d="M443.81,31.11s-26.71-7.55-39.19,10.11c0,0-2.57,8-4.89,8.54s-4.68-.85-7.73-4.95-22.64-10.56-40.34,5.11c0,0-4.08,14.59,5,27.91s32.72,3.12,37.24-4.61a61.14,61.14,0,0,0,6.15-14.1l2.3-.45s6.85,10.09,15.55,13,27.74-1.59,30.28-11.73,0-23.07-4.41-28.83"/><path class="cls-68" d="M440.38,35.27s-18.56-5.48-30.87,7.37c0,0-3.73,5.5-1.12,13.7s14.46,14.12,25.28,9.58,14.83-10.4,6.71-30.65"/><path class="cls-68" d="M356.3,53.32s6.7-9.26,24.64-8.42c0,0,14.62,5.74,12.27,17.62s-10.61,15.4-21.08,16.69S355.88,68.58,356.3,53.32"/><path class="cls-67" d="M352.59,60.39,327.11,87.55s-1.84,6,4.37,4.37L354,68.53Z"/><polyline class="cls-69" points="383.47 215.57 384.04 216.24 382.73 216.94 383.47 215.57"/><path class="cls-69" d="M344.31,290.57h0a1.08,1.08,0,0,0,.15.13,1.08,1.08,0,0,1-.15-.13"/><path class="cls-70" d="M290.48,249.43a7.37,7.37,0,0,1-.83,1.37l.83-1.37"/><path class="cls-71" d="M417.89,202.17l-6.45,70.45,27.17,7.81a236.27,236.27,0,0,0-33.1,31.5c-24.7,28.26-71.09-4.31-71.09-4.31s-5.62-45.43,30-110.64c.75-1.37,2.69-.61,3.68-1.83L412,197.58a8.2,8.2,0,0,1,5.78,2.4Z"/><polygon class="cls-11" points="460.54 249.73 459.07 239.74 439.39 242.63 440.87 252.64 460.54 249.73"/><path class="cls-11" d="M482.2,233.36a3.84,3.84,0,0,0-2.11-7c-3.15-.06-13.78,0-18.08,4-3.73,3.41-11,12.3-11.27,12.68a3.83,3.83,0,0,0,5.95,4.83c2-2.45,7.75-9.36,10.49-11.87,1.39-1.3,7.88-2.11,12.73-2A3.82,3.82,0,0,0,482.2,233.36Z"/><path class="cls-11" d="M481.05,245.06a3.84,3.84,0,0,0-.51-6.58c-6.76-3.31-11.11-5-13-5.17-1.14-.07-3.55-.21-13.58,8.11a3.83,3.83,0,0,0,4.89,5.9,66.94,66.94,0,0,1,8.6-6.25c1.59.51,6.08,2.52,9.69,4.29A3.84,3.84,0,0,0,481.05,245.06Z"/><path class="cls-11" d="M472.84,253.91a3.84,3.84,0,0,0,1.4-4.43c-.65-1.81-3.13-7.76-7.57-9.17a6.43,6.43,0,0,0-5.79.95c-2.76,1.93-7,1.28-7.1,1.27a3.83,3.83,0,0,0-1.34,7.54c.73.12,7,1.12,12.25-2.14a14.25,14.25,0,0,1,2.36,4.16,3.83,3.83,0,0,0,4.91,2.28A3.51,3.51,0,0,0,472.84,253.91Z"/><path class="cls-72" d="M373.67,217.4s18.46,32,70.38,29.73"/><path class="cls-73" d="M381.26,204.3c-7,23.16-51.79,25.8-51.79,25.8,15.16,9.54,6.84,29.07,6.84,29.07A75.73,75.73,0,0,0,380,241.49c12-10.06,16.79-26.57,11.21-41.21C388.64,193.63,385.24,191.19,381.26,204.3Z"/><path class="cls-74" d="M357.15,198.53s6.28-10.85,23.34-6.15c12,3.3,26.33.59,32.41,2.67s12,14.7,5.59,19.12-31.15-6.24-59.82-3.45c-6.42.62-3.45-8.15-1.71-12"/><path class="cls-9" d="M424,324.66l11.94,2.73s7.72,14,13.91,18.7,14.42,15.17,7.53,14.94-28.54-6.84-30.18-14.15-1.58,6.91-1.58,6.91l-3.45-.79s-4.24-11.84-2.42-19.86S424,324.66,424,324.66Z"/><path class="cls-57" d="M195,196.72,235.84,183a3.86,3.86,0,0,1,5,4.66l-6.33,23.57-22.73-2.27Z"/></g></g></svg>