<svg xmlns="http://www.w3.org/2000/svg" viewBox="0 0 160 265"><defs><style>.cls-1{isolation:isolate;}.cls-2{fill:#929497;}.cls-3{fill:#bbbdbf;}.cls-4{fill:#fff;}.cls-5,.cls-7{fill:#1ea4dd;}.cls-6{fill:none;stroke:#1ea4dd;stroke-width:4.56px;}.cls-6,.cls-7{stroke-miterlimit:10;}.cls-7{stroke:#bbbdbf;stroke-width:3.13px;}.cls-8{fill:#d0d2d3;opacity:0.3;mix-blend-mode:screen;}</style></defs><title>Medal-icon</title><g class="cls-1"><g id="Layer_1" data-name="Layer 1"><polygon class="cls-2" points="4.36 176.8 4.36 188.21 155.64 189.66 155.64 175.25 4.36 176.8"/><polygon class="cls-3" points="22.39 0.47 22.39 83.85 61.05 105.69 98.95 105.69 133.87 83.85 133.87 0.47 22.39 0.47"/><polygon class="cls-4" points="118.18 0.47 38.86 0.47 38.86 93.15 61.05 105.69 98.95 105.69 118.18 93.66 118.18 0.47"/><rect class="cls-5" x="61.05" y="0.47" width="37.9" height="105.21"/><circle class="cls-2" cx="80" cy="188.89" r="75.64"/><circle class="cls-3" cx="80" cy="176.8" r="75.64"/><circle class="cls-6" cx="80" cy="176.8" r="64.6"/><path class="cls-7" d="M43.26,176.16h5.21a14.64,14.64,0,0,1,14.64,14.64v13.94a0,0,0,0,1,0,0H28.63a0,0,0,0,1,0,0V190.79A14.64,14.64,0,0,1,43.26,176.16Z"/><rect class="cls-7" x="33.48" y="155.3" width="24.77" height="27.99" rx="12.11"/><path class="cls-7" d="M112.32,176.16h5.21a14.64,14.64,0,0,1,14.64,14.64v13.94a0,0,0,0,1,0,0H97.68a0,0,0,0,1,0,0V190.79A14.64,14.64,0,0,1,112.32,176.16Z"/><rect class="cls-7" x="102.54" y="155.3" width="24.77" height="27.99" rx="12.11"/><path class="cls-7" d="M78.15,169.22h6.47a18.19,18.19,0,0,1,18.19,18.19v17.33a0,0,0,0,1,0,0H60a0,0,0,0,1,0,0V187.41A18.19,18.19,0,0,1,78.15,169.22Z"/><rect class="cls-7" x="66" y="143.3" width="30.78" height="34.79" rx="15.05"/><path class="cls-8" d="M106.37,124.89A58.21,58.21,0,0,0,21.76,176.8c0,1.11,0,2.2.1,3.29Z"/></g></g></svg>