<svg xmlns="http://www.w3.org/2000/svg" xmlns:xlink="http://www.w3.org/1999/xlink" viewBox="0 0 235 150"><defs><style>.cls-1{fill:none;}.cls-2{isolation:isolate;}.cls-3{clip-path:url(#clip-path);}.cls-4{fill:#79bb43;}.cls-5{fill:#ffc731;}.cls-6{clip-path:url(#clip-path-2);}.cls-10,.cls-11,.cls-12,.cls-7,.cls-8,.cls-9{mix-blend-mode:multiply;}.cls-7{fill:url(#linear-gradient);}.cls-8{fill:url(#linear-gradient-2);}.cls-9{fill:url(#linear-gradient-3);}.cls-11{fill:url(#linear-gradient-4);}.cls-12{fill:url(#linear-gradient-5);}.cls-13{font-size:7.68px;}.cls-13,.cls-14,.cls-15,.cls-16,.cls-17{fill:#fff;}.cls-13,.cls-14{font-family:JeniusSansDraft-Regular, Jenius Sans Draft;}.cls-14{font-size:4.8px;}.cls-15{font-size:13.44px;font-family:JeniusSansDraft-Bold, Jenius Sans Draft;font-weight:700;}.cls-17{fill-rule:evenodd;}.cls-18{clip-path:url(#clip-path-3);}</style><clipPath id="clip-path"><path class="cls-1" d="M223.74,148.5H11.27A9.53,9.53,0,0,1,1.8,139V11A9.53,9.53,0,0,1,11.27,1.5H223.74A9.53,9.53,0,0,1,233.2,11V139a9.53,9.53,0,0,1-9.46,9.53"/></clipPath><clipPath id="clip-path-2"><path class="cls-1" d="M11.45,165a25.85,25.85,0,0,1-25.79-25.86V11.17A25.86,25.86,0,0,1,11.45-14.7H223.92a25.86,25.86,0,0,1,25.79,25.87V139.11A25.85,25.85,0,0,1,223.92,165Z"/></clipPath><linearGradient id="linear-gradient" x1="2882.3" y1="-685.11" x2="3070.38" y2="-500.38" gradientTransform="translate(2964.63 874.05) rotate(-154.49)" gradientUnits="userSpaceOnUse"><stop offset="0" stop-color="#f9a823"/><stop offset="0.99" stop-color="#f9a823" stop-opacity="0"/></linearGradient><linearGradient id="linear-gradient-2" x1="2981.65" y1="-361.02" x2="2886.96" y2="-256.69" gradientTransform="translate(2806.47 1129.36) rotate(-152.23)" xlink:href="#linear-gradient"/><linearGradient id="linear-gradient-3" x1="3053.87" y1="-672.78" x2="3077.93" y2="-423.55" xlink:href="#linear-gradient"/><linearGradient id="linear-gradient-4" x1="3697.84" y1="-651.55" x2="3709.43" y2="-466.17" gradientTransform="translate(3716.99 -294.84) rotate(-176.42)" xlink:href="#linear-gradient"/><linearGradient id="linear-gradient-5" x1="3697.31" y1="-648.55" x2="3708.9" y2="-463.17" gradientTransform="translate(3716.99 -294.84) rotate(-176.42)" gradientUnits="userSpaceOnUse"><stop offset="0" stop-color="#7aba43"/><stop offset="0.99" stop-color="#7aba43" stop-opacity="0"/></linearGradient><clipPath id="clip-path-3"><rect class="cls-1" x="14.57" y="-3.57" width="207" height="24.22"/></clipPath></defs><title>e-card</title><g class="cls-2"><g id="Layer_1" data-name="Layer 1"><g class="cls-3"><path class="cls-4" d="M11.27,164.83A25.86,25.86,0,0,1-14.53,139V11a25.86,25.86,0,0,1,25.8-25.86H223.74A25.85,25.85,0,0,1,249.53,11V139a25.85,25.85,0,0,1-25.79,25.86Z"/><path class="cls-5" d="M11.27,164.83A25.86,25.86,0,0,1-14.53,139V11a25.86,25.86,0,0,1,25.8-25.86H223.74A25.85,25.85,0,0,1,249.53,11V139a25.85,25.85,0,0,1-25.79,25.86Z"/><g class="cls-6"><path class="cls-7" d="M-66.65,50.42A90.6,90.6,0,0,0-70.43,66a79.8,79.8,0,0,0-.81,16.84c0,.11.39,3.69.39,3.69s.35,2.49.45,3.23a72.54,72.54,0,0,0,12.69,30.29,50.37,50.37,0,0,0,3.89,4.69,80.88,80.88,0,0,0,10.32,10c2.13,1.75,4.38,3.42,6.73,5a107.86,107.86,0,0,0,25.62,12.53L-6.09,154c2.9-.86,5.88-1.86,8.53-2.8a106.53,106.53,0,0,0,15.45-6.45c.37-.2,3.15-1.64,4.93-2.69A103.85,103.85,0,0,0,68.93,85.53,103.74,103.74,0,0,0,74.18,44a73.38,73.38,0,0,0-4.58-7.81C60.75,22.91,47.11,11.67,28,5.18-8.46-7.19-52.59,9-66.65,50.42ZM27,15.09c22.49,7.63,37.43,31.23,36.18,59.32a79.79,79.79,0,0,1-4.25,22.16c-9.68,28.53-37.52,45.8-65.06,40.09A52,52,0,0,1-12.46,135C-43.55,124.4-57.24,85.66-48,58.37-35.45,21.47-4.53,4.4,27,15.09Z"/><path class="cls-8" d="M42.17-46.64a89,89,0,0,1,10.66,2.91C95.61-29.21,126.75,27.48,109.26,79c-8.51,25.07-24.84,47.46-50.35,57.63h0c-2.18,2.58-4.78,5.59-5.94,6.81,0,0,0,0,0,0a90.55,90.55,0,0,1-16.2,13.85l-.85.57c44.23-3.74,85.15-31.78,99.11-72.9C156.66,21.19,115.3-35.36,49.86-57.58c-10.76-3.65-21.81-4.75-32.19-5.56A89.94,89.94,0,0,1,42.17-46.64Z"/><path class="cls-9" d="M-159.18,3.83c-22.89,67.45,12.35,140,85.86,165C-49,177-13.1,179.37,18.32,166.85a104.77,104.77,0,0,0,17.6-9,89.8,89.8,0,0,0,17-14.42s0,0,0,0c1.16-1.22,3.76-4.23,5.94-6.81,1.94-2.27,3.54-4.19,3.54-4.19h0a87.86,87.86,0,0,0,12.23-20.25,99.89,99.89,0,0,0,4.83-11.73C98.36,44.89,83.64-11.48,42.39-46.43l-.25-.22h0a89.94,89.94,0,0,0-24.5-16.5H17.6l-.36-.18a146.37,146.37,0,0,0-21-9C-65.54-93.26-137-61.63-159.18,3.83Zm83.76-56.3a115.37,115.37,0,0,1,21.88-7.08A100.06,100.06,0,0,1-25.1-61.84c2.86.15,8.43.81,8.54.81h0A99.75,99.75,0,0,1,1.13-56.66a102.6,102.6,0,0,1,17.68,7.9h0C45.11-33.66,63.19-7.51,70.59,20.69A112.8,112.8,0,0,1,74.21,44l0,0A103.72,103.72,0,0,1,69,85.52a103.82,103.82,0,0,1-45.19,55.94c-1.23.72-3,1.82-6.43,3.54a105.89,105.89,0,0,1-14.86,6.15c-3.18,1.13-6.84,2.35-10.28,3.31a116.4,116.4,0,0,1-70.77-.75C-133.7,135-157.62,68.51-141,19.54A120.19,120.19,0,0,1-75.42-52.47Z"/><g class="cls-10"><path class="cls-11" d="M-33.86,120.63c.85.8,4.55,4.1,4.55,4.1A50.37,50.37,0,0,1-33.2,120h0A72.43,72.43,0,0,1-45.9,89.76c-.11-.74-.45-3.23-.45-3.23-.09-.21,0,0,0,0C-56.27,66-58.58,41-49.62,14.62c10.93-32.2,42-55.39,76.69-61.69a106.29,106.29,0,0,1,16.14-1.68h.09a102.16,102.16,0,0,0-17.67-7.9A99.75,99.75,0,0,0,8-61H8a113.91,113.91,0,0,0-27.19,9.73C-41.42-39.8-58.53-20.9-66.51,2.61-86.92,62.74-47.65,107.32-33.86,120.63Z"/></g><g class="cls-10"><path class="cls-12" d="M-33.13,117.67c.84.8,4.54,4.1,4.54,4.1a50.37,50.37,0,0,1-3.89-4.69h0A72.28,72.28,0,0,1-45.17,86.8c-.11-.74-.46-3.23-.46-3.23-.09-.21,0,0,0,0C-55.55,63-57.85,38-48.9,11.66-38-20.54-6.87-43.73,27.79-50a105,105,0,0,1,16.14-1.68H44a102.16,102.16,0,0,0-17.67-7.9A99.75,99.75,0,0,0,8.68-64h0a113.32,113.32,0,0,0-27.19,9.73C-40.7-42.76-57.81-23.86-65.79-.35-86.2,59.78-46.93,104.36-33.13,117.67Z"/></g></g><text class="cls-13" transform="translate(83.07 112.41)">04/18</text><text class="cls-14" transform="translate(24.03 102.59)">1234</text><text class="cls-14" transform="translate(84.19 103.14)">VALID THRU</text><text class="cls-15" transform="translate(24.2 94.02)"><tspan xml:space="preserve">1234    5678    1234    5678 </tspan></text><path class="cls-16" d="M199.31,35.83c0-5.59-4.45-10.09-10.54-10.09a10.47,10.47,0,0,0-7.83,3.56,9,9,0,0,0-5.52,7.92c0,5.28,4.49,8.44,9.92,8.44a10.3,10.3,0,0,0,2.53-.4,12,12,0,0,0,1.82.14A9.63,9.63,0,0,0,199.31,35.83Zm-9.77-9.1c4.58,0,8,4.33,8,8.39a9.18,9.18,0,0,1-7.21,9.11,7.73,7.73,0,0,0,3.92-6.59c0-6-5.84-8.13-5.84-8.13a7.54,7.54,0,0,0-3.87-1h-.41A9.11,9.11,0,0,1,189.54,26.73Zm-4.43,3.06a4.91,4.91,0,0,1,4.57,4.79c0,3.06-1.87,5.1-4.48,5.1-2.34,0-4.42-2.17-4.42-5.25A4.48,4.48,0,0,1,185.11,29.79Zm-.35,14.91c-3.54,0-7.28-3.42-7.28-7.69a7.13,7.13,0,0,1,2.3-5.57,6.62,6.62,0,0,0-.57,2.23,8.22,8.22,0,0,0-.06,1,10.41,10.41,0,0,0,6.48,10A6.26,6.26,0,0,1,184.76,44.7Zm2.66-.48A9,9,0,0,1,181,38.73a6.15,6.15,0,0,0,4.4,1.71,5.81,5.81,0,0,0,5.9-5.74,6.3,6.3,0,0,0-.6-2.79,7.39,7.39,0,0,1,2.05,5.26A7.91,7.91,0,0,1,187.42,44.22ZM154.58,65.77c0,2-1.24,3-3.87,3.13v3c3,0,6.77-1.62,6.77-6.09V51.22h-2.9Zm17.18-8.28c0-2.31-1.27-6.54-5.94-6.54-4.42,0-5.93,3.7-5.93,7.55s1.53,7.56,6.62,7.56a8.63,8.63,0,0,0,5.14-1.76L170.16,62a6.94,6.94,0,0,1-3.65,1.21A3.43,3.43,0,0,1,163,60.07h6.13C170.91,60.07,171.76,59.35,171.76,57.49Zm-8.82-.28c.19-1.81,1-3.41,2.88-3.41s2.7,1.6,2.89,3.41ZM179.67,51a6.86,6.86,0,0,0-5.49,3v12h2.91v-11a3.5,3.5,0,0,1,2.58-1.1,2.84,2.84,0,0,1,2.86,2.86v9.23h2.92V56.66A5.58,5.58,0,0,0,179.67,51Zm9,14.94h2.91V51.12h-2.91Zm24.93-9h0c-1-.28-2.28-.77-2.28-1.79,0-.74.77-1.35,2.23-1.35a9.89,9.89,0,0,1,3.73,1l.94-2.6A11.35,11.35,0,0,0,213.59,51c-2.53,0-5.17,1.29-5.17,4.2,0,2.69,2.37,4,4.71,4.62,1.25.27,2.85.8,2.85,1.84s-1.3,1.59-2.55,1.59a10.8,10.8,0,0,1-4.23-1.48l-1.14,2.72a12.45,12.45,0,0,0,5.37,1.62c2.65,0,5.46-1.27,5.46-4.45S215.82,57.49,213.61,56.94Zm-10.35,3.4a2.85,2.85,0,1,1-5.69,0V51.12h-2.91v9.22a5.58,5.58,0,0,0,5.73,5.72h0a5.57,5.57,0,0,0,5.73-5.72V51.12h-2.9Z"/><path class="cls-16" d="M83.23,61c-.09-.85-.15-1.69-.26-2.54a16.3,16.3,0,0,0-2-5.74.93.93,0,0,0-1.3-.45,1,1,0,0,0-.31,1.34,15,15,0,0,1,1.79,9.56,14.23,14.23,0,0,1-1.81,5.28.93.93,0,0,0,.51,1.39c.44.16.89-.08,1.18-.63A17.61,17.61,0,0,0,83.23,61m-3.86-.49c-.09-.57-.21-1.62-.42-2.65a11.22,11.22,0,0,0-1.42-3.5.91.91,0,0,0-1.44-.14,1,1,0,0,0,0,1.25,11.14,11.14,0,0,1,1.31,7.39A11.49,11.49,0,0,1,76,66.59a1.29,1.29,0,0,0-.17.71.83.83,0,0,0,.71.75.92.92,0,0,0,1-.53,13.94,13.94,0,0,0,1.77-7M75.48,61a8.9,8.9,0,0,0-1.29-4.8,1,1,0,0,0-1-.54c-.49.11-.8.39-.78.87a2.2,2.2,0,0,0,.33.89,7.5,7.5,0,0,1-.22,7.49.91.91,0,0,0,.8,1.39,1,1,0,0,0,.87-.6A8.81,8.81,0,0,0,75.48,61m-3.56-.09c0-.11,0-.31-.06-.52a5.25,5.25,0,0,0-1-2.62.92.92,0,1,0-1.49,1.08,3.66,3.66,0,0,1,0,4.28.92.92,0,0,0,.17,1.34.94.94,0,0,0,1.32-.27,5.78,5.78,0,0,0,1-3.29"/><path class="cls-17" d="M83.23,61a17.61,17.61,0,0,1-2.16,8.21c-.29.55-.74.79-1.18.63a.93.93,0,0,1-.51-1.39,14.23,14.23,0,0,0,1.81-5.28,15,15,0,0,0-1.79-9.56,1,1,0,0,1,.31-1.34.93.93,0,0,1,1.3.45,16.3,16.3,0,0,1,2,5.74A19,19,0,0,1,83.23,61"/><path class="cls-17" d="M79.37,60.48a13.94,13.94,0,0,1-1.77,7,.92.92,0,0,1-1,.53.82.82,0,0,1-.71-.75,1.29,1.29,0,0,1,.17-.71,11.49,11.49,0,0,0,1.33-3.76,11.14,11.14,0,0,0-1.31-7.39,1,1,0,0,1,0-1.25.91.91,0,0,1,1.44.14A11.22,11.22,0,0,1,79,57.83a11.54,11.54,0,0,1,.42,2.65"/><path class="cls-17" d="M75.48,61a8.81,8.81,0,0,1-1.25,4.7,1,1,0,0,1-.87.6.91.91,0,0,1-.8-1.39,7.5,7.5,0,0,0,.22-7.49,2.06,2.06,0,0,1-.33-.89c0-.48.29-.76.77-.87a1,1,0,0,1,1,.54A8.9,8.9,0,0,1,75.48,61"/><path class="cls-17" d="M71.92,60.91a5.78,5.78,0,0,1-1,3.29.94.94,0,0,1-1.32.27.92.92,0,0,1-.17-1.34,3.66,3.66,0,0,0,0-4.28.92.92,0,1,1,1.49-1.08,5.25,5.25,0,0,1,1,2.62c0,.21,0,.41.06.52"/><g class="cls-18"><path class="cls-16" d="M179.06-6.2c-.08,0-.15,0-.15.1V11.22c0,.06.07.1.15.1s.14,0,.14-.1V-6.1C179.2-6.16,179.13-6.2,179.06-6.2Zm27.07,0c-.09,0-.15,0-.15.1V11.22c0,.06.06.1.15.1s.14,0,.14-.1V-6.1C206.27-6.16,206.2-6.2,206.13-6.2ZM16.64-6.2c-.08,0-.14,0-.14.1V11.22c0,.06.06.1.14.1s.14,0,.14-.1V-6.1C16.78-6.16,16.72-6.2,16.64-6.2Zm27.07,0c-.08,0-.14,0-.14.1V11.22c0,.06.06.1.14.1s.14,0,.14-.1V-6.1C43.85-6.16,43.79-6.2,43.71-6.2Zm27.07,0c-.08,0-.15,0-.15.1V11.22c0,.06.07.1.15.1s.14,0,.14-.1V-6.1C70.92-6.16,70.86-6.2,70.78-6.2Zm27.07,0c-.08,0-.15,0-.15.1V11.22c0,.06.07.1.15.1s.14,0,.14-.1V-6.1C98-6.16,97.93-6.2,97.85-6.2Zm27.07,0c-.08,0-.15,0-.15.1V11.22c0,.06.07.1.15.1s.14,0,.14-.1V-6.1C125.06-6.16,125-6.2,124.92-6.2ZM152-6.2c-.08,0-.15,0-.15.1V11.22c0,.06.07.1.15.1s.14,0,.14-.1V-6.1C152.13-6.16,152.07-6.2,152-6.2Z"/><path class="cls-16" d="M206,16.24h-.37l1.19-3.11h-1.19v.54h-.35v-.84h1.9v.3Z"/><path class="cls-16" d="M17.58,15.72a.75.75,0,0,1-.2.29.7.7,0,0,1-.29.19.94.94,0,0,1-.37.07,1,1,0,0,1-.38-.07.7.7,0,0,1-.29-.19.88.88,0,0,1-.2-.29,1,1,0,0,1-.07-.39V13.74a1,1,0,0,1,.07-.39.93.93,0,0,1,.2-.3.79.79,0,0,1,.29-.18,1,1,0,0,1,.38-.08,1,1,0,0,1,.37.08.83.83,0,0,1,.49.48,1,1,0,0,1,.07.39v1.59A1,1,0,0,1,17.58,15.72Zm-.27-2a.72.72,0,0,0-.15-.47.57.57,0,0,0-.44-.19.54.54,0,0,0-.44.19.67.67,0,0,0-.15.47v1.55a.67.67,0,0,0,.15.47.53.53,0,0,0,.44.18.56.56,0,0,0,.44-.18.72.72,0,0,0,.15-.47Z"/><path class="cls-16" d="M43.77,16.24v-3l-.64.56v-.39l.64-.55h.35v3.41Z"/><path class="cls-16" d="M69.93,16.24v-.3l1.35-1.72a1,1,0,0,0,.14-.24.75.75,0,0,0,0-.26.61.61,0,0,0-.16-.45.57.57,0,0,0-.44-.17.62.62,0,0,0-.23,0,.42.42,0,0,0-.18.11.55.55,0,0,0-.14.19.79.79,0,0,0,0,.28h-.35a.94.94,0,0,1,.07-.37.85.85,0,0,1,.48-.48,1,1,0,0,1,.39-.08,1.23,1.23,0,0,1,.39.07,1,1,0,0,1,.3.19.92.92,0,0,1,.19.28,1.23,1.23,0,0,1,.06.39,1,1,0,0,1-.06.36,2.21,2.21,0,0,1-.21.33l-1.2,1.53h1.47v.3Z"/><path class="cls-16" d="M98.8,15.73a.81.81,0,0,1-.21.3.92.92,0,0,1-.32.18,1.07,1.07,0,0,1-.39.07,1.16,1.16,0,0,1-.38-.06.88.88,0,0,1-.32-.16.83.83,0,0,1-.21-.28,1,1,0,0,1-.1-.41h.35a.54.54,0,0,0,.07.27.4.4,0,0,0,.14.19.61.61,0,0,0,.21.11.88.88,0,0,0,.24,0,.67.67,0,0,0,.46-.17.63.63,0,0,0,.19-.49.69.69,0,0,0-.16-.49.64.64,0,0,0-.51-.17h-.07v-.31h.07a.57.57,0,0,0,.46-.17.64.64,0,0,0,.15-.45.6.6,0,0,0-.17-.46.6.6,0,0,0-.42-.16.62.62,0,0,0-.44.15.68.68,0,0,0-.18.42h-.34A.88.88,0,0,1,97,13.3a.83.83,0,0,1,.21-.28.92.92,0,0,1,.29-.17,1.06,1.06,0,0,1,.37-.06,1.22,1.22,0,0,1,.38.07,1,1,0,0,1,.3.19.77.77,0,0,1,.19.29,1.12,1.12,0,0,1,.07.38.75.75,0,0,1-.47.75.81.81,0,0,1,.53.84A1.08,1.08,0,0,1,98.8,15.73Z"/><path class="cls-16" d="M125.64,15.7v.54h-.34V15.7h-1.37v-.31l1.24-2.56h.37l-1.24,2.56h1v-1h.34v1h.42v.31Z"/><path class="cls-16" d="M153,15.6a.73.73,0,0,1-.23.42.92.92,0,0,1-.28.19,1.19,1.19,0,0,1-.4.07,1.24,1.24,0,0,1-.4-.07.71.71,0,0,1-.29-.18.63.63,0,0,1-.16-.26,1.14,1.14,0,0,1-.08-.33h.35a.7.7,0,0,0,.17.4.61.61,0,0,0,.41.13.54.54,0,0,0,.42-.16.42.42,0,0,0,.11-.15.84.84,0,0,0,.05-.17l0-.19v-.19c0-.1,0-.2,0-.3a1.07,1.07,0,0,0-.08-.27.45.45,0,0,0-.18-.18.51.51,0,0,0-.3-.08.7.7,0,0,0-.37.1.45.45,0,0,0-.19.24h-.31V12.83H153v.3h-1.41v1.08a.65.65,0,0,1,.25-.17,1,1,0,0,1,.36-.06.9.9,0,0,1,.34.06.62.62,0,0,1,.25.15,1.37,1.37,0,0,1,.15.21.92.92,0,0,1,.09.23,2,2,0,0,1,0,.24c0,.08,0,.16,0,.24A2.46,2.46,0,0,1,153,15.6Z"/><path class="cls-16" d="M180,15.66a.78.78,0,0,1-.19.32,1,1,0,0,1-1.08.22.69.69,0,0,1-.3-.2.81.81,0,0,1-.19-.31,1,1,0,0,1-.07-.4,1.57,1.57,0,0,1,.05-.37,2.5,2.5,0,0,1,.17-.4l.84-1.69h.35l-.76,1.53a1,1,0,0,1,.36-.07,1,1,0,0,1,.36.07,1,1,0,0,1,.28.2.87.87,0,0,1,.18.31,1.23,1.23,0,0,1,.07.39A1.29,1.29,0,0,1,180,15.66ZM179.7,15a.53.53,0,0,0-.11-.21.58.58,0,0,0-.45-.21.57.57,0,0,0-.44.19.74.74,0,0,0-.16.51.75.75,0,0,0,.16.5.56.56,0,0,0,.44.18.54.54,0,0,0,.43-.18.71.71,0,0,0,.17-.5A.86.86,0,0,0,179.7,15Z"/><rect class="cls-16" x="19.26" y="-4.93" width="0.24" height="11.21"/><rect class="cls-16" x="21.97" y="-4.93" width="0.24" height="11.21"/><rect class="cls-16" x="24.67" y="-4.93" width="0.24" height="11.21"/><rect class="cls-16" x="27.38" y="-4.93" width="0.24" height="11.21"/><rect class="cls-16" x="30.08" y="-4.93" width="0.24" height="14.09"/><rect class="cls-16" x="32.79" y="-4.93" width="0.24" height="11.21"/><rect class="cls-16" x="35.49" y="-4.93" width="0.24" height="11.21"/><rect class="cls-16" x="38.2" y="-4.93" width="0.24" height="11.21"/><rect class="cls-16" x="40.9" y="-4.93" width="0.24" height="11.21"/><rect class="cls-16" x="46.32" y="-4.93" width="0.24" height="11.21"/><rect class="cls-16" x="49.03" y="-4.93" width="0.24" height="11.21"/><rect class="cls-16" x="51.73" y="-4.93" width="0.24" height="11.21"/><rect class="cls-16" x="54.44" y="-4.93" width="0.24" height="11.21"/><rect class="cls-16" x="57.14" y="-4.93" width="0.24" height="14.09"/><rect class="cls-16" x="59.85" y="-4.93" width="0.24" height="11.21"/><rect class="cls-16" x="62.55" y="-4.93" width="0.24" height="11.21"/><rect class="cls-16" x="65.26" y="-4.93" width="0.24" height="11.21"/><rect class="cls-16" x="67.96" y="-4.93" width="0.24" height="11.21"/><rect class="cls-16" x="73.39" y="-4.93" width="0.24" height="11.21"/><rect class="cls-16" x="76.09" y="-4.93" width="0.24" height="11.21"/><rect class="cls-16" x="78.79" y="-4.93" width="0.24" height="11.21"/><rect class="cls-16" x="81.5" y="-4.93" width="0.24" height="11.21"/><rect class="cls-16" x="84.2" y="-4.93" width="0.24" height="14.09"/><rect class="cls-16" x="86.91" y="-4.93" width="0.24" height="11.21"/><rect class="cls-16" x="89.62" y="-4.93" width="0.24" height="11.21"/><rect class="cls-16" x="92.32" y="-4.93" width="0.24" height="11.21"/><rect class="cls-16" x="95.02" y="-4.93" width="0.24" height="11.21"/><rect class="cls-16" x="100.44" y="-4.93" width="0.24" height="11.21"/><rect class="cls-16" x="103.15" y="-4.93" width="0.24" height="11.21"/><rect class="cls-16" x="105.85" y="-4.93" width="0.24" height="11.21"/><rect class="cls-16" x="108.56" y="-4.93" width="0.24" height="11.21"/><rect class="cls-16" x="111.26" y="-4.93" width="0.24" height="14.09"/><rect class="cls-16" x="113.97" y="-4.93" width="0.24" height="11.21"/><rect class="cls-16" x="116.67" y="-4.93" width="0.24" height="11.21"/><rect class="cls-16" x="119.38" y="-4.93" width="0.24" height="11.21"/><rect class="cls-16" x="122.08" y="-4.93" width="0.24" height="11.21"/><rect class="cls-16" x="127.5" y="-4.93" width="0.24" height="11.21"/><rect class="cls-16" x="130.21" y="-4.93" width="0.24" height="11.21"/><rect class="cls-16" x="132.91" y="-4.93" width="0.24" height="11.21"/><rect class="cls-16" x="135.62" y="-4.93" width="0.24" height="11.21"/><rect class="cls-16" x="138.32" y="-4.93" width="0.24" height="14.09"/><rect class="cls-16" x="141.03" y="-4.93" width="0.24" height="11.21"/><rect class="cls-16" x="143.74" y="-4.93" width="0.24" height="11.21"/><rect class="cls-16" x="146.44" y="-4.93" width="0.24" height="11.21"/><rect class="cls-16" x="149.15" y="-4.93" width="0.24" height="11.21"/><rect class="cls-16" x="154.56" y="-4.93" width="0.24" height="11.21"/><rect class="cls-16" x="157.27" y="-4.93" width="0.24" height="11.21"/><rect class="cls-16" x="159.97" y="-4.93" width="0.24" height="11.21"/><rect class="cls-16" x="162.68" y="-4.93" width="0.24" height="11.21"/><rect class="cls-16" x="165.39" y="-4.93" width="0.24" height="14.09"/><rect class="cls-16" x="168.09" y="-4.93" width="0.24" height="11.21"/><rect class="cls-16" x="170.8" y="-4.93" width="0.24" height="11.21"/><rect class="cls-16" x="173.5" y="-4.93" width="0.24" height="11.21"/><rect class="cls-16" x="176.2" y="-4.93" width="0.24" height="11.21"/><rect class="cls-16" x="181.63" y="-4.93" width="0.24" height="11.21"/><rect class="cls-16" x="184.33" y="-4.93" width="0.24" height="11.21"/><rect class="cls-16" x="187.03" y="-4.93" width="0.24" height="11.21"/><rect class="cls-16" x="189.74" y="-4.93" width="0.24" height="11.21"/><rect class="cls-16" x="192.44" y="-4.93" width="0.24" height="14.09"/><rect class="cls-16" x="195.15" y="-4.93" width="0.24" height="11.21"/><rect class="cls-16" x="197.86" y="-4.93" width="0.24" height="11.21"/><rect class="cls-16" x="200.56" y="-4.93" width="0.24" height="11.21"/><rect class="cls-16" x="203.26" y="-4.93" width="0.24" height="11.21"/><rect class="cls-16" x="208.69" y="-4.93" width="0.24" height="11.21"/><rect class="cls-16" x="211.39" y="-4.93" width="0.24" height="11.21"/><rect class="cls-16" x="214.09" y="-4.93" width="0.24" height="11.21"/><rect class="cls-16" x="216.8" y="-4.93" width="0.24" height="11.21"/><rect class="cls-16" x="219.5" y="-4.93" width="0.24" height="14.09"/></g><polygon class="cls-16" points="188.14 131.35 190.62 116 194.58 116 192.1 131.35 188.14 131.35"/><path class="cls-16" d="M206.48,116.38a9.82,9.82,0,0,0-3.56-.65c-3.91,0-6.67,2.09-6.7,5.07,0,2.21,2,3.44,3.48,4.17s2.06,1.23,2.05,1.9c0,1-1.23,1.51-2.37,1.51a8,8,0,0,1-3.73-.81l-.51-.24-.56,3.43a12,12,0,0,0,4.42.82c4.17,0,6.87-2.06,6.9-5.24,0-1.75-1-3.08-3.33-4.17-1.38-.72-2.23-1.19-2.22-1.91s.72-1.32,2.27-1.32a7,7,0,0,1,3,.59l.35.18.54-3.33"/><path class="cls-16" d="M216.64,116h-3.06a2,2,0,0,0-2.08,1.27l-5.88,14.06h4.16l.83-2.3h5.08l.48,2.29h3.68L216.64,116m-4.89,9.89c.33-.88,1.58-4.29,1.58-4.29s.33-.89.53-1.46l.26,1.32s.77,3.66.92,4.43Z"/><path class="cls-16" d="M184.82,116l-3.88,10.46-.42-2.13a11.75,11.75,0,0,0-5.49-6.43l3.55,13.42h4.19L189,116h-4.2"/><path class="cls-16" d="M177.34,116H171l-.06.32c5,1.28,8.26,4.34,9.63,8l-1.39-7a1.67,1.67,0,0,0-1.79-1.3"/><path class="cls-16" d="M203.6,138.5v.27c0,.28,0,.53,0,.74a2.23,2.23,0,0,1-.15.63,1.54,1.54,0,0,1-.36.55,1.83,1.83,0,0,1-1.36.49h-1.86v-5.29h1.86a1.84,1.84,0,0,1,1.36.5,1.66,1.66,0,0,1,.36.53,2.2,2.2,0,0,1,.15.6c0,.2,0,.44,0,.71Zm-.8,0c0-.31,0-.55,0-.71a2.31,2.31,0,0,0-.08-.47,1,1,0,0,0-.19-.36,1.19,1.19,0,0,0-.9-.35h-1v3.84h1a1.16,1.16,0,0,0,.9-.36,1,1,0,0,0,.23-.56A8.51,8.51,0,0,0,202.8,138.51Z"/><path class="cls-16" d="M208.17,141.18h-3.39v-5.29h3.39v.73h-2.58v1.54h2.2v.71h-2.2v1.59h2.58Z"/><path class="cls-16" d="M213,139.69a1.57,1.57,0,0,1-.2.81,1.28,1.28,0,0,1-.57.51,1.87,1.87,0,0,1-.83.17h-2.15v-5.29h2.07a1.89,1.89,0,0,1,.84.18,1.36,1.36,0,0,1,.56.5,1.49,1.49,0,0,1,.19.77,1.25,1.25,0,0,1-.1.51,1,1,0,0,1-.26.38.92.92,0,0,1-.35.23,1.25,1.25,0,0,1,.57.45A1.31,1.31,0,0,1,213,139.69Zm-.89-2.32a.7.7,0,0,0-.41-.67,1.25,1.25,0,0,0-.45-.08h-1.19v1.51h1.19a1,1,0,0,0,.63-.2A.71.71,0,0,0,212.12,137.37Zm.08,2.28a.82.82,0,0,0-.1-.42.66.66,0,0,0-.3-.27.87.87,0,0,0-.46-.11h-1.27v1.61h1.27a1,1,0,0,0,.46-.1.76.76,0,0,0,.3-.29A.82.82,0,0,0,212.2,139.65Z"/><path class="cls-16" d="M215,141.18h-.81v-5.29H215Z"/><path class="cls-16" d="M219.62,136.62h-1.45v4.56h-.81v-4.56h-1.45v-.73h3.71Z"/></g><polygon class="cls-16" points="45.77 63.45 52.82 63.54 52.85 59.04 45.8 58.96 45.77 63.45"/><path class="cls-16" d="M45.75,65.22l0,5.06,4.82,0c1.24,0,2.25-.68,2.25-1.54l0-3.49Z"/><path class="cls-16" d="M43.31,57.17h0l9.55.11,0-3.65c0-.87-1-1.59-2.23-1.6l-14.12-.16-.14,18.31,6.8.07Z"/><path class="cls-16" d="M34,57.07l0-5.23-4.92-.05c-1.24,0-2.24.68-2.25,1.55l0,3.65Z"/><polygon class="cls-16" points="33.99 58.83 26.84 58.76 26.81 63.25 33.96 63.33 33.99 58.83"/><path class="cls-16" d="M34,65.09,26.79,65l0,3.49c0,.87,1,1.58,2.23,1.59l4.92.06Z"/></g></g></svg>