<svg xmlns="http://www.w3.org/2000/svg" xmlns:xlink="http://www.w3.org/1999/xlink" viewBox="0 0 235 150"><defs><style>.cls-1{fill:none;}.cls-2{isolation:isolate;}.cls-3{clip-path:url(#clip-path);}.cls-4{fill:#79bb43;}.cls-5{fill:#732579;}.cls-6{clip-path:url(#clip-path-2);}.cls-10,.cls-11,.cls-12,.cls-7,.cls-8,.cls-9{mix-blend-mode:multiply;}.cls-7{fill:url(#linear-gradient);}.cls-8{fill:url(#linear-gradient-2);}.cls-9{fill:url(#linear-gradient-3);}.cls-11{fill:url(#linear-gradient-4);}.cls-12{fill:url(#linear-gradient-5);}.cls-13{font-size:7.65px;}.cls-13,.cls-14,.cls-15,.cls-16,.cls-17{fill:#fff;}.cls-13,.cls-14{font-family:JeniusSansDraft-Regular, Jenius Sans Draft;}.cls-14{font-size:4.78px;}.cls-15{font-size:13.39px;font-family:JeniusSansDraft-Bold, Jenius Sans Draft;font-weight:700;}.cls-17{fill-rule:evenodd;}.cls-18{clip-path:url(#clip-path-3);}</style><clipPath id="clip-path"><path class="cls-1" d="M223.3,148.2H11.7a9.49,9.49,0,0,1-9.42-9.49V11.29A9.48,9.48,0,0,1,11.7,1.8H223.3a9.48,9.48,0,0,1,9.42,9.49V138.71a9.49,9.49,0,0,1-9.42,9.49"/></clipPath><clipPath id="clip-path-2"><path class="cls-1" d="M11.89,164.6A25.75,25.75,0,0,1-13.8,138.85V11.43A25.75,25.75,0,0,1,11.89-14.32H223.48a25.74,25.74,0,0,1,25.68,25.75V138.85a25.74,25.74,0,0,1-25.68,25.75Z"/></clipPath><linearGradient id="linear-gradient" x1="2882.43" y1="-684.37" x2="3069.74" y2="-500.4" gradientTransform="translate(2964.63 874.05) rotate(-154.49)" gradientUnits="userSpaceOnUse"><stop offset="0" stop-color="#f9a823"/><stop offset="0.99" stop-color="#f9a823" stop-opacity="0"/></linearGradient><linearGradient id="linear-gradient-2" x1="2981.19" y1="-360.85" x2="2886.89" y2="-256.95" gradientTransform="translate(2806.47 1129.36) rotate(-152.23)" xlink:href="#linear-gradient"/><linearGradient id="linear-gradient-3" x1="3053.29" y1="-672.09" x2="3077.25" y2="-423.88" xlink:href="#linear-gradient"/><linearGradient id="linear-gradient-4" x1="3697.31" y1="-651.32" x2="3708.85" y2="-466.7" gradientTransform="translate(3716.99 -294.84) rotate(-176.42)" xlink:href="#linear-gradient"/><linearGradient id="linear-gradient-5" x1="3696.78" y1="-648.33" x2="3708.32" y2="-463.71" gradientTransform="translate(3716.99 -294.84) rotate(-176.42)" gradientUnits="userSpaceOnUse"><stop offset="0" stop-color="#7aba43"/><stop offset="0.99" stop-color="#7aba43" stop-opacity="0"/></linearGradient><clipPath id="clip-path-3"><rect class="cls-1" x="15" y="-3.25" width="206.14" height="24.12"/></clipPath></defs><title>x-card-ungu</title><g class="cls-2"><g id="Layer_1" data-name="Layer 1"><g class="cls-3"><path class="cls-4" d="M11.7,164.46A25.74,25.74,0,0,1-14,138.71V11.29A25.74,25.74,0,0,1,11.7-14.46H223.3A25.74,25.74,0,0,1,249,11.29V138.71a25.74,25.74,0,0,1-25.68,25.75Z"/><path class="cls-5" d="M11.7,164.46A25.74,25.74,0,0,1-14,138.71V11.29A25.74,25.74,0,0,1,11.7-14.46H223.3A25.74,25.74,0,0,1,249,11.29V138.71a25.74,25.74,0,0,1-25.68,25.75Z"/><g class="cls-6"><path class="cls-7" d="M-65.89,50.52A89.63,89.63,0,0,0-69.65,66a79.68,79.68,0,0,0-.8,16.77c0,.1.38,3.67.38,3.67s.35,2.48.45,3.22A72.12,72.12,0,0,0-57,119.86a49.2,49.2,0,0,0,3.87,4.68,81.61,81.61,0,0,0,10.28,10q3.18,2.61,6.69,5A107,107,0,0,0-10.62,152l5,1.69c2.89-.86,5.86-1.86,8.49-2.8a104.58,104.58,0,0,0,15.39-6.42c.37-.2,3.14-1.63,4.9-2.67A103.37,103.37,0,0,0,69.13,85.48a103.39,103.39,0,0,0,5.23-41.39,74.51,74.51,0,0,0-4.56-7.78C61,23.13,47.4,11.93,28.34,5.47-7.94-6.85-51.88,9.27-65.89,50.52ZM27.34,15.34c22.39,7.6,37.27,31.1,36,59.07a79.5,79.5,0,0,1-4.23,22.07C49.49,124.89,21.77,142.1-5.66,136.4a50.31,50.31,0,0,1-6.27-1.7c-31-10.51-44.58-49.08-35.36-76.26C-34.81,21.69-4,4.69,27.34,15.34Z"/><path class="cls-8" d="M42.48-46.14a88.17,88.17,0,0,1,10.61,2.9C95.71-28.78,126.71,27.68,109.3,79c-8.48,25-24.74,47.27-50.14,57.39h0c-2.18,2.57-4.77,5.58-5.93,6.79h0A90.53,90.53,0,0,1,37.1,156.93l-.84.57c44-3.73,84.79-31.65,98.7-72.6C156.5,21.41,115.31-34.91,50.13-57c-10.7-3.64-21.71-4.73-32.05-5.54A89.81,89.81,0,0,1,42.48-46.14Z"/><path class="cls-9" d="M-158,4.12c-22.8,67.18,12.29,139.43,85.5,164.27,24.23,8.22,60,10.55,91.25-1.92a104.38,104.38,0,0,0,17.54-9,89.44,89.44,0,0,0,17-14.36h0c1.16-1.21,3.75-4.22,5.93-6.79,1.92-2.26,3.52-4.17,3.52-4.17h0A87.65,87.65,0,0,0,74.86,112a100.22,100.22,0,0,0,4.81-11.69C98.44,45,83.78-11.13,42.7-45.93l-.25-.22h0a89.81,89.81,0,0,0-24.4-16.43H18l-.36-.18A146.24,146.24,0,0,0-3.26-71.68C-64.78-92.56-135.91-61.06-158,4.12Zm83.41-56.07a115.13,115.13,0,0,1,21.79-7,99.92,99.92,0,0,1,28.32-2.28c2.85.16,8.39.81,8.5.82h0a99,99,0,0,1,17.6,4.35,101.66,101.66,0,0,1,17.6,7.86h0c26.18,15,44.19,41.07,51.55,69.15a111.94,111.94,0,0,1,3.61,23.22l0-.05a103.44,103.44,0,0,1-5.21,41.4,103.39,103.39,0,0,1-45,55.71c-1.23.72-3,1.81-6.41,3.52a103.36,103.36,0,0,1-14.8,6.12c-3.16,1.13-6.81,2.35-10.23,3.3a115.93,115.93,0,0,1-70.48-.75c-54.89-18.62-78.71-84.84-62.16-133.61A119.73,119.73,0,0,1-74.62-51.95Z"/><g class="cls-10"><path class="cls-11" d="M-33.23,120.44c.84.8,4.52,4.09,4.52,4.09a51.7,51.7,0,0,1-3.87-4.67h0A72.21,72.21,0,0,1-45.22,89.7c-.11-.74-.45-3.22-.45-3.22h0C-55.55,66-57.84,41.14-48.94,14.87-38-17.19-7.07-40.3,27.44-46.57a105.5,105.5,0,0,1,16.07-1.67h.1A101.66,101.66,0,0,0,26-56.11a99,99,0,0,0-17.6-4.35h0a113,113,0,0,0-27.08,9.69C-40.76-39.32-57.8-20.5-65.75,2.91-86.07,62.79-47,107.19-33.23,120.44Z"/></g><g class="cls-10"><path class="cls-12" d="M-32.52,117.49c.85.8,4.53,4.09,4.53,4.09a50,50,0,0,1-3.87-4.67h0A72,72,0,0,1-44.5,86.75c-.11-.74-.45-3.21-.45-3.21h0C-54.84,63-57.13,38.19-48.22,11.92-37.33-20.14-6.35-43.25,28.16-49.52a106.77,106.77,0,0,1,16.07-1.66h.09a101.36,101.36,0,0,0-17.6-7.87A100,100,0,0,0,9.13-63.41h0a113,113,0,0,0-27.08,9.69C-40-42.27-57.09-23.45-65,0-85.36,59.84-46.25,104.24-32.52,117.49Z"/></g></g><text class="cls-13" transform="translate(83.22 112.25)">04/18</text><text class="cls-14" transform="translate(24.43 102.48)">1234</text><text class="cls-14" transform="translate(84.34 103.02)">VALID THRU</text><text class="cls-15" transform="translate(24.59 93.94)"><tspan xml:space="preserve">1234    5678    1234    5678 </tspan></text><path class="cls-16" d="M199,36c0-5.57-4.43-10-10.49-10a10.47,10.47,0,0,0-7.81,3.55,8.91,8.91,0,0,0-5.49,7.89c0,5.25,4.48,8.4,9.87,8.4a10.22,10.22,0,0,0,2.53-.4,11.85,11.85,0,0,0,1.81.14A9.59,9.59,0,0,0,199,36Zm-9.72-9.06c4.55,0,8,4.31,8,8.35a9.16,9.16,0,0,1-7.19,9.08A7.69,7.69,0,0,0,194,37.79c0-6-5.81-8.1-5.81-8.1a7.59,7.59,0,0,0-3.85-1h-.41A9.09,9.09,0,0,1,189.25,26.93Zm-4.42,3a4.89,4.89,0,0,1,4.55,4.77c0,3-1.86,5.09-4.46,5.09-2.33,0-4.41-2.16-4.41-5.23A4.46,4.46,0,0,1,184.83,30Zm-.34,14.86c-3.53,0-7.26-3.41-7.26-7.66a7.09,7.09,0,0,1,2.3-5.55,6.55,6.55,0,0,0-.58,2.22c0,.33,0,.65,0,1a10.34,10.34,0,0,0,6.45,9.94A6.22,6.22,0,0,1,184.49,44.83Zm2.64-.48a8.93,8.93,0,0,1-6.42-5.47,6.11,6.11,0,0,0,4.38,1.71A5.78,5.78,0,0,0,191,34.87a6.36,6.36,0,0,0-.59-2.78,7.33,7.33,0,0,1,2,5.24A7.88,7.88,0,0,1,187.13,44.35ZM154.42,65.8c0,2-1.23,3-3.85,3.12v3c3,0,6.74-1.62,6.74-6.08V51.32h-2.89Zm17.11-8.24c0-2.3-1.25-6.52-5.9-6.52-4.41,0-5.92,3.7-5.92,7.53s1.53,7.53,6.6,7.53a8.55,8.55,0,0,0,5.11-1.76L170,62a6.85,6.85,0,0,1-3.64,1.21,3.4,3.4,0,0,1-3.53-3.12h6.09C170.69,60.13,171.53,59.42,171.53,57.56Zm-8.78-.27c.19-1.81,1-3.4,2.88-3.4s2.68,1.59,2.86,3.4Zm16.67-6.24a6.85,6.85,0,0,0-5.48,3v11.9h2.91V55a3.44,3.44,0,0,1,2.57-1.1,2.82,2.82,0,0,1,2.84,2.85v9.19h2.9V56.74A5.55,5.55,0,0,0,179.42,51.05Zm9,14.88h2.9V51.21h-2.9ZM213.22,57h0c-1-.27-2.27-.76-2.27-1.78,0-.73.77-1.34,2.22-1.34a9.83,9.83,0,0,1,3.72,1l.93-2.6a11.25,11.25,0,0,0-4.65-1.2c-2.51,0-5.15,1.28-5.15,4.18,0,2.68,2.36,4,4.69,4.6,1.25.28,2.84.8,2.84,1.83s-1.29,1.59-2.54,1.59a10.61,10.61,0,0,1-4.21-1.48l-1.13,2.71A12.17,12.17,0,0,0,213,66.1c2.64,0,5.44-1.26,5.44-4.44S215.41,57.56,213.22,57ZM202.91,60.4a2.84,2.84,0,1,1-5.67,0V51.21h-2.9V60.4a5.56,5.56,0,0,0,5.71,5.7h0a5.56,5.56,0,0,0,5.71-5.7V51.21h-2.89Z"/><path class="cls-16" d="M83.37,61c-.08-.84-.15-1.68-.26-2.52a16,16,0,0,0-2-5.72.94.94,0,0,0-1.3-.45,1,1,0,0,0-.3,1.34,14.89,14.89,0,0,1,1.78,9.52,14.3,14.3,0,0,1-1.8,5.26.93.93,0,0,0,.5,1.38c.44.16.89-.08,1.18-.63A17.53,17.53,0,0,0,83.37,61m-3.84-.48c-.09-.57-.21-1.61-.42-2.63a10.84,10.84,0,0,0-1.42-3.49.9.9,0,0,0-1.43-.15,1,1,0,0,0,0,1.26,11.08,11.08,0,0,1,1.31,7.35,11.52,11.52,0,0,1-1.33,3.75,1.23,1.23,0,0,0-.16.7.81.81,0,0,0,.7.75.91.91,0,0,0,1-.53,14,14,0,0,0,1.77-7m-3.88.51a8.9,8.9,0,0,0-1.28-4.77,1,1,0,0,0-1-.54c-.48.11-.79.39-.77.86a2.08,2.08,0,0,0,.32.89,7.23,7.23,0,0,1,.86,2.82A7.43,7.43,0,0,1,72.74,65a.9.9,0,0,0,.8,1.37.92.92,0,0,0,.86-.59,8.78,8.78,0,0,0,1.25-4.69M72.1,61l0-.52a5.26,5.26,0,0,0-1-2.61.9.9,0,0,0-1.32-.25.92.92,0,0,0-.16,1.33,3.66,3.66,0,0,1,0,4.26.91.91,0,1,0,1.48,1.06,5.61,5.61,0,0,0,1-3.27"/><path class="cls-17" d="M83.37,61a17.53,17.53,0,0,1-2.15,8.18c-.29.55-.74.79-1.18.63a.93.93,0,0,1-.5-1.38,14.3,14.3,0,0,0,1.8-5.26,14.89,14.89,0,0,0-1.78-9.52,1,1,0,0,1,.3-1.34.94.94,0,0,1,1.3.45,16,16,0,0,1,2,5.72A18.86,18.86,0,0,1,83.37,61"/><path class="cls-17" d="M79.53,60.54a14,14,0,0,1-1.77,7,.91.91,0,0,1-1,.53.8.8,0,0,1-.7-.75,1.23,1.23,0,0,1,.16-.7,11.52,11.52,0,0,0,1.33-3.75,11.08,11.08,0,0,0-1.31-7.35,1,1,0,0,1,0-1.26.9.9,0,0,1,1.43.15,10.51,10.51,0,0,1,1.41,3.49,10.91,10.91,0,0,1,.43,2.63"/><path class="cls-17" d="M75.65,61.05a8.78,8.78,0,0,1-1.25,4.69.92.92,0,0,1-.86.59.9.9,0,0,1-.8-1.37,7.43,7.43,0,0,0,1.08-4.65A7.23,7.23,0,0,0,73,57.49a2.08,2.08,0,0,1-.32-.89.84.84,0,0,1,.76-.86,1,1,0,0,1,1,.54,8.9,8.9,0,0,1,1.28,4.77"/><path class="cls-17" d="M72.1,61a5.61,5.61,0,0,1-1,3.27.91.91,0,1,1-1.48-1.06,3.66,3.66,0,0,0,0-4.26.92.92,0,0,1,.16-1.33.9.9,0,0,1,1.32.25,5.26,5.26,0,0,1,1,2.61l0,.52"/><g class="cls-18"><path class="cls-16" d="M178.8-5.86c-.08,0-.14,0-.14.09V11.49s.06.1.14.1.14-.05.14-.1V-5.77C178.94-5.82,178.88-5.86,178.8-5.86Zm27,0c-.08,0-.15,0-.15.09V11.49s.07.1.15.1.14-.05.14-.1V-5.77C205.9-5.82,205.84-5.86,205.76-5.86Zm-188.7,0c-.08,0-.15,0-.15.09V11.49s.07.1.15.1.14-.05.14-.1V-5.77C17.2-5.82,17.14-5.86,17.06-5.86Zm27,0c-.08,0-.14,0-.14.09V11.49s.06.1.14.1.14-.05.14-.1V-5.77C44.15-5.82,44.09-5.86,44-5.86Zm27,0c-.08,0-.14,0-.14.09V11.49s.06.1.14.1.14-.05.14-.1V-5.77C71.11-5.82,71.05-5.86,71-5.86Zm27,0c-.08,0-.15,0-.15.09V11.49s.07.1.15.1.14-.05.14-.1V-5.77C98.07-5.82,98-5.86,97.93-5.86Zm27,0c-.08,0-.15,0-.15.09V11.49s.07.1.15.1.14-.05.14-.1V-5.77C125-5.82,125-5.86,124.89-5.86Zm27,0c-.09,0-.15,0-.15.09V11.49s.06.1.15.1.14-.05.14-.1V-5.77C152-5.82,151.92-5.86,151.85-5.86Z"/><path class="cls-16" d="M205.66,16.49h-.36l1.18-3.1h-1.19v.53H205v-.84h1.89v.31Z"/><path class="cls-16" d="M18,16a1,1,0,0,1-.19.29,1.17,1.17,0,0,1-.3.19,1,1,0,0,1-.74,0,1,1,0,0,1-.29-.19.72.72,0,0,1-.2-.29,1,1,0,0,1-.07-.39V14a.92.92,0,0,1,.07-.38.69.69,0,0,1,.2-.3.81.81,0,0,1,.29-.19,1,1,0,0,1,.74,0,1,1,0,0,1,.3.19.91.91,0,0,1,.19.3.92.92,0,0,1,.07.38v1.59A1,1,0,0,1,18,16Zm-.27-2a.69.69,0,0,0-.15-.46.6.6,0,0,0-.88,0,.69.69,0,0,0-.15.46v1.55a.73.73,0,0,0,.15.47.63.63,0,0,0,.88,0,.73.73,0,0,0,.15-.47Z"/><path class="cls-16" d="M44.07,16.49v-3l-.63.56v-.39l.63-.55h.35v3.41Z"/><path class="cls-16" d="M70.12,16.49v-.31l1.35-1.71a1,1,0,0,0,.14-.24.75.75,0,0,0,0-.26.64.64,0,0,0-.16-.45.55.55,0,0,0-.44-.16.78.78,0,0,0-.22,0,.45.45,0,0,0-.19.11.58.58,0,0,0-.13.2.74.74,0,0,0,0,.28h-.34a.87.87,0,0,1,.07-.37.75.75,0,0,1,.18-.3.91.91,0,0,1,.3-.19,1.12,1.12,0,0,1,.38-.07.94.94,0,0,1,.39.07.79.79,0,0,1,.29.18.84.84,0,0,1,.2.29A1.16,1.16,0,0,1,72,14a1,1,0,0,1-.06.36,2.21,2.21,0,0,1-.21.33l-1.19,1.52H72v.31Z"/><path class="cls-16" d="M98.88,16a1,1,0,0,1-.22.3.81.81,0,0,1-.31.19,1.34,1.34,0,0,1-.4.06,1.5,1.5,0,0,1-.37-.05.85.85,0,0,1-.31-.17.88.88,0,0,1-.22-.28,1,1,0,0,1-.09-.4h.34a.71.71,0,0,0,.07.27.47.47,0,0,0,.15.19.63.63,0,0,0,.2.1.85.85,0,0,0,.23,0,.63.63,0,0,0,.47-.17.61.61,0,0,0,.19-.49.66.66,0,0,0-.16-.48.65.65,0,0,0-.51-.18h-.07v-.3h.07a.57.57,0,0,0,.46-.17.64.64,0,0,0,.15-.45.62.62,0,0,0-.17-.46.65.65,0,0,0-.43-.16.57.57,0,0,0-.43.16.68.68,0,0,0-.18.41H97a1.06,1.06,0,0,1,.09-.36.86.86,0,0,1,.21-.28.77.77,0,0,1,.29-.17,1,1,0,0,1,.36-.06,1,1,0,0,1,.39.07.79.79,0,0,1,.29.18.81.81,0,0,1,.19.29,1,1,0,0,1,.07.38.75.75,0,0,1-.46.75.8.8,0,0,1,.52.84A1.07,1.07,0,0,1,98.88,16Z"/><path class="cls-16" d="M125.61,16v.54h-.35V16h-1.35v-.32l1.22-2.55h.38l-1.24,2.55h1v-1h.35v1H126V16Z"/><path class="cls-16" d="M152.84,15.85a.81.81,0,0,1-.24.42.75.75,0,0,1-.28.18.94.94,0,0,1-.39.07,1,1,0,0,1-.4-.07.71.71,0,0,1-.29-.18.63.63,0,0,1-.16-.26,1,1,0,0,1-.08-.33h.35a.65.65,0,0,0,.17.4.56.56,0,0,0,.41.13.6.6,0,0,0,.42-.15.65.65,0,0,0,.1-.15.48.48,0,0,0,.06-.18c0-.06,0-.12,0-.18v-.19a1.51,1.51,0,0,0,0-.3.66.66,0,0,0-.08-.26.45.45,0,0,0-.17-.19.53.53,0,0,0-.3-.08.62.62,0,0,0-.37.1.45.45,0,0,0-.19.24h-.31V13.08h1.72v.31H151.4v1.07a.65.65,0,0,1,.25-.17,1,1,0,0,1,.36-.06.9.9,0,0,1,.34.06.7.7,0,0,1,.25.15,1.59,1.59,0,0,1,.15.21.9.9,0,0,1,.08.23,2,2,0,0,1,0,.24,1.93,1.93,0,0,1,0,.24A2.56,2.56,0,0,1,152.84,15.85Z"/><path class="cls-16" d="M179.76,15.91a.8.8,0,0,1-.19.32.81.81,0,0,1-.3.21.92.92,0,0,1-.38.08,1.13,1.13,0,0,1-.39-.07,1.1,1.1,0,0,1-.31-.2.87.87,0,0,1-.18-.31,1.07,1.07,0,0,1-.07-.41,1.49,1.49,0,0,1,.05-.36,3,3,0,0,1,.16-.4l.84-1.69h.35l-.76,1.53a.86.86,0,0,1,.36-.07.8.8,0,0,1,.36.07,1,1,0,0,1,.29.2,1,1,0,0,1,.17.31,1,1,0,0,1,.07.39A1.09,1.09,0,0,1,179.76,15.91Zm-.32-.66a.65.65,0,0,0-.11-.22.45.45,0,0,0-.19-.14.59.59,0,0,0-.69.13.82.82,0,0,0,0,1,.53.53,0,0,0,.43.19.55.55,0,0,0,.44-.19.72.72,0,0,0,.16-.5A.8.8,0,0,0,179.44,15.25Z"/><rect class="cls-16" x="19.67" y="-4.6" width="0.24" height="11.16"/><rect class="cls-16" x="22.36" y="-4.6" width="0.24" height="11.16"/><rect class="cls-16" x="25.06" y="-4.6" width="0.24" height="11.16"/><rect class="cls-16" x="27.75" y="-4.6" width="0.24" height="11.16"/><rect class="cls-16" x="30.45" y="-4.6" width="0.24" height="14.03"/><rect class="cls-16" x="33.14" y="-4.6" width="0.24" height="11.16"/><rect class="cls-16" x="35.83" y="-4.6" width="0.24" height="11.16"/><rect class="cls-16" x="38.52" y="-4.6" width="0.24" height="11.16"/><rect class="cls-16" x="41.22" y="-4.6" width="0.24" height="11.16"/><rect class="cls-16" x="46.62" y="-4.6" width="0.24" height="11.16"/><rect class="cls-16" x="49.31" y="-4.6" width="0.24" height="11.16"/><rect class="cls-16" x="52.01" y="-4.6" width="0.24" height="11.16"/><rect class="cls-16" x="54.7" y="-4.6" width="0.24" height="11.16"/><rect class="cls-16" x="57.39" y="-4.6" width="0.24" height="14.03"/><rect class="cls-16" x="60.09" y="-4.6" width="0.24" height="11.16"/><rect class="cls-16" x="62.78" y="-4.6" width="0.24" height="11.16"/><rect class="cls-16" x="65.48" y="-4.6" width="0.24" height="11.16"/><rect class="cls-16" x="68.17" y="-4.6" width="0.24" height="11.16"/><rect class="cls-16" x="73.57" y="-4.6" width="0.24" height="11.16"/><rect class="cls-16" x="76.26" y="-4.6" width="0.24" height="11.16"/><rect class="cls-16" x="78.95" y="-4.6" width="0.24" height="11.16"/><rect class="cls-16" x="81.65" y="-4.6" width="0.24" height="11.16"/><rect class="cls-16" x="84.34" y="-4.6" width="0.24" height="14.03"/><rect class="cls-16" x="87.04" y="-4.6" width="0.24" height="11.16"/><rect class="cls-16" x="89.73" y="-4.6" width="0.24" height="11.16"/><rect class="cls-16" x="92.42" y="-4.6" width="0.24" height="11.16"/><rect class="cls-16" x="95.12" y="-4.6" width="0.24" height="11.16"/><rect class="cls-16" x="100.51" y="-4.6" width="0.24" height="11.16"/><rect class="cls-16" x="103.21" y="-4.6" width="0.24" height="11.16"/><rect class="cls-16" x="105.9" y="-4.6" width="0.24" height="11.16"/><rect class="cls-16" x="108.6" y="-4.6" width="0.24" height="11.16"/><rect class="cls-16" x="111.29" y="-4.6" width="0.24" height="14.03"/><rect class="cls-16" x="113.98" y="-4.6" width="0.24" height="11.16"/><rect class="cls-16" x="116.68" y="-4.6" width="0.24" height="11.16"/><rect class="cls-16" x="119.37" y="-4.6" width="0.24" height="11.16"/><rect class="cls-16" x="122.06" y="-4.6" width="0.24" height="11.16"/><rect class="cls-16" x="127.46" y="-4.6" width="0.24" height="11.16"/><rect class="cls-16" x="130.16" y="-4.6" width="0.24" height="11.16"/><rect class="cls-16" x="132.85" y="-4.6" width="0.24" height="11.16"/><rect class="cls-16" x="135.54" y="-4.6" width="0.24" height="11.16"/><rect class="cls-16" x="138.24" y="-4.6" width="0.24" height="14.03"/><rect class="cls-16" x="140.93" y="-4.6" width="0.24" height="11.16"/><rect class="cls-16" x="143.63" y="-4.6" width="0.24" height="11.16"/><rect class="cls-16" x="146.32" y="-4.6" width="0.24" height="11.16"/><rect class="cls-16" x="149.01" y="-4.6" width="0.24" height="11.16"/><rect class="cls-16" x="154.41" y="-4.6" width="0.24" height="11.16"/><rect class="cls-16" x="157.1" y="-4.6" width="0.24" height="11.16"/><rect class="cls-16" x="159.8" y="-4.6" width="0.24" height="11.16"/><rect class="cls-16" x="162.49" y="-4.6" width="0.24" height="11.16"/><rect class="cls-16" x="165.19" y="-4.6" width="0.24" height="14.03"/><rect class="cls-16" x="167.88" y="-4.6" width="0.24" height="11.16"/><rect class="cls-16" x="170.58" y="-4.6" width="0.24" height="11.16"/><rect class="cls-16" x="173.27" y="-4.6" width="0.24" height="11.16"/><rect class="cls-16" x="175.96" y="-4.6" width="0.24" height="11.16"/><rect class="cls-16" x="181.36" y="-4.6" width="0.24" height="11.16"/><rect class="cls-16" x="184.05" y="-4.6" width="0.24" height="11.16"/><rect class="cls-16" x="186.75" y="-4.6" width="0.24" height="11.16"/><rect class="cls-16" x="189.44" y="-4.6" width="0.24" height="11.16"/><rect class="cls-16" x="192.13" y="-4.6" width="0.24" height="14.03"/><rect class="cls-16" x="194.83" y="-4.6" width="0.24" height="11.16"/><rect class="cls-16" x="197.52" y="-4.6" width="0.24" height="11.16"/><rect class="cls-16" x="200.22" y="-4.6" width="0.24" height="11.16"/><rect class="cls-16" x="202.91" y="-4.6" width="0.24" height="11.16"/><rect class="cls-16" x="208.31" y="-4.6" width="0.24" height="11.16"/><rect class="cls-16" x="211" y="-4.6" width="0.24" height="11.16"/><rect class="cls-16" x="213.69" y="-4.6" width="0.24" height="11.16"/><rect class="cls-16" x="216.39" y="-4.6" width="0.24" height="11.16"/><rect class="cls-16" x="219.08" y="-4.6" width="0.24" height="14.03"/></g><polygon class="cls-16" points="187.85 131.12 190.32 115.83 194.26 115.83 191.79 131.12 187.85 131.12"/><path class="cls-16" d="M206.11,116.21a9.72,9.72,0,0,0-3.54-.64c-3.9,0-6.65,2.07-6.67,5,0,2.2,2,3.42,3.46,4.15s2,1.23,2,1.9c0,1-1.22,1.49-2.36,1.49a7.87,7.87,0,0,1-3.71-.8l-.51-.24-.55,3.42a11.81,11.81,0,0,0,4.39.82c4.15,0,6.85-2,6.88-5.23,0-1.74-1-3.06-3.32-4.15-1.38-.71-2.22-1.18-2.21-1.89s.71-1.32,2.26-1.32a6.94,6.94,0,0,1,2.95.59l.35.17.54-3.31"/><path class="cls-16" d="M216.23,115.85h-3a1.94,1.94,0,0,0-2.06,1.27l-5.87,14h4.15s.67-1.88.83-2.3h5.05c.12.53.48,2.29.48,2.29h3.67l-3.2-15.27m-4.87,9.85c.33-.88,1.57-4.27,1.57-4.27s.33-.89.53-1.46l.26,1.32.92,4.41Z"/><path class="cls-16" d="M184.54,115.85l-3.87,10.42-.41-2.12a11.68,11.68,0,0,0-5.47-6.41l3.54,13.36h4.17l6.22-15.25h-4.18"/><path class="cls-16" d="M177.09,115.83h-6.36l-.06.33c5,1.26,8.23,4.31,9.59,8l-1.38-7a1.68,1.68,0,0,0-1.79-1.29"/><path class="cls-16" d="M203.25,138.24v.27a5.41,5.41,0,0,1,0,.74,2.25,2.25,0,0,1-.15.62,1.4,1.4,0,0,1-.35.54,1.84,1.84,0,0,1-1.36.5H199.5v-5.27h1.85a1.84,1.84,0,0,1,1.36.5,1.49,1.49,0,0,1,.35.52,2.2,2.2,0,0,1,.15.6,5,5,0,0,1,0,.71Zm-.8,0c0-.3,0-.54,0-.7a1.7,1.7,0,0,0-.08-.46.87.87,0,0,0-.18-.36,1.16,1.16,0,0,0-.9-.36h-1v3.83h1a1.19,1.19,0,0,0,.9-.35,1.06,1.06,0,0,0,.23-.56A8.7,8.7,0,0,0,202.45,138.24Z"/><path class="cls-16" d="M207.8,140.91h-3.38v-5.27h3.38v.72h-2.57v1.54h2.19v.71h-2.19v1.58h2.57Z"/><path class="cls-16" d="M212.61,139.42a1.48,1.48,0,0,1-.2.81,1.32,1.32,0,0,1-.56.51,2,2,0,0,1-.83.17h-2.13v-5.27h2.05a1.89,1.89,0,0,1,.84.18,1.3,1.3,0,0,1,.56.5,1.47,1.47,0,0,1,.19.77,1.16,1.16,0,0,1-.1.49,1.11,1.11,0,0,1-.26.39,1.24,1.24,0,0,1-.35.23,1.33,1.33,0,0,1,.56.44A1.24,1.24,0,0,1,212.61,139.42Zm-.88-2.3a.76.76,0,0,0-.11-.41.73.73,0,0,0-.29-.26,1.08,1.08,0,0,0-.46-.09h-1.18v1.51h1.18a1,1,0,0,0,.63-.2A.7.7,0,0,0,211.73,137.12Zm.08,2.27a.77.77,0,0,0-.1-.42.74.74,0,0,0-.3-.28,1,1,0,0,0-.46-.1h-1.26v1.6H211a1,1,0,0,0,.46-.1.81.81,0,0,0,.3-.28A.87.87,0,0,0,211.81,139.39Z"/><path class="cls-16" d="M214.6,140.91h-.81v-5.27h.81Z"/><path class="cls-16" d="M219.2,136.36h-1.45v4.55H217v-4.55H215.5v-.72h3.7Z"/></g><polygon class="cls-16" points="46.06 63.5 53.09 63.59 53.12 59.11 46.1 59.03 46.06 63.5"/><path class="cls-16" d="M46.05,65.26l0,5,4.8,0c1.23,0,2.23-.67,2.24-1.54l0-3.47Z"/><path class="cls-16" d="M43.62,57.25h0l9.52.1,0-3.64c0-.86-1-1.57-2.21-1.58L36.88,52,36.74,70.2l6.78.07Z"/><path class="cls-16" d="M34.35,57.14l0-5.2-4.9-.06c-1.23,0-2.23.68-2.23,1.55l0,3.64Z"/><polygon class="cls-16" points="34.34 58.9 27.22 58.82 27.18 63.3 34.3 63.37 34.34 58.9"/><path class="cls-16" d="M34.29,65.13l-7.12-.08,0,3.47c0,.87,1,1.58,2.22,1.59l4.89.06Z"/></g></g></svg>