<svg xmlns="http://www.w3.org/2000/svg" xmlns:xlink="http://www.w3.org/1999/xlink" viewBox="0 0 235 150"><defs><style>.cls-1{fill:none;}.cls-2{isolation:isolate;}.cls-3{clip-path:url(#clip-path);}.cls-4{fill:#79bb43;}.cls-5{fill:#77b149;}.cls-6{clip-path:url(#clip-path-2);}.cls-10,.cls-11,.cls-12,.cls-7,.cls-8,.cls-9{mix-blend-mode:multiply;}.cls-7{fill:url(#linear-gradient);}.cls-8{fill:url(#linear-gradient-2);}.cls-9{fill:url(#linear-gradient-3);}.cls-11{fill:url(#linear-gradient-4);}.cls-12{fill:url(#linear-gradient-5);}.cls-13{font-size:7.64px;}.cls-13,.cls-14,.cls-15,.cls-16,.cls-17{fill:#fff;}.cls-13,.cls-14{font-family:JeniusSansDraft-Regular, Jenius Sans Draft;}.cls-14{font-size:4.77px;}.cls-15{font-size:13.38px;font-family:JeniusSansDraft-Bold, Jenius Sans Draft;font-weight:700;}.cls-17{fill-rule:evenodd;}.cls-18{clip-path:url(#clip-path-3);}</style><clipPath id="clip-path"><path class="cls-1" d="M223.2,148.13H11.8a9.48,9.48,0,0,1-9.41-9.49V11.35A9.48,9.48,0,0,1,11.8,1.87H223.2a9.48,9.48,0,0,1,9.41,9.48V138.64a9.48,9.48,0,0,1-9.41,9.49"/></clipPath><clipPath id="clip-path-2"><path class="cls-1" d="M12,164.51a25.72,25.72,0,0,1-25.66-25.72V11.49A25.72,25.72,0,0,1,12-14.24H223.38A25.72,25.72,0,0,1,249,11.49v127.3a25.72,25.72,0,0,1-25.66,25.72Z"/></clipPath><linearGradient id="linear-gradient" x1="2882.46" y1="-684.2" x2="3069.59" y2="-500.4" gradientTransform="translate(2964.63 874.05) rotate(-154.49)" gradientUnits="userSpaceOnUse"><stop offset="0" stop-color="#006838"/><stop offset="0.99" stop-color="#006838" stop-opacity="0"/></linearGradient><linearGradient id="linear-gradient-2" x1="2981.08" y1="-360.81" x2="2886.88" y2="-257.02" gradientTransform="translate(2806.47 1129.36) rotate(-152.23)" xlink:href="#linear-gradient"/><linearGradient id="linear-gradient-3" x1="3053.16" y1="-671.93" x2="3077.1" y2="-423.96" xlink:href="#linear-gradient"/><linearGradient id="linear-gradient-4" x1="3697.19" y1="-651.26" x2="3708.72" y2="-466.82" gradientTransform="translate(3716.99 -294.84) rotate(-176.42)" xlink:href="#linear-gradient"/><linearGradient id="linear-gradient-5" x1="3696.65" y1="-648.28" x2="3708.18" y2="-463.84" gradientTransform="translate(3716.99 -294.84) rotate(-176.42)" gradientUnits="userSpaceOnUse"><stop offset="0" stop-color="#7aba43"/><stop offset="0.99" stop-color="#7aba43" stop-opacity="0"/></linearGradient><clipPath id="clip-path-3"><rect class="cls-1" x="15.1" y="-3.17" width="205.94" height="24.1"/></clipPath></defs><title>x-card-ijo</title><g class="cls-2"><g id="Layer_1" data-name="Layer 1"><g class="cls-3"><path class="cls-4" d="M11.8,164.38a25.74,25.74,0,0,1-25.66-25.74V11.35A25.73,25.73,0,0,1,11.8-14.38H223.2a25.73,25.73,0,0,1,25.66,25.73V138.64a25.74,25.74,0,0,1-25.66,25.74Z"/><path class="cls-5" d="M11.8,164.38a25.74,25.74,0,0,1-25.66-25.74V11.35A25.73,25.73,0,0,1,11.8-14.38H223.2a25.73,25.73,0,0,1,25.66,25.73V138.64a25.74,25.74,0,0,1-25.66,25.74Z"/><g class="cls-6"><path class="cls-7" d="M-65.71,50.55a89.32,89.32,0,0,0-3.77,15.5,80.18,80.18,0,0,0-.8,16.75c0,.11.39,3.67.39,3.67s.34,2.48.45,3.21a72,72,0,0,0,12.63,30.14,49.11,49.11,0,0,0,3.86,4.67,81.45,81.45,0,0,0,10.27,10q3.18,2.61,6.69,5A107,107,0,0,0-10.5,151.88l5,1.68c2.89-.86,5.85-1.86,8.49-2.79a104.69,104.69,0,0,0,15.36-6.42c.38-.19,3.14-1.63,4.91-2.67A103.32,103.32,0,0,0,69.18,85.47,103.21,103.21,0,0,0,74.4,44.12a75.46,75.46,0,0,0-4.55-7.78C61,23.18,47.47,12,28.43,5.54-7.82-6.77-51.73,9.34-65.71,50.55ZM27.42,15.39c22.38,7.59,37.24,31.08,36,59a79.36,79.36,0,0,1-4.23,22C49.56,124.84,21.86,142-5.54,136.35a51.52,51.52,0,0,1-6.26-1.71c-30.94-10.49-44.55-49-35.33-76.18C-34.67,21.74-3.91,4.76,27.42,15.39Z"/><path class="cls-8" d="M42.55-46a87.47,87.47,0,0,1,10.6,2.89C95.73-28.68,126.7,27.72,109.31,79c-8.47,25-24.72,47.22-50.1,57.33h0c-2.17,2.57-4.76,5.57-5.91,6.78,0,0,0,0,0,0a90.41,90.41,0,0,1-16.12,13.78l-.84.57c44-3.72,84.71-31.62,98.6-72.53C156.46,21.46,115.32-34.8,50.2-56.9c-10.7-3.63-21.7-4.73-32-5.53A89.37,89.37,0,0,1,42.55-46Z"/><path class="cls-9" d="M-157.77,4.19C-180.55,71.3-145.48,143.48-72.35,168.3c24.2,8.22,59.91,10.54,91.17-1.92a104.52,104.52,0,0,0,17.52-9,89.28,89.28,0,0,0,17-14.35s0,0,0,0c1.15-1.21,3.74-4.21,5.91-6.78,1.93-2.26,3.52-4.16,3.52-4.16h0A87.56,87.56,0,0,0,74.9,112a98.86,98.86,0,0,0,4.8-11.67C98.46,45.05,83.81-11,42.77-45.82L42.52-46h0A89.37,89.37,0,0,0,18.18-62.43H18.1l-.35-.18a145.6,145.6,0,0,0-20.9-8.92C-64.62-92.4-135.67-60.94-157.77,4.19Zm83.33-56a115.63,115.63,0,0,1,21.77-7,99.78,99.78,0,0,1,28.3-2.28c2.84.16,8.38.81,8.49.82h0A99.62,99.62,0,0,1,1.72-56a102.32,102.32,0,0,1,17.59,7.86h0c26.16,15,44.15,41,51.51,69.09a112.81,112.81,0,0,1,3.61,23.18l0,0A103.44,103.44,0,0,1,69.2,85.47a103.31,103.31,0,0,1-45,55.65c-1.23.72-3,1.81-6.4,3.52a104.4,104.4,0,0,1-14.79,6.12c-3.16,1.12-6.8,2.34-10.22,3.29a115.77,115.77,0,0,1-70.41-.74c-54.84-18.61-78.64-84.77-62.11-133.49A119.62,119.62,0,0,1-74.44-51.83Z"/><g class="cls-10"><path class="cls-11" d="M-33.09,120.4c.84.8,4.52,4.08,4.52,4.08a52,52,0,0,1-3.87-4.67h0A72.09,72.09,0,0,1-45.07,89.68c-.11-.73-.44-3.21-.44-3.21h0C-55.39,66-57.68,41.17-48.77,14.92c10.87-32,41.82-55.11,76.3-61.37a105.24,105.24,0,0,1,16-1.67h.1A102.22,102.22,0,0,0,26.1-56,99.83,99.83,0,0,0,8.52-60.33h0a113,113,0,0,0-27,9.68C-40.61-39.21-57.64-20.41-65.57,3-85.88,62.8-46.81,107.16-33.09,120.4Z"/></g><g class="cls-10"><path class="cls-12" d="M-32.37,117.45c.84.8,4.52,4.08,4.52,4.08a52.56,52.56,0,0,1-3.87-4.66h0A72.07,72.07,0,0,1-44.35,86.74c-.11-.74-.45-3.21-.45-3.21-.09-.21,0,0,0,0C-54.67,63.06-57,38.22-48.06,12-37.18-20-6.23-43.13,28.25-49.4a105.1,105.1,0,0,1,16-1.66h.1a100.81,100.81,0,0,0-17.59-7.86A97.9,97.9,0,0,0,9.23-63.27h0a112.49,112.49,0,0,0-27,9.67C-39.89-42.16-56.92-23.36-64.86,0-85.16,59.86-46.09,104.21-32.37,117.45Z"/></g></g><text class="cls-13" transform="translate(83.25 112.22)">04/18</text><text class="cls-14" transform="translate(24.51 102.45)">1234</text><text class="cls-14" transform="translate(84.36 103)">VALID THRU</text><text class="cls-15" transform="translate(24.68 93.92)"><tspan xml:space="preserve">1234    5678    1234    5678 </tspan></text><path class="cls-16" d="M198.9,36c0-5.57-4.43-10-10.49-10a10.44,10.44,0,0,0-7.8,3.54,8.92,8.92,0,0,0-5.49,7.88c0,5.25,4.48,8.39,9.87,8.39a10.14,10.14,0,0,0,2.52-.39,11.85,11.85,0,0,0,1.81.14A9.59,9.59,0,0,0,198.9,36ZM189.18,27c4.55,0,8,4.31,8,8.35A9.14,9.14,0,0,1,190,44.39a7.7,7.7,0,0,0,3.9-6.56c0-6-5.81-8.09-5.81-8.09a7.53,7.53,0,0,0-3.85-1h-.41A9,9,0,0,1,189.18,27Zm-4.41,3a4.88,4.88,0,0,1,4.54,4.77c0,3-1.86,5.08-4.45,5.08-2.33,0-4.4-2.16-4.4-5.22A4.46,4.46,0,0,1,184.77,30Zm-.35,14.85c-3.53,0-7.24-3.41-7.24-7.65a7.07,7.07,0,0,1,2.29-5.55,6.55,6.55,0,0,0-.58,2.22c0,.33,0,.65,0,1a10.34,10.34,0,0,0,6.45,9.93A6.36,6.36,0,0,1,184.42,44.86Zm2.64-.48a9,9,0,0,1-6.42-5.47A6.14,6.14,0,0,0,185,40.62a5.78,5.78,0,0,0,5.87-5.71,6.36,6.36,0,0,0-.59-2.78,7.31,7.31,0,0,1,2,5.24A7.87,7.87,0,0,1,187.06,44.38ZM154.39,65.81c0,2-1.24,3-3.85,3.12v2.95c3,0,6.74-1.61,6.74-6.07V51.34h-2.89Zm17.09-8.24c0-2.29-1.26-6.5-5.9-6.5-4.41,0-5.91,3.68-5.91,7.52s1.53,7.52,6.59,7.52a8.53,8.53,0,0,0,5.11-1.76l-1.47-2.3a6.82,6.82,0,0,1-3.64,1.21,3.41,3.41,0,0,1-3.53-3.11h6.1C170.64,60.15,171.48,59.43,171.48,57.57Zm-8.77-.27c.19-1.8.95-3.39,2.87-3.39s2.68,1.59,2.87,3.39Zm16.65-6.23a6.83,6.83,0,0,0-5.47,3V65.94h2.9V55a3.46,3.46,0,0,1,2.57-1.1,2.82,2.82,0,0,1,2.84,2.85v9.18h2.9V56.76A5.55,5.55,0,0,0,179.36,51.07Zm8.95,14.87h2.9V51.24h-2.9ZM213.13,57h0c-1-.27-2.27-.76-2.27-1.78,0-.73.77-1.34,2.22-1.34a9.83,9.83,0,0,1,3.72,1l.93-2.6a11.46,11.46,0,0,0-4.65-1.2c-2.51,0-5.14,1.28-5.14,4.18,0,2.68,2.35,4,4.68,4.6,1.25.27,2.84.79,2.84,1.82s-1.29,1.59-2.54,1.59a10.61,10.61,0,0,1-4.21-1.48l-1.13,2.71a12.44,12.44,0,0,0,5.34,1.62c2.64,0,5.43-1.27,5.43-4.44S215.31,57.57,213.13,57Zm-10.31,3.39a2.83,2.83,0,1,1-5.65,0V51.24h-2.9v9.18a5.55,5.55,0,0,0,5.7,5.69h0a5.55,5.55,0,0,0,5.7-5.69V51.24h-2.89Z"/><path class="cls-16" d="M83.41,61c-.09-.84-.16-1.68-.27-2.52a16,16,0,0,0-2-5.72.93.93,0,0,0-1.29-.44.94.94,0,0,0-.3,1.33,14.87,14.87,0,0,1,1.78,9.51,14.32,14.32,0,0,1-1.81,5.26.94.94,0,0,0,.51,1.38c.44.15.88-.09,1.18-.63A17.68,17.68,0,0,0,83.41,61m-3.85-.49c-.09-.56-.2-1.61-.41-2.63a11,11,0,0,0-1.42-3.48.9.9,0,0,0-1.43-.14,1,1,0,0,0,0,1.24,11.09,11.09,0,0,1,1.31,7.35,11.39,11.39,0,0,1-1.33,3.74,1.28,1.28,0,0,0-.16.71.8.8,0,0,0,.7.74.9.9,0,0,0,1-.52,13.85,13.85,0,0,0,1.76-7m-3.86.52a9,9,0,0,0-1.29-4.78,1,1,0,0,0-1-.53c-.48.11-.79.39-.77.86a2.06,2.06,0,0,0,.33.89A7.5,7.5,0,0,1,72.79,65a.9.9,0,0,0,.79,1.38,1,1,0,0,0,.87-.59,9,9,0,0,0,1.25-4.68M72.15,61c0-.12,0-.32-.06-.52a5,5,0,0,0-1-2.61.9.9,0,0,0-1.31-.26.93.93,0,0,0-.16,1.34,3.63,3.63,0,0,1,0,4.25.93.93,0,0,0,.17,1.33.91.91,0,0,0,1.31-.27A5.61,5.61,0,0,0,72.15,61"/><path class="cls-17" d="M83.41,61a17.68,17.68,0,0,1-2.15,8.17c-.3.54-.74.78-1.18.63a.94.94,0,0,1-.51-1.38,14.32,14.32,0,0,0,1.81-5.26,14.87,14.87,0,0,0-1.78-9.51.94.94,0,0,1,.3-1.33.93.93,0,0,1,1.29.44,16,16,0,0,1,2,5.72A20.46,20.46,0,0,1,83.41,61"/><path class="cls-17" d="M79.56,60.55a13.85,13.85,0,0,1-1.76,7,.9.9,0,0,1-1,.52.8.8,0,0,1-.7-.74,1.28,1.28,0,0,1,.16-.71,11.39,11.39,0,0,0,1.33-3.74,11.09,11.09,0,0,0-1.31-7.35,1,1,0,0,1,0-1.24.9.9,0,0,1,1.43.14,10.76,10.76,0,0,1,1.41,3.48,10.4,10.4,0,0,1,.42,2.63"/><path class="cls-17" d="M75.7,61.07a9,9,0,0,1-1.25,4.68,1,1,0,0,1-.87.59A.9.9,0,0,1,72.79,65,7.5,7.5,0,0,0,73,57.51a2.06,2.06,0,0,1-.33-.89c0-.47.29-.75.77-.86a1,1,0,0,1,1,.53,9,9,0,0,1,1.29,4.78"/><path class="cls-17" d="M72.15,61a5.61,5.61,0,0,1-1.05,3.26.91.91,0,0,1-1.31.27.93.93,0,0,1-.17-1.33,3.63,3.63,0,0,0,0-4.25.93.93,0,0,1,.16-1.34.9.9,0,0,1,1.31.26,5,5,0,0,1,1,2.61c0,.2,0,.4.06.52"/><g class="cls-18"><path class="cls-16" d="M178.74-5.79c-.07,0-.14,0-.14.1V11.55s.07.1.14.1.14-.05.14-.1V-5.69C178.88-5.75,178.82-5.79,178.74-5.79Zm26.94,0c-.09,0-.15,0-.15.1V11.55s.06.1.15.1.14-.05.14-.1V-5.69C205.82-5.75,205.75-5.79,205.68-5.79Zm-188.53,0c-.08,0-.14,0-.14.1V11.55s.06.1.14.1.14-.05.14-.1V-5.69C17.29-5.75,17.23-5.79,17.15-5.79Zm26.93,0c-.07,0-.14,0-.14.1V11.55s.07.1.14.1.15-.05.15-.1V-5.69C44.23-5.75,44.16-5.79,44.08-5.79ZM71-5.79c-.08,0-.15,0-.15.1V11.55s.07.1.15.1.14-.05.14-.1V-5.69C71.16-5.75,71.09-5.79,71-5.79ZM98-5.79c-.08,0-.14,0-.14.1V11.55s.06.1.14.1.14-.05.14-.1V-5.69C98.09-5.75,98-5.79,98-5.79Zm26.93,0c-.08,0-.14,0-.14.1V11.55s.06.1.14.1.14-.05.14-.1V-5.69C125-5.75,125-5.79,124.88-5.79Zm26.93,0c-.08,0-.14,0-.14.1V11.55s.06.1.14.1.14-.05.14-.1V-5.69C152-5.75,151.89-5.79,151.81-5.79Z"/><path class="cls-16" d="M205.58,16.54h-.37l1.18-3.09h-1.18V14h-.35v-.84h1.9v.31Z"/><path class="cls-16" d="M18.09,16a.88.88,0,0,1-.2.29.7.7,0,0,1-.29.19.9.9,0,0,1-.37.07.87.87,0,0,1-.37-.07.7.7,0,0,1-.29-.19.66.66,0,0,1-.2-.29,1,1,0,0,1-.07-.39V14.05a1,1,0,0,1,.07-.39.72.72,0,0,1,.2-.29.81.81,0,0,1,.29-.19.87.87,0,0,1,.37-.07.9.9,0,0,1,.37.07.81.81,0,0,1,.29.19.88.88,0,0,1,.27.68v1.58A1,1,0,0,1,18.09,16Zm-.27-1.95a.73.73,0,0,0-.15-.47.63.63,0,0,0-.88,0,.73.73,0,0,0-.15.47v1.54a.7.7,0,0,0,.15.47.63.63,0,0,0,.88,0,.7.7,0,0,0,.15-.47Z"/><path class="cls-16" d="M44.15,16.54v-3l-.64.56v-.39l.64-.55h.34v3.4Z"/><path class="cls-16" d="M70.17,16.54v-.3l1.34-1.71a1.05,1.05,0,0,0,.15-.24.75.75,0,0,0,0-.26.62.62,0,0,0-.15-.44.59.59,0,0,0-.44-.17.85.85,0,0,0-.23,0,.54.54,0,0,0-.18.11.67.67,0,0,0-.14.19.82.82,0,0,0,0,.28h-.34a1.15,1.15,0,0,1,.06-.37.85.85,0,0,1,.48-.48,1.23,1.23,0,0,1,.39-.07.92.92,0,0,1,.38.07.75.75,0,0,1,.3.18.81.81,0,0,1,.19.29,1.12,1.12,0,0,1,.07.38,1,1,0,0,1-.07.36,1.28,1.28,0,0,1-.21.33l-1.18,1.52h1.46v.3Z"/><path class="cls-16" d="M98.9,16a1,1,0,0,1-.22.3.77.77,0,0,1-.32.18,1.22,1.22,0,0,1-.38.07,1.16,1.16,0,0,1-.38-.06.83.83,0,0,1-.31-.16,1,1,0,0,1-.22-.28,1.24,1.24,0,0,1-.09-.4h.34a.77.77,0,0,0,.07.27.44.44,0,0,0,.15.18.56.56,0,0,0,.2.11.88.88,0,0,0,.24,0,.67.67,0,0,0,.46-.17.63.63,0,0,0,.19-.49A.59.59,0,0,0,98,15h-.07v-.3H98a.59.59,0,0,0,.46-.17.64.64,0,0,0,.15-.45.6.6,0,0,0-.17-.46.65.65,0,0,0-.42-.16.58.58,0,0,0-.44.16.68.68,0,0,0-.18.41H97a1.06,1.06,0,0,1,.09-.37.93.93,0,0,1,.21-.27.77.77,0,0,1,.29-.17,1.06,1.06,0,0,1,.37-.06.9.9,0,0,1,.37.07.75.75,0,0,1,.3.18.81.81,0,0,1,.19.29,1,1,0,0,1,.07.38.75.75,0,0,1-.46.75.79.79,0,0,1,.52.83A1.09,1.09,0,0,1,98.9,16Z"/><path class="cls-16" d="M125.6,16v.54h-.34V16H123.9v-.31l1.23-2.55h.37l-1.23,2.55h1v-1h.34v1H126V16Z"/><path class="cls-16" d="M152.8,15.91a.74.74,0,0,1-.23.41.92.92,0,0,1-.28.19,1.15,1.15,0,0,1-.4.07,1.18,1.18,0,0,1-.39-.07.71.71,0,0,1-.29-.18.63.63,0,0,1-.16-.26.88.88,0,0,1-.07-.33h.34a.7.7,0,0,0,.17.4.6.6,0,0,0,.4.13.54.54,0,0,0,.42-.16.36.36,0,0,0,.11-.14.64.64,0,0,0,.06-.18c0-.06,0-.12,0-.19v-.18a1.56,1.56,0,0,0,0-.31.79.79,0,0,0-.08-.26.42.42,0,0,0-.17-.18.56.56,0,0,0-.3-.08.7.7,0,0,0-.37.09.47.47,0,0,0-.19.25h-.31V13.14h1.71v.31h-1.4v1.07a.65.65,0,0,1,.25-.17,1,1,0,0,1,.36-.06.84.84,0,0,1,.33.06.66.66,0,0,1,.26.15,1,1,0,0,1,.14.21.85.85,0,0,1,.09.22,2,2,0,0,1,0,.24c0,.09,0,.17,0,.25A2.63,2.63,0,0,1,152.8,15.91Z"/><path class="cls-16" d="M179.7,16a.71.71,0,0,1-.19.31.86.86,0,0,1-.29.21.85.85,0,0,1-.39.08.94.94,0,0,1-.39-.07.79.79,0,0,1-.3-.2A.81.81,0,0,1,178,16a1,1,0,0,1-.07-.4,1.13,1.13,0,0,1,.06-.36,1.45,1.45,0,0,1,.16-.4l.83-1.69h.36l-.76,1.53a.78.78,0,0,1,.35-.07.87.87,0,0,1,.37.07,1.1,1.1,0,0,1,.28.2,1.33,1.33,0,0,1,.18.31,1.12,1.12,0,0,1,.06.38A1.14,1.14,0,0,1,179.7,16Zm-.32-.66a.65.65,0,0,0-.11-.22.58.58,0,0,0-.19-.15.67.67,0,0,0-.26,0,.53.53,0,0,0-.43.19.86.86,0,0,0,0,1,.55.55,0,0,0,.43.18.57.57,0,0,0,.44-.18.72.72,0,0,0,.17-.5A.76.76,0,0,0,179.38,15.31Z"/><rect class="cls-16" x="19.76" y="-4.53" width="0.24" height="11.15"/><rect class="cls-16" x="22.45" y="-4.53" width="0.24" height="11.15"/><rect class="cls-16" x="25.15" y="-4.53" width="0.24" height="11.15"/><rect class="cls-16" x="27.84" y="-4.53" width="0.24" height="11.15"/><rect class="cls-16" x="30.53" y="-4.53" width="0.24" height="14.02"/><rect class="cls-16" x="33.22" y="-4.53" width="0.24" height="11.15"/><rect class="cls-16" x="35.91" y="-4.53" width="0.24" height="11.15"/><rect class="cls-16" x="38.6" y="-4.53" width="0.24" height="11.15"/><rect class="cls-16" x="41.29" y="-4.53" width="0.24" height="11.15"/><rect class="cls-16" x="46.69" y="-4.53" width="0.24" height="11.15"/><rect class="cls-16" x="49.38" y="-4.53" width="0.24" height="11.15"/><rect class="cls-16" x="52.07" y="-4.53" width="0.24" height="11.15"/><rect class="cls-16" x="54.76" y="-4.53" width="0.24" height="11.15"/><rect class="cls-16" x="57.45" y="-4.53" width="0.24" height="14.02"/><rect class="cls-16" x="60.14" y="-4.53" width="0.24" height="11.15"/><rect class="cls-16" x="62.83" y="-4.53" width="0.24" height="11.15"/><rect class="cls-16" x="65.53" y="-4.53" width="0.24" height="11.15"/><rect class="cls-16" x="68.22" y="-4.53" width="0.24" height="11.15"/><rect class="cls-16" x="73.61" y="-4.53" width="0.24" height="11.15"/><rect class="cls-16" x="76.3" y="-4.53" width="0.24" height="11.15"/><rect class="cls-16" x="78.99" y="-4.53" width="0.24" height="11.15"/><rect class="cls-16" x="81.68" y="-4.53" width="0.24" height="11.15"/><rect class="cls-16" x="84.37" y="-4.53" width="0.24" height="14.02"/><rect class="cls-16" x="87.07" y="-4.53" width="0.24" height="11.15"/><rect class="cls-16" x="89.76" y="-4.53" width="0.24" height="11.15"/><rect class="cls-16" x="92.45" y="-4.53" width="0.24" height="11.15"/><rect class="cls-16" x="95.14" y="-4.53" width="0.24" height="11.15"/><rect class="cls-16" x="100.53" y="-4.53" width="0.24" height="11.15"/><rect class="cls-16" x="103.22" y="-4.53" width="0.24" height="11.15"/><rect class="cls-16" x="105.91" y="-4.53" width="0.24" height="11.15"/><rect class="cls-16" x="108.6" y="-4.53" width="0.24" height="11.15"/><rect class="cls-16" x="111.3" y="-4.53" width="0.24" height="14.02"/><rect class="cls-16" x="113.99" y="-4.53" width="0.24" height="11.15"/><rect class="cls-16" x="116.68" y="-4.53" width="0.24" height="11.15"/><rect class="cls-16" x="119.37" y="-4.53" width="0.24" height="11.15"/><rect class="cls-16" x="122.06" y="-4.53" width="0.24" height="11.15"/><rect class="cls-16" x="127.45" y="-4.53" width="0.24" height="11.15"/><rect class="cls-16" x="130.15" y="-4.53" width="0.24" height="11.15"/><rect class="cls-16" x="132.84" y="-4.53" width="0.24" height="11.15"/><rect class="cls-16" x="135.53" y="-4.53" width="0.24" height="11.15"/><rect class="cls-16" x="138.22" y="-4.53" width="0.24" height="14.02"/><rect class="cls-16" x="140.91" y="-4.53" width="0.24" height="11.15"/><rect class="cls-16" x="143.6" y="-4.53" width="0.24" height="11.15"/><rect class="cls-16" x="146.29" y="-4.53" width="0.24" height="11.15"/><rect class="cls-16" x="148.98" y="-4.53" width="0.24" height="11.15"/><rect class="cls-16" x="154.38" y="-4.53" width="0.24" height="11.15"/><rect class="cls-16" x="157.07" y="-4.53" width="0.24" height="11.15"/><rect class="cls-16" x="159.76" y="-4.53" width="0.24" height="11.15"/><rect class="cls-16" x="162.45" y="-4.53" width="0.24" height="11.15"/><rect class="cls-16" x="165.14" y="-4.53" width="0.24" height="14.02"/><rect class="cls-16" x="167.83" y="-4.53" width="0.24" height="11.15"/><rect class="cls-16" x="170.53" y="-4.53" width="0.24" height="11.15"/><rect class="cls-16" x="173.21" y="-4.53" width="0.24" height="11.15"/><rect class="cls-16" x="175.91" y="-4.53" width="0.24" height="11.15"/><rect class="cls-16" x="181.3" y="-4.53" width="0.24" height="11.15"/><rect class="cls-16" x="183.99" y="-4.53" width="0.24" height="11.15"/><rect class="cls-16" x="186.68" y="-4.53" width="0.24" height="11.15"/><rect class="cls-16" x="189.37" y="-4.53" width="0.24" height="11.15"/><rect class="cls-16" x="192.06" y="-4.53" width="0.24" height="14.02"/><rect class="cls-16" x="194.76" y="-4.53" width="0.24" height="11.15"/><rect class="cls-16" x="197.45" y="-4.53" width="0.24" height="11.15"/><rect class="cls-16" x="200.14" y="-4.53" width="0.24" height="11.15"/><rect class="cls-16" x="202.83" y="-4.53" width="0.24" height="11.15"/><rect class="cls-16" x="208.22" y="-4.53" width="0.24" height="11.15"/><rect class="cls-16" x="210.91" y="-4.53" width="0.24" height="11.15"/><rect class="cls-16" x="213.6" y="-4.53" width="0.24" height="11.15"/><rect class="cls-16" x="216.29" y="-4.53" width="0.24" height="11.15"/><rect class="cls-16" x="218.99" y="-4.53" width="0.24" height="14.02"/></g><polygon class="cls-16" points="187.78 131.06 190.25 115.79 194.19 115.79 191.72 131.06 187.78 131.06"/><path class="cls-16" d="M206,116.17a9.88,9.88,0,0,0-3.53-.64c-3.9,0-6.64,2.07-6.67,5,0,2.2,2,3.43,3.46,4.16s2.05,1.22,2.05,1.89c0,1-1.23,1.49-2.36,1.49a7.87,7.87,0,0,1-3.71-.8l-.51-.24-.56,3.42a12.1,12.1,0,0,0,4.4.81c4.14,0,6.83-2,6.86-5.22,0-1.74-1-3-3.31-4.14-1.38-.71-2.22-1.18-2.21-1.9s.71-1.31,2.26-1.31a6.79,6.79,0,0,1,2.95.59l.35.17.53-3.31"/><path class="cls-16" d="M216.14,115.81h-3a1.93,1.93,0,0,0-2.06,1.27l-5.86,14h4.14s.67-1.88.83-2.3h5.05l.48,2.29h3.66l-3.19-15.26m-4.87,9.84c.33-.88,1.57-4.27,1.57-4.27s.33-.88.53-1.45l.26,1.31.92,4.41Z"/><path class="cls-16" d="M184.47,115.81l-3.85,10.41-.42-2.12a11.64,11.64,0,0,0-5.46-6.4l3.53,13.35h4.17l6.21-15.24h-4.18"/><path class="cls-16" d="M177,115.8h-6.35l-.06.31c4.95,1.27,8.22,4.32,9.58,8l-1.38-7A1.65,1.65,0,0,0,177,115.8"/><path class="cls-16" d="M203.16,138.18v.26q0,.44,0,.75a2.25,2.25,0,0,1-.15.62,1.57,1.57,0,0,1-.35.54,1.85,1.85,0,0,1-1.36.5h-1.85v-5.27h1.85a1.85,1.85,0,0,1,1.36.5,1.53,1.53,0,0,1,.35.53,2,2,0,0,1,.15.59c0,.2,0,.44,0,.71Zm-.79,0c0-.3,0-.54,0-.7a1.78,1.78,0,0,0-.08-.47.89.89,0,0,0-.18-.35,1.16,1.16,0,0,0-.9-.36h-1v3.83h1a1.16,1.16,0,0,0,.9-.36,1,1,0,0,0,.23-.55A8.83,8.83,0,0,0,202.37,138.18Z"/><path class="cls-16" d="M207.71,140.85h-3.37v-5.27h3.37v.72h-2.56v1.54h2.18v.71h-2.18v1.58h2.56Z"/><path class="cls-16" d="M212.52,139.36a1.57,1.57,0,0,1-.2.81,1.32,1.32,0,0,1-.56.51,2,2,0,0,1-.83.17H208.8v-5.27h2a1.86,1.86,0,0,1,.84.18,1.22,1.22,0,0,1,.55.5,1.46,1.46,0,0,1,.2.76,1.25,1.25,0,0,1-.1.51,1.34,1.34,0,0,1-.26.38,1.24,1.24,0,0,1-.35.23,1.25,1.25,0,0,1,.56.44A1.31,1.31,0,0,1,212.52,139.36Zm-.88-2.31a.75.75,0,0,0-.11-.4.73.73,0,0,0-.29-.26,1.11,1.11,0,0,0-.46-.09H209.6v1.51h1.18a.93.93,0,0,0,.63-.2A.71.71,0,0,0,211.64,137.05Zm.08,2.27a.76.76,0,0,0-.1-.41.68.68,0,0,0-.3-.28,1,1,0,0,0-.46-.11H209.6v1.61h1.26a1,1,0,0,0,.46-.11.68.68,0,0,0,.3-.28A.82.82,0,0,0,211.72,139.32Z"/><path class="cls-16" d="M214.5,140.85h-.8v-5.27h.8Z"/><path class="cls-16" d="M219.1,136.3h-1.44v4.55h-.8V136.3h-1.45v-.72h3.69Z"/></g><polygon class="cls-16" points="46.13 63.51 53.16 63.59 53.18 59.12 46.17 59.05 46.13 63.51"/><path class="cls-16" d="M46.12,65.27l0,5,4.8.06c1.23,0,2.22-.68,2.23-1.54l0-3.48Z"/><path class="cls-16" d="M43.69,57.26h0l9.5.11,0-3.64c0-.86-1-1.57-2.22-1.58L37,52,36.83,70.2l6.76.08Z"/><path class="cls-16" d="M34.43,57.16l0-5.2-4.9-.05c-1.23,0-2.23.67-2.24,1.54l0,3.63Z"/><polygon class="cls-16" points="34.42 58.91 27.3 58.84 27.27 63.31 34.39 63.39 34.42 58.91"/><path class="cls-16" d="M34.37,65.14l-7.12-.08,0,3.47c0,.86,1,1.58,2.21,1.59l4.89,0Z"/></g></g></svg>