<svg id="Layer_1" data-name="Layer 1" xmlns="http://www.w3.org/2000/svg" xmlns:xlink="http://www.w3.org/1999/xlink" viewBox="0 0 235 150"><defs><style>.cls-1,.cls-2{fill:none;}.cls-2,.cls-6{clip-path:url(#clip-path);}.cls-3{clip-path:url(#clip-path-2);}.cls-4{fill:#79bb43;}.cls-5{fill:#f68c25;}.cls-7{fill:url(#linear-gradient);}.cls-8{fill:url(#linear-gradient-2);}.cls-9{fill:url(#linear-gradient-3);}.cls-10{fill:url(#linear-gradient-4);}.cls-11{fill:url(#linear-gradient-5);}.cls-12,.cls-13,.cls-16{isolation:isolate;}.cls-12{font-size:7.65px;}.cls-12,.cls-13,.cls-16,.cls-17{fill:#fff;}.cls-12,.cls-13{font-family:JeniusSansDraft-Regular, Jenius Sans Draft;}.cls-13{font-size:4.78px;}.cls-14{letter-spacing:-0.06em;}.cls-15{letter-spacing:-0.03em;}.cls-16{font-size:13.39px;font-family:JeniusSansDraft-Bold, Jenius Sans Draft;font-weight:700;}.cls-18{clip-path:url(#clip-path-7);}</style><clipPath id="clip-path"><path class="cls-1" d="M11.9,164.6a25.76,25.76,0,0,1-25.7-25.7V11.4A25.78,25.78,0,0,1,11.9-14.4H223.5a25.71,25.71,0,0,1,25.7,25.8V138.8a25.69,25.69,0,0,1-25.7,25.7H11.9Z"/></clipPath><clipPath id="clip-path-2"><path class="cls-1" d="M223.3,148.2H11.7a9.47,9.47,0,0,1-9.4-9.5V11.3a9.47,9.47,0,0,1,9.4-9.5H223.3a9.47,9.47,0,0,1,9.4,9.5V138.7a9.47,9.47,0,0,1-9.4,9.5"/></clipPath><linearGradient id="linear-gradient" x1="2391.07" y1="1415.05" x2="2578.37" y2="1231.09" gradientTransform="matrix(-0.9, -0.43, -0.43, 0.9, 2835.76, 2.98)" gradientUnits="userSpaceOnUse"><stop offset="0" stop-color="#f9a823"/><stop offset="0.99" stop-color="#f9a823" stop-opacity="0"/></linearGradient><linearGradient id="linear-gradient-2" x1="2480.61" y1="1078.89" x2="2386.39" y2="975.07" gradientTransform="matrix(-0.88, -0.47, -0.47, 0.88, 2698.29, 260.72)" xlink:href="#linear-gradient"/><linearGradient id="linear-gradient-3" x1="2561.82" y1="1402.71" x2="2585.79" y2="1154.44" xlink:href="#linear-gradient"/><linearGradient id="linear-gradient-4" x1="3316.08" y1="1481.26" x2="3327.62" y2="1296.63" gradientTransform="matrix(-1, -0.06, -0.06, 1, 3388.27, -1147.02)" xlink:href="#linear-gradient"/><linearGradient id="linear-gradient-5" x1="3315.49" y1="1478.31" x2="3327.03" y2="1293.78" gradientTransform="matrix(-1, -0.06, -0.06, 1, 3388.27, -1147.02)" gradientUnits="userSpaceOnUse"><stop offset="0" stop-color="#7aba43"/><stop offset="0.99" stop-color="#7aba43" stop-opacity="0"/></linearGradient><clipPath id="clip-path-7"><rect class="cls-1" x="15" y="-3.3" width="206.1" height="24.1"/></clipPath></defs><title>m-card</title><g class="cls-3"><path class="cls-4" d="M11.7,164.4A25.78,25.78,0,0,1-14,138.6V11.3A25.78,25.78,0,0,1,11.7-14.5H223.3A25.78,25.78,0,0,1,249,11.3V138.7a25.78,25.78,0,0,1-25.7,25.8H11.7Z"/></g><g class="cls-3"><path class="cls-5" d="M11.7,164.4A25.78,25.78,0,0,1-14,138.6V11.3A25.78,25.78,0,0,1,11.7-14.5H223.3A25.78,25.78,0,0,1,249,11.3V138.7a25.78,25.78,0,0,1-25.7,25.8H11.7Z"/></g><g class="cls-3"><g class="cls-6"><path class="cls-7" d="M-65.9,50.5A91.4,91.4,0,0,0-69.7,66a81.86,81.86,0,0,0-.8,16.8c0,.1.4,3.7.4,3.7s.3,2.5.4,3.2a74,74,0,0,0,12.6,30.2,44.29,44.29,0,0,0,3.9,4.7,88.82,88.82,0,0,0,10.3,10c2.1,1.7,4.4,3.4,6.7,5a106.16,106.16,0,0,0,25.5,12.5c.2.1,5,1.7,5,1.7,2.9-.9,5.9-1.9,8.5-2.8a108.73,108.73,0,0,0,15.4-6.4c.4-.2,3.1-1.6,4.9-2.7A103.27,103.27,0,0,0,69,85.6a102.12,102.12,0,0,0,5.2-41.4,61.35,61.35,0,0,0-4.6-7.8C61,23.1,47.4,11.9,28.3,5.4-7.9-6.9-51.9,9.2-65.9,50.5ZM27.3,15.3c22.4,7.6,37.3,31.1,36,59.1a81.88,81.88,0,0,1-4.2,22.1c-9.6,28.4-37.4,45.6-64.8,39.9a49.05,49.05,0,0,1-6.3-1.7c-31-10.5-44.6-49.1-35.4-76.3C-34.8,21.7-4,4.7,27.3,15.3Z"/><path class="cls-8" d="M42.5-46.2a79.24,79.24,0,0,1,10.6,2.9c42.6,14.5,73.6,70.9,56.2,122.2-8.5,25-24.7,47.3-50.1,57.4h0c-2.2,2.6-4.8,5.6-5.9,6.8h0a88.34,88.34,0,0,1-16.1,13.8,5.55,5.55,0,0,0-.8.6c44-3.7,84.8-31.7,98.7-72.6,21.4-63.5-19.8-119.8-85-142C39.4-60.7,28.4-61.8,18-62.6A89.1,89.1,0,0,1,42.5-46.2Z"/><path class="cls-9" d="M-158,4.1c-22.8,67.2,12.3,139.4,85.5,164.3,24.2,8.2,60,10.5,91.3-1.9a99.86,99.86,0,0,0,17.5-9,91,91,0,0,0,17-14.4h0c1.2-1.2,3.7-4.2,5.9-6.8,1.9-2.3,3.5-4.2,3.5-4.2h0a87.91,87.91,0,0,0,12.2-20.2,102.23,102.23,0,0,0,4.8-11.7c18.8-55.3,4.1-111.5-37-146.3-.1-.1-.2-.1-.3-.2h0A90.09,90.09,0,0,0,18-62.7h-.1c-.1-.1-.2-.1-.4-.2A145.87,145.87,0,0,0-3.4-71.8C-64.8-92.6-135.9-61.1-158,4.1ZM-74.6-52a115.62,115.62,0,0,1,21.8-7.1,99.18,99.18,0,0,1,28.3-2.3c2.8.2,8.4.8,8.5.8h0A102.58,102.58,0,0,1,1.6-56.3a96.39,96.39,0,0,1,17.6,7.9h0c26.2,15,44.2,41.1,51.6,69.1a114.3,114.3,0,0,1,3.6,23.2h0a102.33,102.33,0,0,1-5.2,41.4,103.16,103.16,0,0,1-45,55.7c-1.2.7-3,1.8-6.4,3.5a92.41,92.41,0,0,1-14.9,6.3c-3.2,1.1-6.8,2.3-10.2,3.3-22.1,6.8-47.5,7.1-70.5-.7-54.9-18.6-78.7-84.8-62.2-133.6C-128.2-14.7-103.4-39.4-74.6-52Z"/><path class="cls-10" d="M-33.2,120.4c.8.8,4.5,4.1,4.5,4.1a44.29,44.29,0,0,1-3.9-4.7h0A71.71,71.71,0,0,1-45.2,89.7c-.1-.7-.4-3.2-.4-3.2h0C-55.5,66-57.8,41.2-48.9,14.9-38-17.2-7.1-40.3,27.4-46.6a108.54,108.54,0,0,1,16.1-1.7h.1A103.69,103.69,0,0,0,26-56.2,94.07,94.07,0,0,0,8.4-60.5h0a112,112,0,0,0-27.1,9.7c-22.1,11.4-39.1,30.3-47,53.7C-86.1,62.8-47,107.2-33.2,120.4Z"/><path class="cls-11" d="M-32.5,117.5c.8.8,4.5,4.1,4.5,4.1a44.29,44.29,0,0,1-3.9-4.7h0A71.71,71.71,0,0,1-44.5,86.8c-.1-.7-.4-3.2-.4-3.2h0C-54.8,63.1-57.1,38.3-48.2,12-37.3-20.1-6.3-43.2,28.2-49.4a108.54,108.54,0,0,1,16.1-1.7h.1A103.69,103.69,0,0,0,26.8-59,92.21,92.21,0,0,0,9.2-63.3h0a112,112,0,0,0-27.1,9.7C-40-42.3-57.1-23.5-65-.1-85.3,59.8-46.2,104.2-32.5,117.5Z"/></g><g class="cls-3"><text class="cls-12" transform="translate(83.22 112.22)">04/18</text><text class="cls-13" transform="translate(24.42 102.45)">1234</text><text class="cls-13" transform="translate(84.33 102.99)"><tspan class="cls-14">V</tspan><tspan x="2.75" y="0">ALID</tspan><tspan class="cls-15" x="12.53" y="0"> </tspan><tspan x="13.56" y="0">THRU</tspan></text><text class="cls-16" transform="translate(24.59 93.91)"><tspan xml:space="preserve">1234    5678    1234    5678 </tspan></text><path class="cls-17" d="M199,36a10.42,10.42,0,0,0-18.3-6.5,8.9,8.9,0,0,0-5.5,7.9c0,5.3,4.5,8.4,9.9,8.4a10.05,10.05,0,0,0,2.5-.4,10.87,10.87,0,0,0,1.8.1A9.58,9.58,0,0,0,199,36Zm-9.8-9.1c4.6,0,8,4.3,8,8.4a9.21,9.21,0,0,1-7.2,9.1,7.69,7.69,0,0,0,3.9-6.6c0-6-5.8-8.1-5.8-8.1a8.05,8.05,0,0,0-3.9-1h-.4A9.7,9.7,0,0,1,189.2,26.9Zm-4.4,3a4.9,4.9,0,0,1,4.6,4.8c0,3-1.9,5.1-4.5,5.1-2.3,0-4.4-2.2-4.4-5.2A4.49,4.49,0,0,1,184.8,29.9Zm-.3,14.9a7.84,7.84,0,0,1-7.3-7.7,6.79,6.79,0,0,1,2.3-5.5,7.09,7.09,0,0,0-.6,2.2c0,.3-.1.6-.1,1a10.21,10.21,0,0,0,6.5,9.9A2,2,0,0,1,184.5,44.8Zm2.6-.5a8.74,8.74,0,0,1-6.4-5.5,6.1,6.1,0,0,0,4.4,1.7,5.8,5.8,0,0,0,5.9-5.7,6.32,6.32,0,0,0-.6-2.8,7.17,7.17,0,0,1,2,5.2A7.83,7.83,0,0,1,187.1,44.3ZM154.4,65.8c0,1.9-1.2,3-3.9,3.1v3c3,0,6.7-1.6,6.7-6.1V51.3h-2.9V65.8Zm17.1-8.3c0-2.3-1.3-6.5-5.9-6.5-4.4,0-5.9,3.7-5.9,7.5s1.5,7.5,6.6,7.5a8.09,8.09,0,0,0,5.1-1.8l-1.5-2.3a7,7,0,0,1-3.6,1.2,3.35,3.35,0,0,1-3.5-3.1h6.1C170.7,60.1,171.5,59.4,171.5,57.5Zm-8.8-.2c.2-1.8,1-3.4,2.9-3.4s2.7,1.6,2.9,3.4ZM179.4,51a6.93,6.93,0,0,0-5.5,3V65.9h2.9V55a3.49,3.49,0,0,1,2.6-1.1,2.79,2.79,0,0,1,2.8,2.8v9.2h2.9V56.7A5.44,5.44,0,0,0,179.4,51Zm9,14.9h2.9V51.2h-2.9ZM213.2,57h0c-1-.3-2.2-.8-2.2-1.8,0-.7.8-1.3,2.2-1.3a9.74,9.74,0,0,1,3.7,1l.9-2.6a11.51,11.51,0,0,0-4.7-1.2c-2.5,0-5.1,1.3-5.1,4.2,0,2.7,2.4,4,4.7,4.6,1.3.3,2.8.8,2.8,1.8s-1.3,1.6-2.5,1.6a10.68,10.68,0,0,1-4.2-1.5l-1.1,2.7a11.46,11.46,0,0,0,5.3,1.6c2.6,0,5.4-1.3,5.4-4.4S215.4,57.5,213.2,57Zm-10.3,3.4a2.8,2.8,0,0,1-5.6,0V51.2h-2.9v9.2a5.5,5.5,0,0,0,5.7,5.7h0a5.5,5.5,0,0,0,5.7-5.7V51.2h-2.9Z"/><path class="cls-17" d="M83.4,61a21.3,21.3,0,0,0-.3-2.5,16.87,16.87,0,0,0-2-5.7.92.92,0,0,0-1.3-.4,1,1,0,0,0-.3,1.3,14.47,14.47,0,0,1,1.8,9.5,16.63,16.63,0,0,1-1.8,5.3,1,1,0,0,0,.5,1.4c.4.2.9-.1,1.2-.6A19,19,0,0,0,83.4,61m-3.9-.5c-.1-.6-.2-1.6-.4-2.6a15.06,15.06,0,0,0-1.4-3.5.84.84,0,0,0-1.4-.1c-.3.3-.3.7,0,1.3a11,11,0,0,1,1.3,7.3,13.16,13.16,0,0,1-1.3,3.8.71.71,0,0,0-.3.6.85.85,0,0,0,.7.8.88.88,0,0,0,1-.5,13.62,13.62,0,0,0,1.8-7.1m-3.8.5a9.12,9.12,0,0,0-1.3-4.8,1,1,0,0,0-1.8.4,3.18,3.18,0,0,0,.3.9,7.09,7.09,0,0,1,.9,2.8,7.35,7.35,0,0,1-1.1,4.6.93.93,0,0,0,.8,1.4,1,1,0,0,0,.9-.6A9.47,9.47,0,0,0,75.7,61m-3.6-.1a1.09,1.09,0,0,0-.1-.5,4.9,4.9,0,0,0-1-2.6.89.89,0,0,0-1.3-.3,1,1,0,0,0-.2,1.3,3.76,3.76,0,0,1,0,4.3c-.3.5-.3,1,.2,1.3a.89.89,0,0,0,1.3-.3,4.77,4.77,0,0,0,1.1-3.2"/><path class="cls-17" d="M83.4,61a19.54,19.54,0,0,1-2.1,8.2c-.3.5-.7.8-1.2.6a.93.93,0,0,1-.5-1.4,13.9,13.9,0,0,0,1.8-5.3,14.24,14.24,0,0,0-1.8-9.5.9.9,0,0,1,.3-1.3.92.92,0,0,1,1.3.4,16.87,16.87,0,0,1,2,5.7c0,.9.2,1.7.2,2.6"/><path class="cls-17" d="M79.5,60.5a14,14,0,0,1-1.8,7,.88.88,0,0,1-1,.5.85.85,0,0,1-.7-.8,1,1,0,0,1,.2-.7,10.1,10.1,0,0,0,1.3-3.8,10.84,10.84,0,0,0-1.3-7.3,1,1,0,0,1,0-1.3.9.9,0,0,1,1.4.1A8.9,8.9,0,0,1,79,57.7a9.62,9.62,0,0,1,.5,2.8"/><path class="cls-17" d="M75.7,61a8.78,8.78,0,0,1-1.3,4.7,1,1,0,0,1-.9.6.93.93,0,0,1-.8-1.4,7.51,7.51,0,0,0,1.1-4.6,7.09,7.09,0,0,0-.9-2.8,1.61,1.61,0,0,1-.3-.9.88.88,0,0,1,.8-.9,1,1,0,0,1,1,.5A10.15,10.15,0,0,1,75.7,61"/><path class="cls-17" d="M72.1,60.9a6.11,6.11,0,0,1-1,3.3.89.89,0,0,1-1.3.3.93.93,0,0,1-.2-1.3,3.76,3.76,0,0,0,0-4.3c-.3-.5-.3-1,.2-1.3a.89.89,0,0,1,1.3.3,4.9,4.9,0,0,1,1,2.6v.4"/><g class="cls-18"><path class="cls-17" d="M178.8-5.9c-.1,0-.1,0-.1.1V11.5a.1.1,0,0,0,.1.1c.1,0,.1,0,.1-.1V-5.8C178.9-5.9,178.9-5.9,178.8-5.9Zm27,0c-.1,0-.1,0-.1.1V11.5a.1.1,0,0,0,.1.1c.1,0,.1,0,.1-.1V-5.8A.1.1,0,0,0,205.8-5.9ZM17.1-5.9c-.1,0-.1,0-.1.1V11.5a.1.1,0,0,0,.1.1c.1,0,.1,0,.1-.1V-5.8A.1.1,0,0,0,17.1-5.9ZM44-5.9c-.1,0-.1,0-.1.1V11.5a.1.1,0,0,0,.1.1c.1,0,.1,0,.1-.1V-5.8C44.2-5.9,44.1-5.9,44-5.9Zm27,0c-.1,0-.1,0-.1.1V11.5a.1.1,0,0,0,.1.1c.1,0,.1,0,.1-.1V-5.8C71.1-5.9,71.1-5.9,71-5.9Zm26.9,0c-.1,0-.1,0-.1.1V11.5a.1.1,0,0,0,.1.1c.1,0,.1,0,.1-.1V-5.8C98.1-5.9,98-5.9,97.9-5.9Zm27,0c-.1,0-.1,0-.1.1V11.5a.1.1,0,0,0,.1.1c.1,0,.1,0,.1-.1V-5.8C125-5.9,125-5.9,124.9-5.9Zm26.9,0c-.1,0-.1,0-.1.1V11.5a.1.1,0,0,0,.1.1c.1,0,.1,0,.1-.1V-5.8C152-5.9,151.9-5.9,151.8-5.9Z"/><path class="cls-17" d="M205.7,16.5h-.4l1.2-3.1h-1.2v.5H205v-.8h1.9v.3Z"/><path class="cls-17" d="M18,15.9c0,.1-.1.2-.2.3s-.2.1-.3.2-.2.1-.4.1a.6.6,0,0,1-.4-.1c-.1,0-.2-.1-.3-.2s-.1-.2-.2-.3-.1-.2-.1-.4V13.9a.6.6,0,0,1,.1-.4c0-.1.1-.2.2-.3s.2-.1.3-.2.2-.1.4-.1a.6.6,0,0,1,.4.1c.1,0,.2.1.3.2s.1.2.2.3.1.2.1.4v1.6C18.1,15.7,18,15.8,18,15.9ZM17.7,14c0-.2-.1-.3-.1-.5a.5.5,0,0,0-.8,0,.75.75,0,0,0-.1.5v1.5c0,.2.1.3.1.5a.5.5,0,0,0,.8,0,.75.75,0,0,0,.1-.5Z"/><path class="cls-17" d="M44.1,16.5v-3l-.6.6v-.4l.6-.5h.3v3.4h-.3Z"/><path class="cls-17" d="M70.1,16.5v-.3l1.3-1.7a.31.31,0,0,0,.1-.2c0-.1.1-.2.1-.3a.71.71,0,0,0-.6-.6h-.2c-.1,0-.1.1-.2.1s-.1.1-.1.2V14h-.3a.6.6,0,0,1,.1-.4c0-.1.1-.2.2-.3s.2-.1.3-.2.2-.1.4-.1a.6.6,0,0,1,.4.1c.1,0,.2.1.3.2s.1.2.2.3.1.2.1.4a.6.6,0,0,1-.1.4c0,.1-.1.2-.2.3l-1.2,1.5H72v.3Z"/><path class="cls-17" d="M98.9,15.9c-.1.1-.1.2-.2.3s-.2.1-.3.2-.3.1-.4.1a.6.6,0,0,1-.4-.1c-.1,0-.2-.1-.3-.2s-.2-.2-.2-.3-.1-.2-.1-.3h.3a.37.37,0,0,0,.1.3c0,.1.1.1.1.2s.1.1.2.1h.2c.2,0,.3-.1.5-.2a.7.7,0,0,0-.5-1.2h-.1v-.3h.1a.76.76,0,0,0,.5-.2.6.6,0,0,0,.1-.4.69.69,0,0,0-.6-.7c-.2,0-.3,0-.4.2a.52.52,0,0,0-.2.4H97a.6.6,0,0,1,.1-.4c.1-.1.1-.2.2-.3s.2-.1.3-.2.2-.1.4-.1a.6.6,0,0,1,.4.1c.1,0,.2.1.3.2s.1.2.2.3.1.2.1.4a.89.89,0,0,1-.5.8.79.79,0,0,1,.5.8A2,2,0,0,1,98.9,15.9Z"/><path class="cls-17" d="M125.6,15.9v.5h-.3v-.5h-1.4v-.3l1.2-2.6h.4l-1.2,2.6h1v-1h.3v1h.4v.3Z"/><path class="cls-17" d="M152.8,15.8a.52.52,0,0,1-.2.4c-.1.1-.2.1-.3.2s-.2.1-.4.1a.6.6,0,0,1-.4-.1c-.1,0-.2-.1-.3-.2s-.1-.2-.2-.3-.1-.2-.1-.3h.3a.52.52,0,0,0,.2.4c.1.1.2.1.4.1a.52.52,0,0,0,.4-.2l.1-.1c0-.1,0-.1.1-.2v-.7a.37.37,0,0,0-.1-.3c0-.1-.1-.1-.2-.2s-.2-.1-.3-.1a.6.6,0,0,0-.4.1c-.1.1-.2.1-.2.2h-.3V13.1h1.7v.3h-1.4v1.1c.1-.1.2-.1.3-.2s.2-.1.4-.1a.37.37,0,0,1,.3.1.22.22,0,0,1,.2.2c.1.1.1.1.1.2s.1.1.1.2v.4C152.9,15.5,152.9,15.7,152.8,15.8Z"/><path class="cls-17" d="M179.8,15.9c0,.1-.1.2-.2.3s-.2.2-.3.2-.2.1-.4.1a.6.6,0,0,1-.4-.1c-.1,0-.2-.1-.3-.2s-.1-.2-.2-.3-.1-.3-.1-.4a.76.76,0,0,1,.1-.4.76.76,0,0,1,.2-.4l.8-1.6h.4l-.8,1.5c.1,0,.2-.1.4-.1a.6.6,0,0,1,.4.1c.1,0,.2.1.3.2s.1.2.2.3.1.2.1.4A.4.4,0,0,0,179.8,15.9Zm-.4-.7a.35.35,0,0,0-.1-.2c-.1-.1-.1-.1-.2-.1s-.2-.1-.3-.1a.52.52,0,0,0-.4.2.71.71,0,0,0,.4,1.2.52.52,0,0,0,.4-.2.76.76,0,0,0,.2-.5A.19.19,0,0,0,179.4,15.2Z"/><rect class="cls-17" x="19.7" y="-4.6" width="0.2" height="11.2"/><rect class="cls-17" x="22.4" y="-4.6" width="0.2" height="11.2"/><rect class="cls-17" x="25.1" y="-4.6" width="0.2" height="11.2"/><rect class="cls-17" x="27.8" y="-4.6" width="0.2" height="11.2"/><rect class="cls-17" x="30.5" y="-4.6" width="0.2" height="14"/><rect class="cls-17" x="33.1" y="-4.6" width="0.2" height="11.2"/><rect class="cls-17" x="35.8" y="-4.6" width="0.2" height="11.2"/><rect class="cls-17" x="38.5" y="-4.6" width="0.2" height="11.2"/><rect class="cls-17" x="41.2" y="-4.6" width="0.2" height="11.2"/><rect class="cls-17" x="46.6" y="-4.6" width="0.2" height="11.2"/><rect class="cls-17" x="49.3" y="-4.6" width="0.2" height="11.2"/><rect class="cls-17" x="52" y="-4.6" width="0.2" height="11.2"/><rect class="cls-17" x="54.7" y="-4.6" width="0.2" height="11.2"/><rect class="cls-17" x="57.4" y="-4.6" width="0.2" height="14"/><rect class="cls-17" x="60.1" y="-4.6" width="0.2" height="11.2"/><rect class="cls-17" x="62.8" y="-4.6" width="0.2" height="11.2"/><rect class="cls-17" x="65.5" y="-4.6" width="0.2" height="11.2"/><rect class="cls-17" x="68.2" y="-4.6" width="0.2" height="11.2"/><rect class="cls-17" x="73.6" y="-4.6" width="0.2" height="11.2"/><rect class="cls-17" x="76.3" y="-4.6" width="0.2" height="11.2"/><rect class="cls-17" x="79" y="-4.6" width="0.2" height="11.2"/><rect class="cls-17" x="81.6" y="-4.6" width="0.2" height="11.2"/><rect class="cls-17" x="84.3" y="-4.6" width="0.2" height="14"/><rect class="cls-17" x="87" y="-4.6" width="0.2" height="11.2"/><rect class="cls-17" x="89.7" y="-4.6" width="0.2" height="11.2"/><rect class="cls-17" x="92.4" y="-4.6" width="0.2" height="11.2"/><rect class="cls-17" x="95.1" y="-4.6" width="0.2" height="11.2"/><rect class="cls-17" x="100.5" y="-4.6" width="0.2" height="11.2"/><rect class="cls-17" x="103.2" y="-4.6" width="0.2" height="11.2"/><rect class="cls-17" x="105.9" y="-4.6" width="0.2" height="11.2"/><rect class="cls-17" x="108.6" y="-4.6" width="0.2" height="11.2"/><rect class="cls-17" x="111.3" y="-4.6" width="0.2" height="14"/><rect class="cls-17" x="114" y="-4.6" width="0.2" height="11.2"/><rect class="cls-17" x="116.7" y="-4.6" width="0.2" height="11.2"/><rect class="cls-17" x="119.4" y="-4.6" width="0.2" height="11.2"/><rect class="cls-17" x="122.1" y="-4.6" width="0.2" height="11.2"/><rect class="cls-17" x="127.5" y="-4.6" width="0.2" height="11.2"/><rect class="cls-17" x="130.2" y="-4.6" width="0.2" height="11.2"/><rect class="cls-17" x="132.8" y="-4.6" width="0.2" height="11.2"/><rect class="cls-17" x="135.5" y="-4.6" width="0.2" height="11.2"/><rect class="cls-17" x="138.2" y="-4.6" width="0.2" height="14"/><rect class="cls-17" x="140.9" y="-4.6" width="0.2" height="11.2"/><rect class="cls-17" x="143.6" y="-4.6" width="0.2" height="11.2"/><rect class="cls-17" x="146.3" y="-4.6" width="0.2" height="11.2"/><rect class="cls-17" x="149" y="-4.6" width="0.2" height="11.2"/><rect class="cls-17" x="154.4" y="-4.6" width="0.2" height="11.2"/><rect class="cls-17" x="157.1" y="-4.6" width="0.2" height="11.2"/><rect class="cls-17" x="159.8" y="-4.6" width="0.2" height="11.2"/><rect class="cls-17" x="162.5" y="-4.6" width="0.2" height="11.2"/><rect class="cls-17" x="165.2" y="-4.6" width="0.2" height="14"/><rect class="cls-17" x="167.9" y="-4.6" width="0.2" height="11.2"/><rect class="cls-17" x="170.6" y="-4.6" width="0.2" height="11.2"/><rect class="cls-17" x="173.3" y="-4.6" width="0.2" height="11.2"/><rect class="cls-17" x="176" y="-4.6" width="0.2" height="11.2"/><rect class="cls-17" x="181.4" y="-4.6" width="0.2" height="11.2"/><rect class="cls-17" x="184.1" y="-4.6" width="0.2" height="11.2"/><rect class="cls-17" x="186.7" y="-4.6" width="0.2" height="11.2"/><rect class="cls-17" x="189.4" y="-4.6" width="0.2" height="11.2"/><rect class="cls-17" x="192.1" y="-4.6" width="0.2" height="14"/><rect class="cls-17" x="194.8" y="-4.6" width="0.2" height="11.2"/><rect class="cls-17" x="197.5" y="-4.6" width="0.2" height="11.2"/><rect class="cls-17" x="200.2" y="-4.6" width="0.2" height="11.2"/><rect class="cls-17" x="202.9" y="-4.6" width="0.2" height="11.2"/><rect class="cls-17" x="208.3" y="-4.6" width="0.2" height="11.2"/><rect class="cls-17" x="211" y="-4.6" width="0.2" height="11.2"/><rect class="cls-17" x="213.7" y="-4.6" width="0.2" height="11.2"/><rect class="cls-17" x="216.4" y="-4.6" width="0.2" height="11.2"/><rect class="cls-17" x="219.1" y="-4.6" width="0.2" height="14"/></g><polygon class="cls-17" points="187.8 131.1 190.3 115.8 194.3 115.8 191.8 131.1 187.8 131.1"/><path class="cls-17" d="M206.1,116.2a10,10,0,0,0-3.5-.6c-3.9,0-6.6,2.1-6.7,5,0,2.2,2,3.4,3.5,4.2s2.1,1.2,2,1.9c0,1-1.2,1.5-2.4,1.5a7.46,7.46,0,0,1-3.7-.8l-.5-.2-.6,3.4a11.91,11.91,0,0,0,4.4.8c4.1,0,6.8-2,6.9-5.2,0-1.7-1-3.1-3.3-4.2-1.4-.7-2.2-1.2-2.2-1.9s.7-1.3,2.3-1.3a7.94,7.94,0,0,1,3,.6l.3.2.5-3.4"/><path class="cls-17" d="M216.2,115.8h-3a2,2,0,0,0-2.1,1.3l-5.9,14h4.1s.7-1.9.8-2.3h5.1c.1.5.5,2.3.5,2.3h3.7l-3.2-15.3m-4.8,9.9c.3-.9,1.6-4.3,1.6-4.3l.5-1.5.3,1.3s.8,3.6.9,4.4h-3.3Z"/><path class="cls-17" d="M184.5,115.8l-3.9,10.4-.4-2.1a11.78,11.78,0,0,0-5.5-6.4l3.5,13.4h4.2l6.2-15.3h-4.1"/><path class="cls-17" d="M177.1,115.8h-6.4l-.1.3c5,1.3,8.2,4.3,9.6,8l-1.4-7a1.53,1.53,0,0,0-1.7-1.3"/><path class="cls-17" d="M203.2,138.2v1c0,.2-.1.4-.1.6a1,1,0,0,1-.4.5,2,2,0,0,1-1.4.5h-1.8v-5.3h1.8a2.17,2.17,0,0,1,1.4.5,1.76,1.76,0,0,1,.4.5,1.27,1.27,0,0,1,.1.6v1.1Zm-.8,0v-.7a.9.9,0,0,0-.1-.5.76.76,0,0,0-.2-.4,1.27,1.27,0,0,0-.9-.4h-1V140h1a1,1,0,0,0,.9-.4.85.85,0,0,0,.2-.6C202.4,139,202.4,138.7,202.4,138.2Z"/><path class="cls-17" d="M207.8,140.9h-3.4v-5.3h3.4v.7h-2.6v1.5h2.2v.7h-2.2v1.6h2.6Z"/><path class="cls-17" d="M212.6,139.4a1.88,1.88,0,0,1-.2.8,1,1,0,0,1-.6.5,1.88,1.88,0,0,1-.8.2h-2.1v-5.3H211a1.88,1.88,0,0,1,.8.2,2.65,2.65,0,0,1,.6.5,1.88,1.88,0,0,1,.2.8.9.9,0,0,1-.1.5,1.38,1.38,0,0,1-.3.4c-.1.1-.2.2-.3.2a2.09,2.09,0,0,1,.6.4C212.5,138.8,212.6,139.1,212.6,139.4Zm-.9-2.3c0-.2,0-.3-.1-.4l-.3-.3a.75.75,0,0,0-.5-.1h-1.2v1.5h1.2a.85.85,0,0,0,.6-.2A.55.55,0,0,0,211.7,137.1Zm.1,2.3c0-.2,0-.3-.1-.4l-.3-.3a.75.75,0,0,0-.5-.1h-1.3v1.6h1.3a.9.9,0,0,0,.5-.1l.3-.3A.76.76,0,0,0,211.8,139.4Z"/><path class="cls-17" d="M214.6,140.9h-.8v-5.3h.8Z"/><path class="cls-17" d="M219.2,136.3h-1.4v4.6H217v-4.6h-1.5v-.7h3.7Z"/><polygon class="cls-17" points="46.1 63.5 53.1 63.6 53.1 59.1 46.1 59 46.1 63.5"/><path class="cls-17" d="M46.1,65.2v5l4.8.1c1.2,0,2.2-.7,2.2-1.5V65.3Z"/><path class="cls-17" d="M43.6,57.2h0l9.5.1V53.7c0-.9-1-1.6-2.2-1.6l-14.1-.2-.1,18.2,6.8.1Z"/><path class="cls-17" d="M34.4,57.1V51.9l-4.9-.1c-1.2,0-2.2.7-2.2,1.5v3.6Z"/><polygon class="cls-17" points="34.3 58.9 27.2 58.8 27.2 63.3 34.3 63.3 34.3 58.9"/><path class="cls-17" d="M34.3,65.1,27.2,65v3.5c0,.9,1,1.6,2.2,1.6l4.9.1Z"/></g></g></svg>