<svg xmlns="http://www.w3.org/2000/svg" xmlns:xlink="http://www.w3.org/1999/xlink" viewBox="0 0 235 150"><defs><style>.cls-1{fill:none;}.cls-2{isolation:isolate;}.cls-3{clip-path:url(#clip-path);}.cls-4{fill:#79bb43;}.cls-5{fill:#00a1d6;}.cls-6{clip-path:url(#clip-path-2);}.cls-10,.cls-11,.cls-12,.cls-7,.cls-8,.cls-9{mix-blend-mode:multiply;}.cls-7{fill:url(#linear-gradient);}.cls-8{fill:url(#linear-gradient-2);}.cls-9{fill:url(#linear-gradient-3);}.cls-11{fill:url(#linear-gradient-4);}.cls-12{fill:url(#linear-gradient-5);}.cls-13{font-size:7.63px;}.cls-13,.cls-14,.cls-15,.cls-16,.cls-17{fill:#fff;}.cls-13,.cls-14{font-family:JeniusSansDraft-Regular, Jenius Sans Draft;}.cls-14{font-size:4.76px;}.cls-15{font-size:13.35px;font-family:JeniusSansDraft-Bold, Jenius Sans Draft;font-weight:700;}.cls-17{fill-rule:evenodd;}.cls-18{clip-path:url(#clip-path-3);}</style><clipPath id="clip-path"><path class="cls-1" d="M223,148H12a9.46,9.46,0,0,1-9.39-9.45V11.5A9.46,9.46,0,0,1,12,2H223a9.46,9.46,0,0,1,9.39,9.46v127A9.46,9.46,0,0,1,223,148"/></clipPath><clipPath id="clip-path-2"><path class="cls-1" d="M12.22,164.31a25.66,25.66,0,0,1-25.6-25.67v-127A25.67,25.67,0,0,1,12.22-14H223.14a25.66,25.66,0,0,1,25.6,25.67v127a25.66,25.66,0,0,1-25.6,25.67Z"/></clipPath><linearGradient id="linear-gradient" x1="2882.53" y1="-683.8" x2="3069.24" y2="-500.41" gradientTransform="translate(2964.63 874.05) rotate(-154.49)" gradientUnits="userSpaceOnUse"><stop offset="0" stop-color="#1b75bb"/><stop offset="0.99" stop-color="#1b75bb" stop-opacity="0"/></linearGradient><linearGradient id="linear-gradient-2" x1="2980.84" y1="-360.72" x2="2886.84" y2="-257.16" gradientTransform="translate(2806.47 1129.36) rotate(-152.23)" xlink:href="#linear-gradient"/><linearGradient id="linear-gradient-3" x1="3052.85" y1="-671.56" x2="3076.73" y2="-424.14" xlink:href="#linear-gradient"/><linearGradient id="linear-gradient-4" x1="3696.9" y1="-651.13" x2="3708.4" y2="-467.11" gradientTransform="translate(3716.99 -294.84) rotate(-176.42)" xlink:href="#linear-gradient"/><linearGradient id="linear-gradient-5" x1="3696.37" y1="-648.16" x2="3707.88" y2="-464.13" gradientTransform="translate(3716.99 -294.84) rotate(-176.42)" gradientUnits="userSpaceOnUse"><stop offset="0" stop-color="#7aba43"/><stop offset="0.99" stop-color="#7aba43" stop-opacity="0"/></linearGradient><clipPath id="clip-path-3"><rect class="cls-1" x="15.33" y="-3" width="205.48" height="24.05"/></clipPath></defs><title>x-card-biru</title><g class="cls-2"><g id="Layer_1" data-name="Layer 1"><g class="cls-3"><path class="cls-4" d="M12,164.18a25.66,25.66,0,0,1-25.6-25.67V11.5A25.67,25.67,0,0,1,12-14.18H223a25.67,25.67,0,0,1,25.6,25.68v127A25.67,25.67,0,0,1,223,164.18Z"/><path class="cls-5" d="M12,164.18a25.66,25.66,0,0,1-25.6-25.67V11.5A25.67,25.67,0,0,1,12-14.18H223a25.67,25.67,0,0,1,25.6,25.68v127A25.67,25.67,0,0,1,223,164.18Z"/><g class="cls-6"><path class="cls-7" d="M-65.31,50.6a89.08,89.08,0,0,0-3.75,15.47,79.81,79.81,0,0,0-.8,16.71c0,.11.39,3.67.39,3.67s.34,2.47.45,3.2a71.81,71.81,0,0,0,12.59,30.07,49.63,49.63,0,0,0,3.86,4.66,81.13,81.13,0,0,0,10.25,9.93c2.11,1.74,4.34,3.39,6.67,5a107.3,107.3,0,0,0,25.44,12.44l5,1.68c2.89-.86,5.84-1.86,8.47-2.79a103.79,103.79,0,0,0,15.33-6.4c.38-.2,3.13-1.62,4.89-2.67A103,103,0,0,0,69.29,85.45,103.3,103.3,0,0,0,74.5,44.19,75.19,75.19,0,0,0,70,36.43C61.16,23.3,47.62,12.14,28.63,5.69-7.55-6.59-51.35,9.48-65.31,50.6ZM27.62,15.53C50,23.1,64.77,46.53,63.53,74.42a79,79,0,0,1-4.21,22c-9.61,28.33-37.25,45.47-64.59,39.8a53,53,0,0,1-6.24-1.7C-42.38,124-56,85.59-46.76,58.5-34.33,21.86-3.64,4.91,27.62,15.53Z"/><path class="cls-8" d="M42.72-45.75A87.62,87.62,0,0,1,53.3-42.87c42.47,14.42,73.38,70.7,56,121.83-8.45,24.89-24.66,47.12-50,57.21h0c-2.17,2.56-4.75,5.55-5.9,6.76,0,0,0,0,0,0a90,90,0,0,1-16.09,13.75l-.83.57c43.9-3.72,84.52-31.55,98.38-72.37C156.38,21.58,115.32-34.56,50.35-56.6,39.67-60.23,28.7-61.32,18.4-62.12A89.13,89.13,0,0,1,42.72-45.75Z"/><path class="cls-9" d="M-157.16,4.35c-22.72,67,12.26,139,85.23,163.74,24.16,8.2,59.79,10.52,91-1.91a104,104,0,0,0,17.48-8.94,89.09,89.09,0,0,0,16.92-14.32s0,0,0,0c1.15-1.21,3.73-4.2,5.9-6.76,1.92-2.26,3.51-4.16,3.51-4.16h0A87.34,87.34,0,0,0,75,111.9a100.26,100.26,0,0,0,4.8-11.65C98.5,45.12,83.89-10.85,42.94-45.54l-.25-.22h0A89.13,89.13,0,0,0,18.4-62.12h-.08L18-62.31a145.75,145.75,0,0,0-20.84-8.9C-64.21-92-135.11-60.63-157.16,4.35ZM-74-51.54a114.4,114.4,0,0,1,21.72-7A99.72,99.72,0,0,1-24-60.84c2.83.15,8.36.8,8.47.81h0A99.34,99.34,0,0,1,2-55.7a101.79,101.79,0,0,1,17.54,7.85h0c26.1,15,44.05,40.93,51.39,68.93a112.32,112.32,0,0,1,3.6,23.13l0,0a103,103,0,0,1-5.2,41.27A103,103,0,0,1,24.45,141c-1.23.72-3,1.81-6.39,3.52a104.31,104.31,0,0,1-14.75,6.1c-3.16,1.12-6.8,2.34-10.2,3.29a115.52,115.52,0,0,1-70.26-.75c-54.72-18.57-78.46-84.57-62-133.18A119.3,119.3,0,0,1-74-51.54Z"/><g class="cls-10"><path class="cls-11" d="M-32.75,120.3c.84.8,4.51,4.07,4.51,4.07a51.62,51.62,0,0,1-3.86-4.66h0A71.91,71.91,0,0,1-44.7,89.65c-.11-.73-.45-3.2-.45-3.2h0C-55,66-57.29,41.24-48.41,15.06c10.86-32,41.74-55,76.14-61.24a106,106,0,0,1,16-1.66h.1A102.23,102.23,0,0,0,26.3-55.7,99.34,99.34,0,0,0,8.76-60h0a112.66,112.66,0,0,0-27,9.65c-22,11.42-39,30.18-46.93,53.51C-85.43,62.83-46.44,107.09-32.75,120.3Z"/></g><g class="cls-10"><path class="cls-12" d="M-32,117.36c.84.8,4.52,4.07,4.52,4.07a48.83,48.83,0,0,1-3.87-4.66h0A71.82,71.82,0,0,1-44,86.71c-.11-.73-.45-3.2-.45-3.2-.09-.21,0,0,0,0-9.86-20.43-12.14-45.2-3.26-71.39,10.85-32,41.73-55,76.13-61.24a106.25,106.25,0,0,1,16-1.66h.1A101.89,101.89,0,0,0,27-58.64,99.13,99.13,0,0,0,9.47-63h0a112.81,112.81,0,0,0-27,9.65c-22,11.41-39,30.18-46.93,53.51C-84.72,59.89-45.73,104.15-32,117.36Z"/></g></g><text class="cls-13" transform="translate(83.32 112.13)">04/18</text><text class="cls-14" transform="translate(24.72 102.39)">1234</text><text class="cls-14" transform="translate(84.44 102.94)">VALID THRU</text><text class="cls-15" transform="translate(24.88 93.88)"><tspan xml:space="preserve">1234    5678    1234    5678 </tspan></text><path class="cls-16" d="M198.71,36.12c0-5.55-4.41-10-10.46-10a10.4,10.4,0,0,0-7.78,3.54A8.9,8.9,0,0,0,175,37.5c0,5.24,4.47,8.37,9.85,8.37a10.13,10.13,0,0,0,2.51-.39,11.86,11.86,0,0,0,1.81.13A9.55,9.55,0,0,0,198.71,36.12Zm-9.69-9c4.54,0,8,4.3,8,8.33a9.13,9.13,0,0,1-7.16,9.05,7.7,7.7,0,0,0,3.9-6.55c0-5.94-5.8-8.07-5.8-8.07a7.52,7.52,0,0,0-3.84-1h-.4A9,9,0,0,1,189,27.08Zm-4.41,3a4.87,4.87,0,0,1,4.54,4.75c0,3-1.86,5.07-4.45,5.07-2.32,0-4.39-2.15-4.39-5.21A4.44,4.44,0,0,1,184.61,30.12Zm-.34,14.81c-3.52,0-7.23-3.4-7.23-7.64a7,7,0,0,1,2.29-5.53,6.55,6.55,0,0,0-.58,2.22c0,.32-.05.64-.05,1a10.33,10.33,0,0,0,6.43,9.91A6.11,6.11,0,0,1,184.27,44.93Zm2.63-.48A8.93,8.93,0,0,1,180.5,39a6.1,6.1,0,0,0,4.37,1.71,5.76,5.76,0,0,0,5.85-5.7,6.29,6.29,0,0,0-.59-2.77,7.28,7.28,0,0,1,2,5.22A7.84,7.84,0,0,1,186.9,44.45ZM154.3,65.83c0,1.94-1.23,3-3.84,3.11v3c3,0,6.73-1.61,6.73-6.06V51.4H154.3Zm17.06-8.21c0-2.29-1.25-6.5-5.89-6.5-4.39,0-5.89,3.68-5.89,7.5s1.52,7.51,6.57,7.51a8.57,8.57,0,0,0,5.1-1.75l-1.47-2.3a6.79,6.79,0,0,1-3.63,1.21,3.4,3.4,0,0,1-3.52-3.11h6.08C170.52,60.18,171.36,59.47,171.36,57.62Zm-8.75-.27c.18-1.81.95-3.39,2.86-3.39s2.67,1.58,2.86,3.39Zm16.61-6.22a6.82,6.82,0,0,0-5.46,3V66h2.9V55.05A3.44,3.44,0,0,1,179.22,54a2.81,2.81,0,0,1,2.83,2.84V66H185V56.8A5.53,5.53,0,0,0,179.22,51.13ZM188.16,66H191V51.29h-2.88Zm24.75-8.89h0c-1-.27-2.27-.76-2.27-1.77,0-.73.77-1.34,2.21-1.34a9.8,9.8,0,0,1,3.71.95l.93-2.59a11.37,11.37,0,0,0-4.64-1.19c-2.5,0-5.13,1.28-5.13,4.17,0,2.67,2.35,4,4.68,4.58,1.24.27,2.82.79,2.82,1.82s-1.28,1.59-2.53,1.59a10.57,10.57,0,0,1-4.2-1.48l-1.12,2.7a12.08,12.08,0,0,0,5.32,1.62c2.64,0,5.43-1.26,5.43-4.43S215.09,57.62,212.91,57.07Zm-10.28,3.38a2.82,2.82,0,1,1-5.64,0V51.29H194.1v9.16a5.53,5.53,0,0,0,5.69,5.68h0a5.53,5.53,0,0,0,5.69-5.68V51.29h-2.88Z"/><path class="cls-16" d="M83.48,61.07c-.08-.84-.15-1.68-.26-2.51a16.13,16.13,0,0,0-2-5.71A.93.93,0,0,0,80,52.41a1,1,0,0,0-.3,1.33,14.87,14.87,0,0,1,1.77,9.49,14.19,14.19,0,0,1-1.79,5.24.93.93,0,0,0,.5,1.38c.44.15.88-.08,1.18-.63a17.68,17.68,0,0,0,2.14-8.15m-3.83-.48C79.56,60,79.44,59,79.23,58a10.84,10.84,0,0,0-1.41-3.47.9.9,0,0,0-1.43-.15,1,1,0,0,0,0,1.25,11.23,11.23,0,0,1,0,11.06,1.26,1.26,0,0,0-.16.7.81.81,0,0,0,.7.75.9.9,0,0,0,1-.52,13.87,13.87,0,0,0,1.76-7m-3.86.51a8.87,8.87,0,0,0-1.28-4.76,1,1,0,0,0-1-.54c-.48.11-.79.39-.77.87a2.19,2.19,0,0,0,.32.88A7.3,7.3,0,0,1,74,60.36,7.48,7.48,0,0,1,72.89,65a.89.89,0,0,0,.79,1.37,1,1,0,0,0,.86-.58,8.86,8.86,0,0,0,1.25-4.68M72.25,61c0-.11,0-.31-.06-.52a5,5,0,0,0-1-2.6.9.9,0,0,0-1.31-.26A.92.92,0,0,0,69.73,59a3.65,3.65,0,0,1,0,4.25.9.9,0,0,0,.17,1.32.91.91,0,0,0,1.31-.27,5.64,5.64,0,0,0,1-3.25"/><path class="cls-17" d="M83.48,61.07a17.68,17.68,0,0,1-2.14,8.15c-.3.55-.74.78-1.18.63a.93.93,0,0,1-.5-1.38,14.19,14.19,0,0,0,1.79-5.24,14.91,14.91,0,0,0-1.77-9.5.94.94,0,0,1,.3-1.32.93.93,0,0,1,1.29.44,16.13,16.13,0,0,1,2,5.71,18.38,18.38,0,0,1,.26,2.51"/><path class="cls-17" d="M79.65,60.59a13.87,13.87,0,0,1-1.76,7,.9.9,0,0,1-1,.52.8.8,0,0,1-.7-.75,1.26,1.26,0,0,1,.16-.7,11.23,11.23,0,0,0,0-11.06,1,1,0,0,1,0-1.25.9.9,0,0,1,1.43.15A10.84,10.84,0,0,1,79.23,58a11.33,11.33,0,0,1,.42,2.63"/><path class="cls-17" d="M75.79,61.1a8.86,8.86,0,0,1-1.25,4.68,1,1,0,0,1-.86.58A.89.89,0,0,1,72.89,65,7.48,7.48,0,0,0,74,60.36a7.3,7.3,0,0,0-.86-2.81,2.19,2.19,0,0,1-.32-.88.84.84,0,0,1,.76-.87,1,1,0,0,1,1,.54,8.87,8.87,0,0,1,1.28,4.76"/><path class="cls-17" d="M72.25,61a5.64,5.64,0,0,1-1,3.25.91.91,0,0,1-1.31.27.9.9,0,0,1-.17-1.32,3.65,3.65,0,0,0,0-4.25.92.92,0,0,1,.16-1.33.9.9,0,0,1,1.31.26,5,5,0,0,1,1,2.6c0,.21,0,.41.06.52"/><g class="cls-18"><path class="cls-16" d="M178.6-5.61c-.08,0-.14,0-.14.1v17.2c0,.06.06.1.14.1s.14,0,.14-.1V-5.51C178.74-5.57,178.68-5.61,178.6-5.61Zm26.87,0c-.08,0-.14,0-.14.1v17.2c0,.06.06.1.14.1s.15,0,.15-.1V-5.51C205.62-5.57,205.55-5.61,205.47-5.61Zm-188.09,0c-.08,0-.15,0-.15.1v17.2c0,.06.07.1.15.1s.14,0,.14-.1V-5.51C17.52-5.57,17.46-5.61,17.38-5.61Zm26.87,0c-.08,0-.14,0-.14.1v17.2c0,.06.06.1.14.1s.14,0,.14-.1V-5.51C44.39-5.57,44.32-5.61,44.25-5.61Zm26.87,0c-.08,0-.14,0-.14.1v17.2c0,.06.06.1.14.1s.14,0,.14-.1V-5.51C71.26-5.57,71.2-5.61,71.12-5.61ZM98-5.61c-.08,0-.14,0-.14.1v17.2c0,.06.06.1.14.1s.14,0,.14-.1V-5.51C98.13-5.57,98.07-5.61,98-5.61Zm26.87,0c-.08,0-.14,0-.14.1v17.2c0,.06.06.1.14.1s.14,0,.14-.1V-5.51C125-5.57,124.94-5.61,124.86-5.61Zm26.88,0c-.09,0-.15,0-.15.1v17.2c0,.06.06.1.15.1s.14,0,.14-.1V-5.51C151.88-5.57,151.81-5.61,151.74-5.61Z"/><path class="cls-16" d="M205.38,16.67H205l1.18-3.09H205v.54h-.34v-.84h1.89v.3Z"/><path class="cls-16" d="M18.31,16.15a.93.93,0,0,1-.2.3.79.79,0,0,1-.29.18,1,1,0,0,1-.74,0,.79.79,0,0,1-.29-.18.93.93,0,0,1-.2-.3,1.12,1.12,0,0,1-.07-.38V14.18a1.22,1.22,0,0,1,.07-.38.88.88,0,0,1,.2-.29.81.81,0,0,1,.29-.19,1,1,0,0,1,.74,0,.81.81,0,0,1,.29.19.88.88,0,0,1,.2.29,1,1,0,0,1,.07.38v1.59A.92.92,0,0,1,18.31,16.15ZM18,14.2a.71.71,0,0,0-.15-.46.63.63,0,0,0-.88,0,.71.71,0,0,0-.15.46v1.55a.73.73,0,0,0,.15.47.63.63,0,0,0,.88,0,.73.73,0,0,0,.15-.47Z"/><path class="cls-16" d="M44.31,16.67v-3l-.63.56v-.39l.63-.55h.34v3.39Z"/><path class="cls-16" d="M70.27,16.67v-.3l1.34-1.7a1.38,1.38,0,0,0,.15-.25.69.69,0,0,0,0-.25.64.64,0,0,0-.15-.45.58.58,0,0,0-.44-.16.78.78,0,0,0-.22,0,.4.4,0,0,0-.19.11.43.43,0,0,0-.13.19.78.78,0,0,0,0,.28h-.34a.94.94,0,0,1,.07-.37.79.79,0,0,1,.18-.29.91.91,0,0,1,.3-.19,1.07,1.07,0,0,1,.76,0,.75.75,0,0,1,.3.18.81.81,0,0,1,.19.29,1.12,1.12,0,0,1,.07.38,1,1,0,0,1-.07.35,1.28,1.28,0,0,1-.21.33l-1.18,1.52h1.46v.3Z"/><path class="cls-16" d="M98.94,16.16a1,1,0,0,1-.22.3.79.79,0,0,1-.31.18,1.07,1.07,0,0,1-.39.07,1.52,1.52,0,0,1-.38-.05,1,1,0,0,1-.31-.17.74.74,0,0,1-.21-.28,1,1,0,0,1-.1-.4h.35a.54.54,0,0,0,.21.45.56.56,0,0,0,.2.11,1,1,0,0,0,.24,0,.63.63,0,0,0,.46-.17.59.59,0,0,0,.19-.48.69.69,0,0,0-.16-.49.68.68,0,0,0-.51-.17h-.07v-.31H98a.57.57,0,0,0,.46-.16.64.64,0,0,0,.15-.45.6.6,0,0,0-.17-.46.66.66,0,0,0-.85,0,.65.65,0,0,0-.18.42h-.34a.87.87,0,0,1,.08-.37,1,1,0,0,1,.21-.27.81.81,0,0,1,.3-.17,1,1,0,0,1,.36-.06,1.21,1.21,0,0,1,.38.06,1,1,0,0,1,.29.19.81.81,0,0,1,.19.29.9.9,0,0,1,.07.37.73.73,0,0,1-.46.75.81.81,0,0,1,.52.84A1.07,1.07,0,0,1,98.94,16.16Z"/><path class="cls-16" d="M125.58,16.14v.53h-.34v-.53h-1.36v-.31l1.23-2.55h.37l-1.23,2.55h1v-1h.34v1H126v.31Z"/><path class="cls-16" d="M152.72,16a.71.71,0,0,1-.23.41.77.77,0,0,1-.28.19,1.13,1.13,0,0,1-.39.07,1.19,1.19,0,0,1-.4-.07.71.71,0,0,1-.29-.18.63.63,0,0,1-.16-.26.88.88,0,0,1-.07-.33h.34a.67.67,0,0,0,.17.4.56.56,0,0,0,.41.13.6.6,0,0,0,.42-.15.65.65,0,0,0,.1-.15.55.55,0,0,0,0-.17,1.08,1.08,0,0,0,0-.19v-.18a1.56,1.56,0,0,0,0-.31.66.66,0,0,0-.08-.26.52.52,0,0,0-.17-.19.56.56,0,0,0-.3-.07.7.7,0,0,0-.37.09.45.45,0,0,0-.19.24H151V13.28h1.71v.3h-1.4v1.08a.67.67,0,0,1,.25-.18,1,1,0,0,1,.36-.06.9.9,0,0,1,.34.06.72.72,0,0,1,.25.16,1.43,1.43,0,0,1,.14.2.92.92,0,0,1,.09.23,1,1,0,0,1,0,.24,1.93,1.93,0,0,1,0,.24A2.56,2.56,0,0,1,152.72,16Z"/><path class="cls-16" d="M179.56,16.1a.8.8,0,0,1-.19.32.86.86,0,0,1-.29.21,1,1,0,0,1-.39.07.94.94,0,0,1-.39-.07.77.77,0,0,1-.3-.19.89.89,0,0,1-.19-.31,1.29,1.29,0,0,1-.07-.4,1.19,1.19,0,0,1,.06-.37A1.75,1.75,0,0,1,178,15l.83-1.68h.36l-.76,1.52a1,1,0,0,1,.35-.07,1.06,1.06,0,0,1,.37.07,1,1,0,0,1,.28.2,1,1,0,0,1,.17.31,1,1,0,0,1,.07.39A1.09,1.09,0,0,1,179.56,16.1Zm-.31-.66a.72.72,0,0,0-.12-.21.47.47,0,0,0-.19-.15.53.53,0,0,0-.26-.05.55.55,0,0,0-.43.18.73.73,0,0,0-.16.5.72.72,0,0,0,.16.5.53.53,0,0,0,.43.19.55.55,0,0,0,.44-.19.72.72,0,0,0,.17-.5A1.26,1.26,0,0,0,179.25,15.44Z"/><rect class="cls-16" x="19.98" y="-4.35" width="0.24" height="11.12"/><rect class="cls-16" x="22.66" y="-4.35" width="0.24" height="11.12"/><rect class="cls-16" x="25.35" y="-4.35" width="0.24" height="11.12"/><rect class="cls-16" x="28.03" y="-4.35" width="0.24" height="11.12"/><rect class="cls-16" x="30.72" y="-4.35" width="0.24" height="13.98"/><rect class="cls-16" x="33.41" y="-4.35" width="0.24" height="11.12"/><rect class="cls-16" x="36.09" y="-4.35" width="0.24" height="11.12"/><rect class="cls-16" x="38.78" y="-4.35" width="0.24" height="11.12"/><rect class="cls-16" x="41.46" y="-4.35" width="0.24" height="11.12"/><rect class="cls-16" x="46.84" y="-4.35" width="0.24" height="11.12"/><rect class="cls-16" x="49.53" y="-4.35" width="0.24" height="11.12"/><rect class="cls-16" x="52.21" y="-4.35" width="0.24" height="11.12"/><rect class="cls-16" x="54.9" y="-4.35" width="0.24" height="11.12"/><rect class="cls-16" x="57.58" y="-4.35" width="0.24" height="13.98"/><rect class="cls-16" x="60.27" y="-4.35" width="0.24" height="11.12"/><rect class="cls-16" x="62.95" y="-4.35" width="0.24" height="11.12"/><rect class="cls-16" x="65.64" y="-4.35" width="0.24" height="11.12"/><rect class="cls-16" x="68.32" y="-4.35" width="0.24" height="11.12"/><rect class="cls-16" x="73.7" y="-4.35" width="0.24" height="11.12"/><rect class="cls-16" x="76.39" y="-4.35" width="0.24" height="11.12"/><rect class="cls-16" x="79.08" y="-4.35" width="0.24" height="11.12"/><rect class="cls-16" x="81.76" y="-4.35" width="0.24" height="11.12"/><rect class="cls-16" x="84.45" y="-4.35" width="0.24" height="13.98"/><rect class="cls-16" x="87.13" y="-4.35" width="0.24" height="11.12"/><rect class="cls-16" x="89.82" y="-4.35" width="0.24" height="11.12"/><rect class="cls-16" x="92.5" y="-4.35" width="0.24" height="11.12"/><rect class="cls-16" x="95.19" y="-4.35" width="0.24" height="11.12"/><rect class="cls-16" x="100.57" y="-4.35" width="0.24" height="11.12"/><rect class="cls-16" x="103.25" y="-4.35" width="0.24" height="11.12"/><rect class="cls-16" x="105.94" y="-4.35" width="0.24" height="11.12"/><rect class="cls-16" x="108.62" y="-4.35" width="0.24" height="11.12"/><rect class="cls-16" x="111.31" y="-4.35" width="0.24" height="13.98"/><rect class="cls-16" x="113.99" y="-4.35" width="0.24" height="11.12"/><rect class="cls-16" x="116.68" y="-4.35" width="0.24" height="11.12"/><rect class="cls-16" x="119.36" y="-4.35" width="0.24" height="11.12"/><rect class="cls-16" x="122.05" y="-4.35" width="0.24" height="11.12"/><rect class="cls-16" x="127.43" y="-4.35" width="0.24" height="11.12"/><rect class="cls-16" x="130.12" y="-4.35" width="0.24" height="11.12"/><rect class="cls-16" x="132.8" y="-4.35" width="0.24" height="11.12"/><rect class="cls-16" x="135.48" y="-4.35" width="0.24" height="11.12"/><rect class="cls-16" x="138.17" y="-4.35" width="0.24" height="13.98"/><rect class="cls-16" x="140.86" y="-4.35" width="0.24" height="11.12"/><rect class="cls-16" x="143.54" y="-4.35" width="0.24" height="11.12"/><rect class="cls-16" x="146.23" y="-4.35" width="0.24" height="11.12"/><rect class="cls-16" x="148.91" y="-4.35" width="0.24" height="11.12"/><rect class="cls-16" x="154.29" y="-4.35" width="0.24" height="11.12"/><rect class="cls-16" x="156.98" y="-4.35" width="0.24" height="11.12"/><rect class="cls-16" x="159.66" y="-4.35" width="0.24" height="11.12"/><rect class="cls-16" x="162.35" y="-4.35" width="0.24" height="11.12"/><rect class="cls-16" x="165.03" y="-4.35" width="0.24" height="13.98"/><rect class="cls-16" x="167.72" y="-4.35" width="0.24" height="11.12"/><rect class="cls-16" x="170.41" y="-4.35" width="0.24" height="11.12"/><rect class="cls-16" x="173.09" y="-4.35" width="0.24" height="11.12"/><rect class="cls-16" x="175.77" y="-4.35" width="0.24" height="11.12"/><rect class="cls-16" x="181.16" y="-4.35" width="0.24" height="11.12"/><rect class="cls-16" x="183.84" y="-4.35" width="0.24" height="11.12"/><rect class="cls-16" x="186.52" y="-4.35" width="0.24" height="11.12"/><rect class="cls-16" x="189.21" y="-4.35" width="0.24" height="11.12"/><rect class="cls-16" x="191.89" y="-4.35" width="0.24" height="13.98"/><rect class="cls-16" x="194.58" y="-4.35" width="0.24" height="11.12"/><rect class="cls-16" x="197.27" y="-4.35" width="0.24" height="11.12"/><rect class="cls-16" x="199.95" y="-4.35" width="0.24" height="11.12"/><rect class="cls-16" x="202.64" y="-4.35" width="0.24" height="11.12"/><rect class="cls-16" x="208.02" y="-4.35" width="0.24" height="11.12"/><rect class="cls-16" x="210.7" y="-4.35" width="0.24" height="11.12"/><rect class="cls-16" x="213.39" y="-4.35" width="0.24" height="11.12"/><rect class="cls-16" x="216.07" y="-4.35" width="0.24" height="11.12"/><rect class="cls-16" x="218.76" y="-4.35" width="0.24" height="13.98"/></g><polygon class="cls-16" points="187.62 130.94 190.08 115.71 194.02 115.71 191.55 130.94 187.62 130.94"/><path class="cls-16" d="M205.82,116.08a9.86,9.86,0,0,0-3.52-.64c-3.89,0-6.63,2.07-6.65,5,0,2.19,1.95,3.41,3.45,4.14s2,1.22,2,1.88c0,1-1.21,1.49-2.35,1.49a8,8,0,0,1-3.7-.79l-.51-.25-.55,3.41a11.79,11.79,0,0,0,4.38.82c4.14,0,6.82-2,6.85-5.21,0-1.73-1-3-3.3-4.14-1.38-.7-2.22-1.17-2.21-1.89s.71-1.31,2.25-1.31a6.94,6.94,0,0,1,2.95.59l.35.17.53-3.3"/><path class="cls-16" d="M215.92,115.72h-3a1.93,1.93,0,0,0-2.05,1.26l-5.85,14h4.13s.67-1.87.83-2.29l5,0,.48,2.27h3.65l-3.18-15.22m-4.86,9.82c.33-.88,1.57-4.26,1.57-4.26s.32-.88.52-1.45l.27,1.31s.75,3.64.91,4.4Z"/><path class="cls-16" d="M184.32,115.72l-3.85,10.39-.41-2.12a11.67,11.67,0,0,0-5.45-6.39l3.52,13.32h4.16l6.2-15.2h-4.17"/><path class="cls-16" d="M176.9,115.71h-6.34l-.06.31c4.94,1.26,8.2,4.31,9.56,8l-1.38-7a1.65,1.65,0,0,0-1.78-1.28"/><path class="cls-16" d="M203,138v.26c0,.29,0,.53,0,.74a2.41,2.41,0,0,1-.15.63,1.73,1.73,0,0,1-.35.54,1.89,1.89,0,0,1-1.36.49h-1.85v-5.25h1.85a1.85,1.85,0,0,1,1.36.49,1.69,1.69,0,0,1,.35.53,2,2,0,0,1,.15.59c0,.2,0,.44,0,.71Zm-.79,0c0-.3,0-.54,0-.7a1.7,1.7,0,0,0-.08-.46.94.94,0,0,0-.18-.36,1.19,1.19,0,0,0-.9-.35h-1V140h1a1.15,1.15,0,0,0,.9-.35,1,1,0,0,0,.23-.56A8.39,8.39,0,0,0,202.18,138Z"/><path class="cls-16" d="M207.51,140.7h-3.37v-5.25h3.37v.72H205v1.53h2.18v.71H205V140h2.56Z"/><path class="cls-16" d="M212.31,139.22a1.62,1.62,0,0,1-.2.81,1.36,1.36,0,0,1-.56.5,2,2,0,0,1-.83.17h-2.13v-5.25h2a1.89,1.89,0,0,1,.84.18,1.21,1.21,0,0,1,.55.5,1.43,1.43,0,0,1,.19.76,1.33,1.33,0,0,1-.09.49,1.13,1.13,0,0,1-.27.39.93.93,0,0,1-.34.23,1.33,1.33,0,0,1,.56.44A1.31,1.31,0,0,1,212.31,139.22Zm-.88-2.3a.78.78,0,0,0-.11-.41.73.73,0,0,0-.29-.26,1.26,1.26,0,0,0-.46-.08h-1.18v1.5h1.18a1,1,0,0,0,.63-.2A.7.7,0,0,0,211.43,136.92Zm.08,2.26a.82.82,0,0,0-.1-.42.72.72,0,0,0-.3-.27,1,1,0,0,0-.46-.1h-1.26V140h1.26a1,1,0,0,0,.46-.1.74.74,0,0,0,.3-.28A.82.82,0,0,0,211.51,139.18Z"/><path class="cls-16" d="M214.28,140.7h-.8v-5.25h.8Z"/><path class="cls-16" d="M218.87,136.17h-1.44v4.53h-.8v-4.53h-1.45v-.72h3.69Z"/></g><polygon class="cls-16" points="46.29 63.54 53.29 63.62 53.33 59.16 46.32 59.08 46.29 63.54"/><path class="cls-16" d="M46.27,65.29l0,5,4.78.05c1.23,0,2.23-.68,2.23-1.54l0-3.46Z"/><path class="cls-16" d="M43.85,57.31h0l9.48.1,0-3.63c0-.86-1-1.57-2.21-1.58l-14-.16L37,70.21l6.76.08Z"/><path class="cls-16" d="M34.62,57.2l0-5.18L29.77,52c-1.22,0-2.22.68-2.23,1.54l0,3.63Z"/><polygon class="cls-16" points="34.6 58.95 27.5 58.87 27.47 63.34 34.57 63.41 34.6 58.95"/><path class="cls-16" d="M34.55,65.16l-7.1-.08,0,3.46c0,.87,1,1.58,2.21,1.59l4.88.06Z"/></g></g></svg>