<svg xmlns="http://www.w3.org/2000/svg" xmlns:xlink="http://www.w3.org/1999/xlink" viewBox="0 0 235 150"><defs><style>.cls-1{fill:none;}.cls-2{isolation:isolate;}.cls-3{clip-path:url(#clip-path);}.cls-4{fill:#79bb43;}.cls-5{fill:#00a1d6;}.cls-6{clip-path:url(#clip-path-2);}.cls-10,.cls-11,.cls-12,.cls-7,.cls-8,.cls-9{mix-blend-mode:multiply;}.cls-7{fill:url(#linear-gradient);}.cls-8{fill:url(#linear-gradient-2);}.cls-9{fill:url(#linear-gradient-3);}.cls-11{fill:url(#linear-gradient-4);}.cls-12{fill:url(#linear-gradient-5);}.cls-13{font-size:7.7px;}.cls-13,.cls-14,.cls-15,.cls-16,.cls-17{fill:#fff;}.cls-13,.cls-14{font-family:JeniusSansDraft-Regular, Jenius Sans Draft;}.cls-14{font-size:4.81px;}.cls-15{font-size:13.47px;font-family:JeniusSansDraft-Bold, Jenius Sans Draft;font-weight:700;}.cls-17{fill-rule:evenodd;}.cls-18{clip-path:url(#clip-path-3);}</style><clipPath id="clip-path"><path class="cls-1" d="M224,148.65H11a9.54,9.54,0,0,1-9.48-9.54V10.89A9.54,9.54,0,0,1,11,1.35H224a9.54,9.54,0,0,1,9.48,9.54V139.11a9.54,9.54,0,0,1-9.48,9.54"/></clipPath><clipPath id="clip-path-2"><path class="cls-1" d="M11.22,165.16a25.9,25.9,0,0,1-25.84-25.91V11A25.9,25.9,0,0,1,11.22-14.88H224.14A25.91,25.91,0,0,1,250,11V139.25a25.91,25.91,0,0,1-25.85,25.91Z"/></clipPath><linearGradient id="linear-gradient" x1="2882.24" y1="-685.49" x2="3070.72" y2="-500.37" gradientTransform="translate(2964.63 874.05) rotate(-154.49)" gradientUnits="userSpaceOnUse"><stop offset="0" stop-color="#1b75bb"/><stop offset="0.99" stop-color="#1b75bb" stop-opacity="0"/></linearGradient><linearGradient id="linear-gradient-2" x1="2981.88" y1="-361.11" x2="2887" y2="-256.56" gradientTransform="translate(2806.47 1129.36) rotate(-152.23)" xlink:href="#linear-gradient"/><linearGradient id="linear-gradient-3" x1="3054.17" y1="-673.14" x2="3078.28" y2="-423.37" xlink:href="#linear-gradient"/><linearGradient id="linear-gradient-4" x1="3698.11" y1="-651.68" x2="3709.73" y2="-465.91" gradientTransform="translate(3716.99 -294.84) rotate(-176.42)" xlink:href="#linear-gradient"/><linearGradient id="linear-gradient-5" x1="3697.58" y1="-648.67" x2="3709.19" y2="-462.9" gradientTransform="translate(3716.99 -294.84) rotate(-176.42)" gradientUnits="userSpaceOnUse"><stop offset="0" stop-color="#7aba43"/><stop offset="0.99" stop-color="#7aba43" stop-opacity="0"/></linearGradient><clipPath id="clip-path-3"><rect class="cls-1" x="14.35" y="-3.74" width="207.43" height="24.28"/></clipPath></defs><title>x-card-biru gpn</title><g class="cls-2"><g id="Layer_1" data-name="Layer 1"><g class="cls-3"><path class="cls-4" d="M11,165a25.91,25.91,0,0,1-25.85-25.91V10.89A25.91,25.91,0,0,1,11-15H224A25.9,25.9,0,0,1,249.8,10.89V139.11A25.9,25.9,0,0,1,224,165Z"/><path class="cls-5" d="M11,165a25.91,25.91,0,0,1-25.85-25.91V10.89A25.91,25.91,0,0,1,11-15H224A25.9,25.9,0,0,1,249.8,10.89V139.11A25.9,25.9,0,0,1,224,165Z"/><g class="cls-6"><path class="cls-7" d="M-67,50.37A90.75,90.75,0,0,0-70.83,66a80.09,80.09,0,0,0-.81,16.87l.39,3.7s.34,2.49.46,3.23a72.45,72.45,0,0,0,12.71,30.35,49.32,49.32,0,0,0,3.89,4.71,82,82,0,0,0,10.35,10c2.14,1.76,4.38,3.43,6.74,5a108.11,108.11,0,0,0,25.67,12.56l5.08,1.69c2.91-.86,5.89-1.87,8.54-2.81a104.78,104.78,0,0,0,15.48-6.47c.38-.19,3.16-1.63,4.94-2.68A104.12,104.12,0,0,0,68.83,85.55,104.16,104.16,0,0,0,74.09,43.9a76.68,76.68,0,0,0-4.59-7.84C60.63,22.81,47,11.54,27.78,5-8.73-7.36-52.95,8.86-67,50.37ZM26.77,15C49.31,22.61,64.27,46.26,63,74.41a80.26,80.26,0,0,1-4.25,22.21c-9.71,28.59-37.61,45.9-65.2,40.17a54.17,54.17,0,0,1-6.31-1.71C-43.9,124.5-57.61,85.69-48.32,58.34-35.77,21.35-4.79,4.25,26.77,15Z"/><path class="cls-8" d="M42-46.9A89.45,89.45,0,0,1,52.69-44c42.88,14.56,74.07,71.37,56.56,123-8.53,25.13-24.9,47.57-50.46,57.75h0c-2.19,2.58-4.8,5.61-6,6.83,0,0,0,0,0,0a90.63,90.63,0,0,1-16.24,13.88l-.84.57c44.31-3.75,85.32-31.85,99.32-73.06C156.74,21.07,115.3-35.6,49.71-57.85c-10.77-3.67-21.85-4.77-32.25-5.58A90.09,90.09,0,0,1,42-46.9Z"/><path class="cls-9" d="M-159.77,3.68c-22.94,67.6,12.38,140.3,86,165.3,24.39,8.27,60.35,10.61,91.83-1.94a105.28,105.28,0,0,0,17.65-9,90.19,90.19,0,0,0,17.08-14.45s0,0,0,0c1.16-1.22,3.77-4.25,6-6.83l3.54-4.2h0a88.16,88.16,0,0,0,12.26-20.3,101.42,101.42,0,0,0,4.84-11.76C98.32,44.83,83.57-11.67,42.23-46.69L42-46.9h0A90.09,90.09,0,0,0,17.46-63.43h-.08L17-63.61a145.81,145.81,0,0,0-21-9C-65.93-93.61-137.5-61.92-159.77,3.68Zm83.94-56.42A115.16,115.16,0,0,1-53.9-59.83a100.06,100.06,0,0,1,28.5-2.3c2.86.15,8.44.81,8.55.82s0,0,0,0A99.09,99.09,0,0,1,.88-56.94,102.63,102.63,0,0,1,18.59-49h0s0,0,0,0C45-33.89,63.08-7.68,70.49,20.57a113.29,113.29,0,0,1,3.63,23.36l0,0a103.87,103.87,0,0,1-5.25,41.66A104,104,0,0,1,23.56,141.6c-1.23.73-3,1.82-6.45,3.55a105.32,105.32,0,0,1-14.89,6.16c-3.18,1.13-6.85,2.36-10.3,3.31A116.58,116.58,0,0,1-79,153.87c-55.24-18.74-79.2-85.37-62.55-134.45A120.45,120.45,0,0,1-75.83-52.74Z"/><g class="cls-10"><path class="cls-11" d="M-34.18,120.73c.85.8,4.56,4.11,4.56,4.11a50.7,50.7,0,0,1-3.9-4.7h0A72.48,72.48,0,0,1-46.24,89.79c-.11-.74-.46-3.23-.46-3.23-.09-.22,0,0,0,0-10-20.62-12.26-45.64-3.29-72.07C-39-17.77-7.85-41,26.88-47.33A106.68,106.68,0,0,1,43.05-49h.1a102.73,102.73,0,0,0-17.72-7.92A99.2,99.2,0,0,0,7.73-61.3h0a113.37,113.37,0,0,0-27.25,9.74C-41.75-40-58.9-21.1-66.9,2.46-87.35,62.72-48,107.39-34.18,120.73Z"/></g><g class="cls-10"><path class="cls-12" d="M-33.46,117.76c.85.81,4.56,4.11,4.56,4.11a50.7,50.7,0,0,1-3.9-4.7h0A72.56,72.56,0,0,1-45.52,86.82c-.11-.74-.45-3.23-.45-3.23h0C-55.92,63-58.23,38-49.26,11.52-38.3-20.74-7.13-44,27.6-50.29A104.19,104.19,0,0,1,43.77-52h.09a102.32,102.32,0,0,0-17.71-7.93,100.06,100.06,0,0,0-17.7-4.36h0A113.39,113.39,0,0,0-18.8-54.52C-41-43-58.18-24.06-66.18-.51-86.64,59.75-47.28,104.43-33.46,117.76Z"/></g></g><text class="cls-13" transform="translate(83 112.49)">04/18</text><text class="cls-14" transform="translate(23.83 102.65)">1234</text><text class="cls-14" transform="translate(84.12 103.2)">VALID THRU</text><text class="cls-15" transform="translate(24 94.06)"><tspan xml:space="preserve">1234    5678    1234    5678 </tspan></text><path class="cls-16" d="M199.48,35.75c0-5.6-4.45-10.12-10.56-10.12a10.51,10.51,0,0,0-7.85,3.58,9,9,0,0,0-5.53,7.93c0,5.29,4.5,8.45,9.94,8.45A10.38,10.38,0,0,0,188,45.2a12,12,0,0,0,1.82.13A9.64,9.64,0,0,0,199.48,35.75Zm-9.78-9.12c4.58,0,8,4.34,8,8.41a9.21,9.21,0,0,1-7.22,9.13,7.76,7.76,0,0,0,3.93-6.61c0-6-5.85-8.15-5.85-8.15a7.65,7.65,0,0,0-3.88-1h-.41A9.13,9.13,0,0,1,189.7,26.63Zm-4.45,3.06a4.92,4.92,0,0,1,4.58,4.8c0,3.07-1.88,5.12-4.49,5.12-2.34,0-4.43-2.17-4.43-5.27A4.49,4.49,0,0,1,185.25,29.69Zm-.34,15c-3.56,0-7.31-3.43-7.31-7.71a7.15,7.15,0,0,1,2.31-5.58,6.61,6.61,0,0,0-.57,2.24,8,8,0,0,0-.06,1,10.43,10.43,0,0,0,6.5,10A8.46,8.46,0,0,1,184.91,44.64Zm2.65-.49a9,9,0,0,1-6.46-5.5,6.16,6.16,0,0,0,4.41,1.72,5.81,5.81,0,0,0,5.91-5.75,6.37,6.37,0,0,0-.6-2.8,7.36,7.36,0,0,1,2.06,5.27A7.91,7.91,0,0,1,187.56,44.15Zm-32.91,21.6c0,2-1.24,3-3.88,3.13v3c3,0,6.79-1.63,6.79-6.11V51.17h-2.91Zm17.22-8.3c0-2.31-1.26-6.56-5.94-6.56-4.44,0-6,3.72-6,7.58S161.51,66,166.61,66a8.63,8.63,0,0,0,5.15-1.76L170.27,62a6.87,6.87,0,0,1-3.66,1.22A3.43,3.43,0,0,1,163.06,60h6.14C171,60,171.87,59.32,171.87,57.45ZM163,57.18c.18-1.83,1-3.42,2.89-3.42s2.69,1.59,2.88,3.42ZM179.8,50.9a6.89,6.89,0,0,0-5.51,3v12h2.93v-11a3.47,3.47,0,0,1,2.58-1.1,2.84,2.84,0,0,1,2.87,2.87v9.24h2.92V56.63A5.59,5.59,0,0,0,179.8,50.9Zm9,15h2.91V51.06h-2.91Zm25-9h0c-1-.27-2.28-.77-2.28-1.79,0-.74.77-1.35,2.23-1.35a9.9,9.9,0,0,1,3.74,1l.94-2.61a11.4,11.4,0,0,0-4.68-1.21c-2.53,0-5.18,1.29-5.18,4.21,0,2.7,2.37,4,4.72,4.63,1.26.27,2.85.8,2.85,1.84s-1.29,1.59-2.55,1.59a10.74,10.74,0,0,1-4.24-1.48l-1.13,2.73A12.41,12.41,0,0,0,213.63,66c2.66,0,5.47-1.27,5.47-4.46S216,57.45,213.82,56.9Zm-10.38,3.41a2.85,2.85,0,1,1-5.7,0V51.06h-2.92v9.25A5.59,5.59,0,0,0,200.57,66h0a5.58,5.58,0,0,0,5.74-5.73V51.06h-2.91Z"/><path class="cls-16" d="M83.15,60.94c-.08-.85-.14-1.69-.26-2.54a16.14,16.14,0,0,0-2-5.76.94.94,0,0,0-1.31-.45,1,1,0,0,0-.3,1.35,14.94,14.94,0,0,1,1.79,9.58,14.34,14.34,0,0,1-1.81,5.29.93.93,0,0,0,.51,1.39c.44.15.89-.08,1.18-.63a17.68,17.68,0,0,0,2.16-8.23m-3.86-.49c-.09-.57-.21-1.62-.42-2.65a11.2,11.2,0,0,0-1.43-3.51A.9.9,0,0,0,76,54.15c-.32.32-.32.74,0,1.26a11.13,11.13,0,0,1,1.32,7.39,11.49,11.49,0,0,1-1.34,3.77,1.29,1.29,0,0,0-.17.71.84.84,0,0,0,.71.76.92.92,0,0,0,1-.53,14,14,0,0,0,1.78-7.06m-3.9.52a8.94,8.94,0,0,0-1.29-4.81,1,1,0,0,0-1-.54c-.48.11-.8.39-.78.87a2.24,2.24,0,0,0,.33.9,7.27,7.27,0,0,1,.86,2.83,7.47,7.47,0,0,1-1.08,4.67.91.91,0,0,0,.8,1.39,1,1,0,0,0,.87-.59A8.83,8.83,0,0,0,75.39,61m-3.57-.08c0-.12,0-.32-.06-.53a5.24,5.24,0,0,0-1-2.63.9.9,0,0,0-1.32-.25.92.92,0,0,0-.16,1.34,3.66,3.66,0,0,1,0,4.29.92.92,0,0,0,.18,1.34.93.93,0,0,0,1.32-.28,5.75,5.75,0,0,0,1-3.28"/><path class="cls-17" d="M83.15,60.94A17.68,17.68,0,0,1,81,69.17c-.29.55-.74.78-1.18.63a.93.93,0,0,1-.51-1.39,14.34,14.34,0,0,0,1.81-5.29,15,15,0,0,0-1.79-9.59,1,1,0,0,1,.3-1.34.94.94,0,0,1,1.31.45,16.14,16.14,0,0,1,2,5.76,17.48,17.48,0,0,1,.26,2.54"/><path class="cls-17" d="M79.29,60.45a14,14,0,0,1-1.78,7.06.92.92,0,0,1-1,.53.83.83,0,0,1-.71-.76,1.29,1.29,0,0,1,.17-.71,11.49,11.49,0,0,0,1.34-3.77A11.13,11.13,0,0,0,76,55.41c-.28-.52-.28-.94,0-1.26a.9.9,0,0,1,1.44.14,10.94,10.94,0,0,1,1.42,3.51,11.12,11.12,0,0,1,.43,2.65"/><path class="cls-17" d="M75.39,61a8.83,8.83,0,0,1-1.26,4.72,1,1,0,0,1-.87.59.91.91,0,0,1-.8-1.39,7.47,7.47,0,0,0,1.08-4.67,7.27,7.27,0,0,0-.86-2.83,2.24,2.24,0,0,1-.33-.9c0-.48.3-.76.78-.87a1,1,0,0,1,1,.54A8.94,8.94,0,0,1,75.39,61"/><path class="cls-17" d="M71.82,60.89a5.75,5.75,0,0,1-1,3.28.93.93,0,0,1-1.32.28.92.92,0,0,1-.18-1.34,3.66,3.66,0,0,0,0-4.29.92.92,0,0,1,.16-1.34.9.9,0,0,1,1.32.25,5.24,5.24,0,0,1,1,2.63c0,.21,0,.41.06.53"/><g class="cls-18"><path class="cls-16" d="M179.19-6.37c-.09,0-.15,0-.15.1V11.09c0,.06.06.1.15.1s.14,0,.14-.1V-6.27C179.33-6.33,179.26-6.37,179.19-6.37Zm27.12,0c-.08,0-.14,0-.14.1V11.09c0,.06.06.1.14.1s.14,0,.14-.1V-6.27C206.45-6.33,206.39-6.37,206.31-6.37Zm-189.88,0c-.08,0-.15,0-.15.1V11.09c0,.06.07.1.15.1s.14,0,.14-.1V-6.27C16.57-6.33,16.51-6.37,16.43-6.37Zm27.12,0c-.08,0-.14,0-.14.1V11.09c0,.06.06.1.14.1s.14,0,.14-.1V-6.27C43.69-6.33,43.63-6.37,43.55-6.37Zm27.13,0c-.08,0-.15,0-.15.1V11.09c0,.06.07.1.15.1s.14,0,.14-.1V-6.27C70.82-6.33,70.76-6.37,70.68-6.37Zm27.13,0c-.09,0-.15,0-.15.1V11.09c0,.06.06.1.15.1s.14,0,.14-.1V-6.27C98-6.33,97.88-6.37,97.81-6.37Zm27.12,0c-.08,0-.15,0-.15.1V11.09c0,.06.07.1.15.1s.14,0,.14-.1V-6.27C125.07-6.33,125-6.37,124.93-6.37Zm27.13,0c-.08,0-.15,0-.15.1V11.09c0,.06.07.1.15.1s.14,0,.14-.1V-6.27C152.2-6.33,152.14-6.37,152.06-6.37Z"/><path class="cls-16" d="M206.21,16.12h-.37L207,13h-1.2v.54h-.34V12.7h1.9V13Z"/><path class="cls-16" d="M17.37,15.59a.93.93,0,0,1-.2.3.85.85,0,0,1-.3.19,1,1,0,0,1-.74,0,.85.85,0,0,1-.3-.19.93.93,0,0,1-.2-.3,1.17,1.17,0,0,1-.07-.38v-1.6a1.23,1.23,0,0,1,.07-.39,1,1,0,0,1,.2-.3,1,1,0,0,1,.3-.19,1.17,1.17,0,0,1,.74,0,1,1,0,0,1,.3.19,1,1,0,0,1,.2.3,1,1,0,0,1,.07.39v1.6A1,1,0,0,1,17.37,15.59Zm-.28-2a.72.72,0,0,0-.15-.47A.55.55,0,0,0,16.5,13a.54.54,0,0,0-.44.19.72.72,0,0,0-.15.47v1.56a.75.75,0,0,0,.15.47.53.53,0,0,0,.44.18.54.54,0,0,0,.44-.18.75.75,0,0,0,.15-.47Z"/><path class="cls-16" d="M43.61,16.12v-3l-.64.56v-.39l.64-.55H44v3.42Z"/><path class="cls-16" d="M69.82,16.12v-.31l1.36-1.71a1.28,1.28,0,0,0,.14-.25.75.75,0,0,0,.05-.26.61.61,0,0,0-.16-.45.57.57,0,0,0-.44-.17.62.62,0,0,0-.23,0,.52.52,0,0,0-.19.11.7.7,0,0,0-.13.19.82.82,0,0,0,0,.28h-.35a.94.94,0,0,1,.07-.37.7.7,0,0,1,.19-.29,1,1,0,0,1,.29-.2,1.3,1.3,0,0,1,.78,0,.92.92,0,0,1,.3.18,1,1,0,0,1,.19.3,1.12,1.12,0,0,1,.07.38,1,1,0,0,1-.07.36,2.21,2.21,0,0,1-.21.33l-1.2,1.53h1.48v.31Z"/><path class="cls-16" d="M98.76,15.6a1.16,1.16,0,0,1-.22.31.77.77,0,0,1-.32.18,1.23,1.23,0,0,1-.39.06,1.2,1.2,0,0,1-.38,0,.85.85,0,0,1-.31-.17.88.88,0,0,1-.22-.28,1,1,0,0,1-.09-.4h.34a.71.71,0,0,0,.07.27.7.7,0,0,0,.15.19.75.75,0,0,0,.2.1l.24,0a.65.65,0,0,0,.47-.17.6.6,0,0,0,.19-.49.71.71,0,0,0-.16-.49.7.7,0,0,0-.51-.17h-.07v-.31h.07a.62.62,0,0,0,.46-.16.69.69,0,0,0,.15-.46.57.57,0,0,0-.6-.62.59.59,0,0,0-.43.15.71.71,0,0,0-.19.42h-.34a1.06,1.06,0,0,1,.09-.37.85.85,0,0,1,.51-.45,1,1,0,0,1,.36-.06,1,1,0,0,1,.39.07.79.79,0,0,1,.29.18.85.85,0,0,1,.19.3.92.92,0,0,1,.08.38.74.74,0,0,1-.47.75.82.82,0,0,1,.53.84A1.08,1.08,0,0,1,98.76,15.6Z"/><path class="cls-16" d="M125.66,15.58v.54h-.35v-.54H124v-.32l1.23-2.56h.37l-1.24,2.56h1v-1h.35v1h.42v.31Z"/><path class="cls-16" d="M153.06,15.48a.81.81,0,0,1-.24.42.92.92,0,0,1-.28.19,1.16,1.16,0,0,1-.4.06,1.25,1.25,0,0,1-.4-.06,1,1,0,0,1-.29-.18,1,1,0,0,1-.17-.27,1.6,1.6,0,0,1-.07-.33h.35a.67.67,0,0,0,.17.4.56.56,0,0,0,.41.13.61.61,0,0,0,.43-.15.65.65,0,0,0,.1-.15.53.53,0,0,0,.05-.18,1.13,1.13,0,0,0,0-.18V15a1.56,1.56,0,0,0,0-.31.72.72,0,0,0-.08-.26.47.47,0,0,0-.18-.19.5.5,0,0,0-.29-.07.71.71,0,0,0-.38.09.44.44,0,0,0-.19.25h-.31V12.7H153V13h-1.42v1.08a.92.92,0,0,1,.25-.17,1,1,0,0,1,.36-.06,1,1,0,0,1,.35.06.87.87,0,0,1,.25.15,1.28,1.28,0,0,1,.14.21.65.65,0,0,1,.09.23,2,2,0,0,1,0,.24,2.09,2.09,0,0,1,0,.25A2.63,2.63,0,0,1,153.06,15.48Z"/><path class="cls-16" d="M180.15,15.54a1.13,1.13,0,0,1-.19.32.81.81,0,0,1-.3.21,1,1,0,0,1-.39.08.94.94,0,0,1-.39-.07.92.92,0,0,1-.31-.2.87.87,0,0,1-.18-.31,1.07,1.07,0,0,1-.07-.41,1.22,1.22,0,0,1,.05-.37,3.69,3.69,0,0,1,.16-.4l.85-1.69h.35L179,14.23a1,1,0,0,1,.36-.07,1,1,0,0,1,.36.07.83.83,0,0,1,.28.21.75.75,0,0,1,.18.3,1,1,0,0,1,.07.39A1.1,1.1,0,0,1,180.15,15.54Zm-.32-.66a.51.51,0,0,0-.11-.22.7.7,0,0,0-.19-.15.58.58,0,0,0-.26,0,.56.56,0,0,0-.44.18.77.77,0,0,0-.17.51.72.72,0,0,0,.17.5.53.53,0,0,0,.44.19.56.56,0,0,0,.44-.19.72.72,0,0,0,.16-.5A.77.77,0,0,0,179.83,14.88Z"/><rect class="cls-16" x="19.05" y="-5.1" width="0.24" height="11.23"/><rect class="cls-16" x="21.76" y="-5.1" width="0.24" height="11.23"/><rect class="cls-16" x="24.48" y="-5.1" width="0.24" height="11.23"/><rect class="cls-16" x="27.18" y="-5.1" width="0.24" height="11.23"/><rect class="cls-16" x="29.9" y="-5.1" width="0.24" height="14.12"/><rect class="cls-16" x="32.61" y="-5.1" width="0.24" height="11.23"/><rect class="cls-16" x="35.32" y="-5.1" width="0.24" height="11.23"/><rect class="cls-16" x="38.03" y="-5.1" width="0.24" height="11.23"/><rect class="cls-16" x="40.74" y="-5.1" width="0.24" height="11.23"/><rect class="cls-16" x="46.17" y="-5.1" width="0.24" height="11.23"/><rect class="cls-16" x="48.88" y="-5.1" width="0.24" height="11.23"/><rect class="cls-16" x="51.59" y="-5.1" width="0.24" height="11.23"/><rect class="cls-16" x="54.3" y="-5.1" width="0.24" height="11.23"/><rect class="cls-16" x="57.01" y="-5.1" width="0.24" height="14.12"/><rect class="cls-16" x="59.73" y="-5.1" width="0.24" height="11.23"/><rect class="cls-16" x="62.43" y="-5.1" width="0.24" height="11.23"/><rect class="cls-16" x="65.15" y="-5.1" width="0.24" height="11.23"/><rect class="cls-16" x="67.86" y="-5.1" width="0.24" height="11.23"/><rect class="cls-16" x="73.29" y="-5.1" width="0.24" height="11.23"/><rect class="cls-16" x="76" y="-5.1" width="0.24" height="11.23"/><rect class="cls-16" x="78.71" y="-5.1" width="0.24" height="11.23"/><rect class="cls-16" x="81.42" y="-5.1" width="0.24" height="11.23"/><rect class="cls-16" x="84.13" y="-5.1" width="0.24" height="14.12"/><rect class="cls-16" x="86.84" y="-5.1" width="0.24" height="11.23"/><rect class="cls-16" x="89.55" y="-5.1" width="0.24" height="11.23"/><rect class="cls-16" x="92.26" y="-5.1" width="0.24" height="11.23"/><rect class="cls-16" x="94.98" y="-5.1" width="0.24" height="11.23"/><rect class="cls-16" x="100.41" y="-5.1" width="0.24" height="11.23"/><rect class="cls-16" x="103.12" y="-5.1" width="0.24" height="11.23"/><rect class="cls-16" x="105.83" y="-5.1" width="0.24" height="11.23"/><rect class="cls-16" x="108.54" y="-5.1" width="0.24" height="11.23"/><rect class="cls-16" x="111.25" y="-5.1" width="0.24" height="14.12"/><rect class="cls-16" x="113.96" y="-5.1" width="0.24" height="11.23"/><rect class="cls-16" x="116.67" y="-5.1" width="0.24" height="11.23"/><rect class="cls-16" x="119.38" y="-5.1" width="0.24" height="11.23"/><rect class="cls-16" x="122.09" y="-5.1" width="0.24" height="11.23"/><rect class="cls-16" x="127.52" y="-5.1" width="0.24" height="11.23"/><rect class="cls-16" x="130.24" y="-5.1" width="0.24" height="11.23"/><rect class="cls-16" x="132.94" y="-5.1" width="0.24" height="11.23"/><rect class="cls-16" x="135.65" y="-5.1" width="0.24" height="11.23"/><rect class="cls-16" x="138.37" y="-5.1" width="0.24" height="14.12"/><rect class="cls-16" x="141.08" y="-5.1" width="0.24" height="11.23"/><rect class="cls-16" x="143.79" y="-5.1" width="0.24" height="11.23"/><rect class="cls-16" x="146.5" y="-5.1" width="0.24" height="11.23"/><rect class="cls-16" x="149.21" y="-5.1" width="0.24" height="11.23"/><rect class="cls-16" x="154.64" y="-5.1" width="0.24" height="11.23"/><rect class="cls-16" x="157.35" y="-5.1" width="0.24" height="11.23"/><rect class="cls-16" x="160.06" y="-5.1" width="0.24" height="11.23"/><rect class="cls-16" x="162.77" y="-5.1" width="0.24" height="11.23"/><rect class="cls-16" x="165.49" y="-5.1" width="0.24" height="14.12"/><rect class="cls-16" x="168.19" y="-5.1" width="0.24" height="11.23"/><rect class="cls-16" x="170.91" y="-5.1" width="0.24" height="11.23"/><rect class="cls-16" x="173.62" y="-5.1" width="0.24" height="11.23"/><rect class="cls-16" x="176.33" y="-5.1" width="0.24" height="11.23"/><rect class="cls-16" x="181.76" y="-5.1" width="0.24" height="11.23"/><rect class="cls-16" x="184.47" y="-5.1" width="0.24" height="11.23"/><rect class="cls-16" x="187.18" y="-5.1" width="0.24" height="11.23"/><rect class="cls-16" x="189.89" y="-5.1" width="0.24" height="11.23"/><rect class="cls-16" x="192.6" y="-5.1" width="0.24" height="14.12"/><rect class="cls-16" x="195.31" y="-5.1" width="0.24" height="11.23"/><rect class="cls-16" x="198.02" y="-5.1" width="0.24" height="11.23"/><rect class="cls-16" x="200.74" y="-5.1" width="0.24" height="11.23"/><rect class="cls-16" x="203.44" y="-5.1" width="0.24" height="11.23"/><rect class="cls-16" x="208.88" y="-5.1" width="0.24" height="11.23"/><rect class="cls-16" x="211.59" y="-5.1" width="0.24" height="11.23"/><rect class="cls-16" x="214.3" y="-5.1" width="0.24" height="11.23"/><rect class="cls-16" x="217.01" y="-5.1" width="0.24" height="11.23"/><rect class="cls-16" x="219.72" y="-5.1" width="0.24" height="14.12"/></g><path class="cls-16" d="M201.15,135.43l-.11.11a.2.2,0,0,1,.11-.11"/><path class="cls-16" d="M204.78,134.24a3.53,3.53,0,0,0-1.32.26l-2.31.93a.24.24,0,0,0-.14.2.16.16,0,0,0,.16.16h2.57v2a5.54,5.54,0,0,1-1.72.26c-1.87,0-2.78-1-2.78-3a4.86,4.86,0,0,1,.3-1.83,36.82,36.82,0,0,1,4.62-3.2l-.25,0a11.23,11.23,0,0,0-1.8-.17,5.11,5.11,0,0,0-3.86,1.39,5.36,5.36,0,0,0-1.33,3.85,4.88,4.88,0,0,0,1.31,3.62A5.14,5.14,0,0,0,202,140a9.62,9.62,0,0,0,2.16-.24,6.1,6.1,0,0,0,1.46-.58.22.22,0,0,0,.11-.19v-3.83a.94.94,0,0,0-.94-.94"/><path class="cls-16" d="M214.5,131.16a.65.65,0,0,0-.63-.22l-3,.63a.21.21,0,0,0-.17.21.09.09,0,0,0,.1.09h.57a1.58,1.58,0,0,1,1.16.4,1.69,1.69,0,0,1,.38,1.18,1.54,1.54,0,0,1-.41,1.14,1.61,1.61,0,0,1-1.21.41H209.4v-2.87a.22.22,0,0,0-.26-.21l-1.63.34a.51.51,0,0,0-.41.5v6.17a.94.94,0,0,0,.94.94h1.14a.21.21,0,0,0,.21-.21v-2.8h2.31a3.84,3.84,0,0,0,1.84-.42,2.93,2.93,0,0,0,1.23-1.21,3.55,3.55,0,0,0,.43-1.78,3.68,3.68,0,0,0-.56-2.08l-.15-.21"/><path class="cls-16" d="M224.25,130h-1.14a.21.21,0,0,0-.21.21v5.9l-4.08-5.72a.92.92,0,0,0-.77-.39H216.8a.21.21,0,0,0-.21.21v8.71a.94.94,0,0,0,.94.94h1.14a.21.21,0,0,0,.21-.21v-5.61l3.88,5.43a.94.94,0,0,0,.76.39H225a.22.22,0,0,0,.21-.21V131a.94.94,0,0,0-.94-.94"/><path class="cls-16" d="M214.27,119.41a2,2,0,0,0,.31.57l2.39,3a.14.14,0,0,0,.24,0l2.33-4.78a2,2,0,0,0,.09-1.48l-2.69-7.79a.15.15,0,0,0-.27,0l-.45.91a1.93,1.93,0,0,0-.1,1.49l1.39,4a1.4,1.4,0,0,1-.07,1.1l0,.08a.09.09,0,0,1-.16,0l-1.48-4.25a.15.15,0,0,0-.27,0l-.45.91a1.91,1.91,0,0,0-.1,1.48l1.21,3.52a1.34,1.34,0,0,1-.06,1l0,.09a.1.1,0,0,1-.18,0l-1.28-3.67a.15.15,0,0,0-.27,0l-.45.91a1.93,1.93,0,0,0-.1,1.49Z"/><path class="cls-16" d="M221.38,123.48l0,0a2,2,0,0,1-.7.13c-.24,0-.35-.28-.35-.3a0,0,0,0,1,0,0l1,.14h0s0,0,0,0m.92-.08H222l-.36-.37a1,1,0,0,0-.73-.31l-1.15,0a5.43,5.43,0,0,1-.9,0l-.67-.08a.06.06,0,0,0,0,.1l.41.52a.05.05,0,0,1,0,.09l-1.05.18a.16.16,0,0,0-.1.24l.12.17a1.15,1.15,0,0,1,.22.91.06.06,0,0,1-.06.05s0,0-.06,0l-8.18-10.41-.21-.23L198.7,104a.15.15,0,0,0-.25.11v1.69a1.92,1.92,0,0,0,.58,1.37l7.61,7.5a1.45,1.45,0,0,1,.43,1,.08.08,0,0,1-.14.06l-7.27-7.07a.14.14,0,0,0-.24.11v1.52a1.91,1.91,0,0,0,.58,1.37l6.64,6.53a1.42,1.42,0,0,1,.43,1v0a.08.08,0,0,1-.14.06l-6.3-6.13a.14.14,0,0,0-.24.1v1.35A1.92,1.92,0,0,0,201,116l5.68,5.58a1.41,1.41,0,0,1,.43,1v0a.08.08,0,0,1-.14.06l-5.33-5.2a.15.15,0,0,0-.25.11v1.18a1.93,1.93,0,0,0,.58,1.38l4.71,4.62a1.45,1.45,0,0,1,.43,1v0a.08.08,0,0,1-.14.06l-4.37-4.26a.14.14,0,0,0-.24.1v1a1.9,1.9,0,0,0,.57,1.37l3.55,3.48a1.55,1.55,0,0,0,.68.39.08.08,0,0,1,0,.15c-1.08.66-6.38,3.87-6.73,4.07a1.86,1.86,0,0,0-.72.73,2.1,2.1,0,0,0-.15.3l1.81-.72,2-.84a1,1,0,0,1,.58-.07l.17.05s.06.1,0,.12l-1.66.8a1.68,1.68,0,0,0-.82.75l0,0a.1.1,0,0,0,.12.13l12.68-3.85a6.88,6.88,0,0,0,2.26-1.18c1.44-1.17,3.84-3,3.84-3a1.63,1.63,0,0,1,.74-.31l.9-.13a.72.72,0,0,0,.57-.54,0,0,0,0,0,0,0,.73.73,0,0,1-.48.18.69.69,0,0,1-.52-.24s0,0,0,0a1.15,1.15,0,0,1,.72-.26.86.86,0,0,1,.88.55s0,0,.05,0v0a.86.86,0,0,0,0-.24,1.12,1.12,0,0,0-1.06-1"/></g><polygon class="cls-16" points="45.61 63.44 52.68 63.51 52.72 59.01 45.65 58.93 45.61 63.44"/><path class="cls-16" d="M45.6,65.2l0,5.07,4.83,0c1.24,0,2.25-.68,2.25-1.55l0-3.49Z"/><path class="cls-16" d="M43.15,57.14h0l9.57.1,0-3.66c0-.87-1-1.59-2.23-1.6l-14.15-.16-.14,18.35,6.82.07Z"/><path class="cls-16" d="M33.83,57l0-5.23-4.93-.06c-1.24,0-2.25.68-2.25,1.55l0,3.67Z"/><polygon class="cls-16" points="33.81 58.8 26.65 58.72 26.61 63.23 33.78 63.3 33.81 58.8"/><path class="cls-16" d="M33.77,65.07,26.6,65l0,3.49c0,.87,1,1.59,2.23,1.6l4.93.06Z"/></g></g></svg>