<svg id="Layer_1" data-name="Layer 1" xmlns="http://www.w3.org/2000/svg" viewBox="0 0 70 70"><defs><style>.cls-1{fill:#e4f6f9;}.cls-2{fill:#07a3dd;}</style></defs><title>ICON_benefit</title><rect class="cls-1" x="1.47" y="14.1" width="67.06" height="14.14" rx="5.26" ry="5.26"/><path class="cls-2" d="M63,29H7.05A6.39,6.39,0,0,1,.67,22.66v-3A6.4,6.4,0,0,1,7.05,13.3H63a6.4,6.4,0,0,1,6.38,6.39v3A6.39,6.39,0,0,1,63,29ZM7.05,14.9a4.79,4.79,0,0,0-4.79,4.79v3a4.8,4.8,0,0,0,4.79,4.79H63a4.8,4.8,0,0,0,4.79-4.79v-3A4.79,4.79,0,0,0,63,14.9Z"/><path class="cls-2" d="M54.07,70.13H15.84a9.31,9.31,0,0,1-9.3-9.3V28.07H8.13V60.83a7.72,7.72,0,0,0,7.71,7.71H54.07a7.72,7.72,0,0,0,7.71-7.71V28.07h1.59V60.83A9.31,9.31,0,0,1,54.07,70.13Z"/><rect class="cls-2" x="34.16" y="20.46" width="1.59" height="48.87"/><path class="cls-2" d="M20.8,14.9c-4.84,0-8.6-4.67-8.6-8.68a5.63,5.63,0,0,1,2.08-4.49A10.13,10.13,0,0,1,20.8-.13c13.29,0,14.93,14,15,14.15l-1.59.17a18.16,18.16,0,0,0-2.22-6.45A12.11,12.11,0,0,0,20.8,1.46,8.72,8.72,0,0,0,15.29,3,4.11,4.11,0,0,0,13.8,6.22c0,3.28,3.05,7.08,7,7.08Z"/><path class="cls-2" d="M49.68,14.9V13.3c4,0,7-3.8,7-7.08A4.11,4.11,0,0,0,55.19,3a8.72,8.72,0,0,0-5.51-1.5A12.11,12.11,0,0,0,38.52,7.78a18.15,18.15,0,0,0-2.2,6.4L34.73,14c0-.15,1.66-14.15,15-14.15A10.13,10.13,0,0,1,56.2,1.73a5.63,5.63,0,0,1,2.08,4.49C58.28,10.23,54.52,14.9,49.68,14.9Z"/></svg>