<svg id="Layer_1" data-name="Layer 1" xmlns="http://www.w3.org/2000/svg" viewBox="0 0 70 70"><defs><style>.cls-1{fill:#e4f6f9;}.cls-2{fill:#07a3dd;}</style></defs><title>ICON_blockunblock</title><rect class="cls-1" x="0.65" y="11.12" width="68.7" height="7.51"/><path class="cls-2" d="M36.71,53H6.19A6.2,6.2,0,0,1,0,46.82V11.64A6.2,6.2,0,0,1,6.19,5.45H63.81A6.2,6.2,0,0,1,70,11.64v35H68.7v-35a4.89,4.89,0,0,0-4.89-4.89H6.19A4.89,4.89,0,0,0,1.3,11.64V46.82a4.89,4.89,0,0,0,4.89,4.89H36.71Z"/><rect class="cls-2" x="1.49" y="18.39" width="67.86" height="1.3"/><rect class="cls-2" x="1.49" y="25.23" width="67.86" height="1.3"/><rect class="cls-2" x="8.1" y="33.06" width="15.03" height="1.3"/><rect class="cls-2" x="26.31" y="33.06" width="6.94" height="1.3"/><path class="cls-2" d="M62.65,64.55H44.53a3.89,3.89,0,0,1-3.89-3.88V47.25a3.89,3.89,0,0,1,3.89-3.88H62.65a3.89,3.89,0,0,1,3.89,3.88V60.67A3.89,3.89,0,0,1,62.65,64.55ZM44.53,44.66a2.59,2.59,0,0,0-2.59,2.59V60.67a2.59,2.59,0,0,0,2.59,2.58H62.65a2.59,2.59,0,0,0,2.59-2.58V47.25a2.59,2.59,0,0,0-2.59-2.59Z"/><path class="cls-2" d="M47.59,44h-1.3V37.27a7.4,7.4,0,0,1,14.8,0h-1.3a6.1,6.1,0,1,0-12.2,0Z"/><path class="cls-2" d="M53.54,60.36a6.62,6.62,0,1,1,6.61-6.61A6.63,6.63,0,0,1,53.54,60.36Zm0-11.93a5.32,5.32,0,1,0,5.31,5.32A5.33,5.33,0,0,0,53.54,48.43Z"/><polygon class="cls-2" points="51.25 56.52 50.41 55.52 52.89 53.44 52.89 50.37 54.19 50.37 54.19 54.05 51.25 56.52"/></svg>