<svg id="Layer_1" data-name="Layer 1" xmlns="http://www.w3.org/2000/svg" viewBox="0 0 70 70"><defs><style>.cls-1{fill:none;stroke:#07a3dd;stroke-width:1.5px;}.cls-2{fill:#e4f6f9;}</style></defs><title>ICON_HistoriTransaksi</title><polyline class="cls-1" points="58.7 35.84 58.7 1.12 0.72 1.12 0.72 58.93 46.46 58.93"/><path class="cls-1" d="M13.64,13.29H8m43.12,0H21.3"/><path class="cls-1" d="M13.64,21.52H8m31.35,0H21.3"/><path class="cls-1" d="M13.64,29.61H8m41.08,0H21.3"/><path class="cls-1" d="M13.64,45.93H8m30.88,0H21.3"/><path class="cls-1" d="M13.64,37.85H8m33.59,0H21.3"/><path class="cls-2" d="M50.66,68.88V65.75a8,8,0,0,1,8-8h0a8,8,0,0,1,8,8v3.13"/><path class="cls-2" d="M66.73,44.64v2.18a8,8,0,0,1-8,8h0a8,8,0,0,1-8-8V44.64"/><path class="cls-1" d="M66.73,40.82v6a8,8,0,0,1-8,8h0a8,8,0,0,1-8-8v-6"/><path class="cls-1" d="M50.66,68.88v-6a8,8,0,0,1,8-8h0a8,8,0,0,1,8,8v6"/><line class="cls-1" x1="69.28" y1="40.82" x2="47.6" y2="40.82"/><line class="cls-1" x1="69.28" y1="68.88" x2="47.6" y2="68.88"/></svg>