<svg id="Layer_1" data-name="Layer 1" xmlns="http://www.w3.org/2000/svg" viewBox="0 0 70 70"><defs><style>.cls-1{fill:#e4f6f9;}.cls-2{fill:none;stroke:#07a3dd;stroke-width:1.5px;}.cls-3{fill:#07a3dd;}</style></defs><title>ICON_UbahPIN</title><path class="cls-1" d="M58.39,58.78v4.27a6.07,6.07,0,0,1-6.07,6.07H17.68a6.07,6.07,0,0,1-6.07-6.07V59"/><path class="cls-1" d="M11.61,40.37V36.08A6.07,6.07,0,0,1,17.68,30H52.32a6.07,6.07,0,0,1,6.07,6.07v4.67"/><path class="cls-2" d="M58.39,58.78v4.27a6.07,6.07,0,0,1-6.07,6.07H17.68a6.07,6.07,0,0,1-6.07-6.07V59"/><path class="cls-2" d="M11.61,40.37V36.08A6.07,6.07,0,0,1,17.68,30H52.32a6.07,6.07,0,0,1,6.07,6.07v4.67"/><rect class="cls-2" x="5.62" y="42.8" width="58.75" height="13.81" rx="6.9" ry="6.9"/><circle class="cls-3" cx="15.37" cy="49.67" r="2.8"/><circle class="cls-3" cx="28.46" cy="49.67" r="2.8"/><circle class="cls-3" cx="41.56" cy="49.67" r="2.8"/><line class="cls-2" x1="49.86" y1="51.74" x2="57.24" y2="51.74"/><path class="cls-2" d="M18.62,30V17.26A16.38,16.38,0,0,1,35,.88h0A16.38,16.38,0,0,1,51.38,17.26v1.16l-3.72,0V17.8A12.66,12.66,0,0,0,35,5.14h0A12.66,12.66,0,0,0,22.34,17.8V30"/></svg>