<svg id="Layer_1" data-name="Layer 1" xmlns="http://www.w3.org/2000/svg" viewBox="0 0 70 70"><defs><style>.cls-1{fill:#07a3dd;}.cls-2{fill:#e4f6f9;}</style></defs><title>ICON_limit</title><rect class="cls-1" x="10.36" y="1.2" width="1.58" height="68.16"/><rect class="cls-1" x="34.58" y="1.2" width="1.58" height="68.16"/><rect class="cls-1" x="57.74" y="1.2" width="1.58" height="68.16"/><circle class="cls-2" cx="11.31" cy="60.79" r="8.42"/><path class="cls-1" d="M11.31,70a9.21,9.21,0,1,1,9.21-9.21A9.22,9.22,0,0,1,11.31,70Zm0-16.83a7.63,7.63,0,1,0,7.63,7.62A7.64,7.64,0,0,0,11.31,53.17Z"/><circle class="cls-2" cx="35.37" cy="35.53" r="8.42"/><path class="cls-1" d="M35.37,44.73a9.21,9.21,0,1,1,9.2-9.2A9.22,9.22,0,0,1,35.37,44.73Zm0-16.83A7.63,7.63,0,1,0,43,35.53,7.64,7.64,0,0,0,35.37,27.9Z"/><circle class="cls-2" cx="58.69" cy="9.21" r="8.42"/><path class="cls-1" d="M58.69,18.41a9.21,9.21,0,1,1,9.2-9.2A9.22,9.22,0,0,1,58.69,18.41Zm0-16.83a7.63,7.63,0,1,0,7.63,7.63A7.64,7.64,0,0,0,58.69,1.58Z"/></svg>