<svg id="Layer_1" data-name="Layer 1" xmlns="http://www.w3.org/2000/svg" viewBox="0 0 70 70"><defs><style>.cls-1{fill:#e4f6f9;}.cls-2{fill:#07a3dd;}</style></defs><title>ICON_visapaywave</title><rect class="cls-1" x="1.05" y="22.23" width="48.44" height="5.3"/><path class="cls-2" d="M45.58,52H5A4.56,4.56,0,0,1,.4,47.4V22.6A4.56,4.56,0,0,1,5,18H45.58a4.56,4.56,0,0,1,4.55,4.56V47.4A4.56,4.56,0,0,1,45.58,52ZM5,19.34A3.27,3.27,0,0,0,1.69,22.6V47.4A3.27,3.27,0,0,0,5,50.66H45.58a3.26,3.26,0,0,0,3.26-3.26V22.6a3.26,3.26,0,0,0-3.26-3.26Z"/><rect class="cls-2" x="1.64" y="27.17" width="47.85" height="1.29"/><rect class="cls-2" x="6.3" y="37.51" width="10.6" height="1.29"/><rect class="cls-2" x="19.14" y="37.51" width="4.9" height="1.29"/><path class="cls-2" d="M57.67,25.24c6.08,4.46,5.65,14-.28,18.38-.75.56,0,1.83.74,1.27,6.88-5,7.3-15.77.28-20.91-.76-.56-1.49.71-.74,1.26Z"/><path class="cls-2" d="M62.05,21.64c8.5,6.2,7.91,19.53-.39,25.58-.76.56,0,1.83.74,1.27,9.24-6.74,9.82-21.24.39-28.11-.77-.56-1.5.71-.74,1.26Z"/><path class="cls-2" d="M53.48,29.61c3.09,2.27,2.89,7.4-.16,9.64-.75.56,0,1.83.74,1.27a7.6,7.6,0,0,0,.16-12.17c-.77-.56-1.5.71-.74,1.26Z"/></svg>