<?xml version="1.0" encoding="utf-8"?>
<!-- Generator: Adobe Illustrator 21.0.2, SVG Export Plug-In . SVG Version: 6.00 Build 0)  -->
<svg version="1.1" id="Layer_1" xmlns="http://www.w3.org/2000/svg" xmlns:xlink="http://www.w3.org/1999/xlink" x="0px" y="0px"
	 viewBox="0 0 2964 3019" style="enable-background:new 0 0 2964 3019;" xml:space="preserve">
<style type="text/css">
	.st0{fill:#15ABE1;}
	.st1{fill:#FFFFFF;}
</style>
<g id="Every_yay" transform="translate(-8497 -824)">
	<g id="Group_69" transform="translate(3400 27)">
		<g id="Path_17" transform="translate(5097 991)">
			<g>
				<path class="st0" d="M160,160v1802h1725.4h19.5H2804V160H160 M0,0h2964v2122c0,0-331.6,0-1059.1,0c-6.2,0-12.8,0-19.5,0
					c-741,0-1885.4,0-1885.4,0V0z"/>
			</g>
		</g>
		<g id="Path_13">
			<rect x="5153.3" y="1489" class="st0" width="2855.2" height="160"/>
		</g>
		<g id="Ellipse_16" transform="translate(5699 2052)">
			<g>
				<circle class="st1" cx="882" cy="882" r="882"/>
			</g>
			<g>
				<path class="st0" d="M882,1764c-119,0-234.5-23.3-343.3-69.3c-105-44.4-199.4-108-280.3-189s-144.6-175.3-189-280.3
					C23.3,1116.5,0,1001,0,882s23.3-234.5,69.3-343.3c44.4-105,108-199.4,189-280.3c81-81,175.3-144.6,280.3-189
					C647.5,23.3,763,0,882,0s234.5,23.3,343.3,69.3c105,44.4,199.4,108,280.3,189c81,81,144.6,175.3,189,280.3
					c46,108.8,69.3,224.3,69.3,343.3s-23.3,234.5-69.3,343.3c-44.4,105-108,199.4-189,280.3s-175.3,144.6-280.3,189
					C1116.5,1740.7,1001,1764,882,1764z M882,160c-97.5,0-192.1,19.1-281,56.7c-86,36.4-163.2,88.4-229.5,154.8S253.1,515,216.7,601
					c-37.6,89-56.7,183.5-56.7,281s19.1,192,56.7,281c36.4,86,88.4,163.2,154.8,229.5S515,1510.9,601,1547.3
					c89,37.6,183.5,56.7,281,56.7s192-19.1,281-56.7c86-36.4,163.2-88.4,229.5-154.8s118.4-143.6,154.8-229.5
					c37.6-89,56.7-183.5,56.7-281s-19.1-192-56.7-281c-36.4-86-88.4-163.2-154.8-229.5S1249,253.1,1163,216.7
					C1074,179.1,979.5,160,882,160z"/>
			</g>
		</g>
		<g id="Group_68" transform="translate(-16.5 -177)">
			<g id="Path_14">
				<rect x="7194.5" y="974" class="st0" width="160" height="570.6"/>
			</g>
			<g id="Path_15">
				<rect x="6515.5" y="974" class="st0" width="160" height="570.6"/>
			</g>
			<g id="Path_16">
				<rect x="5836.5" y="974" class="st0" width="160" height="570.6"/>
			</g>
		</g>
		<g id="Path_18">
			<polygon class="st0" points="6804.4,3349.7 6499,3044.3 6499,2535 6659,2535 6659,2978.1 6917.5,3236.6 			"/>
		</g>
	</g>
</g>
</svg>
